<?xml version="1.0" encoding="UTF-8" standalone="no"?>
<!-- Created with Inkscape (http://www.inkscape.org/) -->

<svg
   width="256px"
   height="256px"
   viewBox="0 0 256 256"
   version="1.1"
   id="SVGRoot"
   sodipodi:docname="logo.svg"
   xml:space="preserve"
   inkscape:version="1.2 (1:1.2.1+202207142221+cd75a1ee6d)"
   inkscape:export-filename="logo-black-outline.png"
   inkscape:export-xdpi="192"
   inkscape:export-ydpi="192"
   xmlns:inkscape="http://www.inkscape.org/namespaces/inkscape"
   xmlns:sodipodi="http://sodipodi.sourceforge.net/DTD/sodipodi-0.dtd"
   xmlns="http://www.w3.org/2000/svg"
   xmlns:svg="http://www.w3.org/2000/svg"><sodipodi:namedview
     id="namedview1076"
     pagecolor="#ffffff"
     bordercolor="#999999"
     borderopacity="1"
     inkscape:showpageshadow="0"
     inkscape:pageopacity="0"
     inkscape:pagecheckerboard="0"
     inkscape:deskcolor="#d1d1d1"
     inkscape:document-units="px"
     showgrid="true"
     inkscape:zoom="1.5037599"
     inkscape:cx="98.752469"
     inkscape:cy="143.97246"
     inkscape:window-width="1509"
     inkscape:window-height="1015"
     inkscape:window-x="410"
     inkscape:window-y="0"
     inkscape:window-maximized="0"
     inkscape:current-layer="layer1"><inkscape:grid
       type="xygrid"
       id="grid1979"
       spacingx="4"
       spacingy="4"
       empspacing="8" /></sodipodi:namedview><defs
     id="defs1071" /><g
     inkscape:label="Layer 1"
     inkscape:groupmode="layer"
     id="layer1"><rect
       style="fill:none;stroke:none;stroke-width:24;stroke-linecap:round;stroke-linejoin:round;stroke-dasharray:none;fill-opacity:1"
       id="rect1058"
       width="256"
       height="256"
       x="0"
       y="0" /><path
       id="path10967-3"
       style="color:#000000;fill:none;fill-opacity:1;stroke:none;stroke-width:24.3074;stroke-linecap:round;stroke-linejoin:round;stroke-dasharray:none;stroke-opacity:1"
       d="m 38.207096,12.163543 a 2.0367701,2.0149348 0 0 0 -0.853209,0.289224 2.0367701,2.0149348 0 0 0 -0.861165,2.351177 l 12.219399,36.265201 a 2.0367701,2.0149348 0 0 0 1.931158,1.377259 h 2.322958 c 0.325961,3.022649 1.132246,5.259756 2.346825,6.461312 0.749149,0.741122 1.556212,1.156555 2.195674,1.367422 0.125128,0.04126 0.130159,0.01743 0.250592,0.04525 l 0.863155,0.8539 a 2.0367701,2.0149348 0 0 0 2.931542,-0.05312 c 1.347358,-1.433918 2.67489,-2.801649 3.94187,-4.055044 2.581035,-2.553368 5.486641,-4.926424 8.619608,-7.090917 a 2.0367701,2.0149348 0 0 0 0.274459,-3.07719 l -1.531403,-1.514983 c -0.02814,-0.119142 -0.0041,-0.124118 -0.04574,-0.247906 -0.213152,-0.632606 -0.633087,-1.431016 -1.38224,-2.172134 -1.214582,-1.201563 -3.475929,-1.999202 -6.531334,-2.321668 v -2.298055 a 2.0367701,2.0149348 0 0 0 -0.596651,-1.424479 l -24.438798,-24.1768 a 2.0367701,2.0149348 0 0 0 -1.656699,-0.578449 z m 171.288364,4.017661 c -6.78852,0 -11.63428,3.533372 -14.45485,7.99794 -2.27617,3.602807 -3.18465,7.675922 -3.53416,11.445024 -0.47466,-0.09975 -0.78247,-0.302997 -1.35837,-0.302997 -2.71542,10e-7 -6.29137,1.360203 -10.60447,5.627088 l -1.1933,1.180506 a 2.0367701,2.0149348 0 0 0 0.4972,3.210982 c 5.49164,2.838868 9.63872,5.635757 11.7222,7.696912 0.64507,0.638151 1.26917,1.297796 1.88342,1.971447 a 2.0367701,2.0149348 0 0 0 3.00116,0.02361 c 3.77665,-4.01123 4.93082,-7.369036 4.85475,-9.894622 -0.002,-0.05767 -0.0309,-0.07915 -0.0338,-0.135759 1.11976,0.179798 2.22087,0.393499 3.61967,0.393499 3.95191,-1e-6 9.03387,-1.280054 11.49546,-6.150445 3.89097,-7.698487 7.22964,-8.960054 9.37935,-8.960055 2.1497,-1e-6 3.6515,1.424479 3.6515,1.424479 a 2.0367701,2.0149348 0 0 0 3.37107,-2.061952 c 0,0 -1.18951,-3.492536 -4.56438,-6.831205 -3.37483,-3.338672 -9.07709,-6.634455 -17.73244,-6.634455 z m -89.60893,26.191533 c -16.29243,0 -36.658249,8.058994 -48.877586,20.147334 C 58.789606,74.60841 42.497013,94.755925 42.497013,118.9326 c 0,20.14723 12.219439,28.20632 20.365665,36.2652 8.146225,8.05889 20.365664,32.23584 20.365664,48.3536 0,8.05889 4.073154,8.05894 8.146266,8.05894 4.073133,0 4.073133,-8.05894 4.073133,-8.05894 0,-4.02946 4.07313,-8.05893 8.146259,-8.05893 12.21935,0 1e-4,24.1768 16.29253,24.1768 6.90798,0 8.14627,-4.02947 12.2194,-8.05893 4.07313,-4.02947 4.07313,-4.02947 8.14627,-4.02947 4.07313,0 8.14626,12.08845 8.14626,24.1768 0,6.14088 2.26623,12.0884 8.14627,12.0884 3.73119,0 8.14626,-5e-5 8.14626,-12.0884 0,-12.08835 4.07314,-28.20632 4.07314,-40.29467 0,-12.08835 1e-4,-32.23583 16.29253,-48.3536 12.21935,-12.08835 16.29253,-28.20631 16.29253,-40.29466 0,-16.117789 -4.07318,-32.235796 -16.29253,-44.324136 -4.07313,-4.029446 -24.4389,-16.117867 -40.73133,-16.117867 z m -46.315968,99.241353 2.776414,2.74665 c -0.972131,-0.78093 -1.90249,-1.70105 -2.776414,-2.74665 z m -30.978085,11.57094 a 2.0367701,2.0149348 0 0 0 -1.53538,0.5883 l -16.292532,16.11786 a 2.0367701,2.0149348 0 0 0 -0.381856,2.3256 c 0,0 1.256911,2.44205 4.112909,4.70236 2.145431,1.69794 5.267526,3.36461 9.468841,4.09046 l -0.980495,0.96998 a 2.0367701,2.0149348 0 0 0 -0.451466,0.67682 l -8.146266,20.14733 a 2.0367701,2.0149348 0 0 0 2.647139,2.61877 l 20.365665,-8.05894 a 2.0367701,2.0149348 0 0 0 0.684158,-0.44662 l 16.292532,-16.11787 0.08552,-0.0846 a 2.0367701,2.0149348 0 0 0 0.395778,-2.29805 c -3.049511,-6.26667 -6.520388,-11.81035 -9.46287,-15.44496 a 2.0367701,2.0149348 0 0 0 -3.028994,-0.16528 l -3.08866,3.05556 -0.980496,0.96998 c -0.733706,-4.15629 -2.418445,-7.24489 -4.134787,-9.36733 -2.284798,-2.82539 -4.753314,-4.06882 -4.753314,-4.06882 a 2.0367701,2.0149348 0 0 0 -0.815422,-0.21053 z m 144.814983,0.2794 a 2.0367701,2.0149348 0 0 0 -1.81382,0.80864 c -5.69709,7.61066 -8.35949,15.76055 -9.60408,23.30126 a 2.0367701,2.0149348 0 0 0 1.09983,2.12688 l 2.09225,1.03491 c 0.17099,0.64804 0.45362,1.48384 0.9984,2.5617 1.13971,2.255 3.31671,5.44151 7.50984,9.58966 l 16.29253,16.11787 a 2.0367701,2.0149348 0 0 0 3.33129,-2.17214 l -7.64706,-18.9137 2.17379,-2.15049 19.11867,7.56509 a 2.0367701,2.0149348 0 0 0 2.19567,-3.29558 l -16.29253,-16.11787 c -4.1931,-4.14818 -7.41414,-6.30184 -9.69358,-7.42933 -1.08954,-0.53894 -1.9344,-0.81854 -2.58946,-0.98769 l -5.52697,-10.93348 a 2.0367701,2.0149348 0 0 0 -1.64477,-1.10573 z" /><path
       id="path10967"
       style="color:#000000;fill:#915ad2;stroke:none;stroke-width:4.05124;stroke-linecap:round;stroke-linejoin:round;stroke-dasharray:none;stroke-opacity:1"
       d="m 209.4954,16.181204 c -6.78854,0 -11.63426,3.533362 -14.45485,7.99794 -2.27617,3.602813 -3.18465,7.675914 -3.53417,11.445024 -0.47465,-0.09975 -0.78247,-0.302997 -1.35837,-0.302997 -2.71541,10e-7 -6.29134,1.360195 -10.60446,5.627088 l -1.1933,1.180506 a 2.0367701,2.0149348 0 0 0 0.4972,3.210982 c 5.49164,2.838872 9.63872,5.635753 11.7222,7.696912 0.64507,0.638153 1.26917,1.297796 1.88342,1.971447 a 2.0367701,2.0149348 0 0 0 3.00116,0.02361 c 3.77667,-4.011238 4.93082,-7.36903 4.85474,-9.894622 -0.002,-0.05767 -0.0309,-0.07915 -0.0338,-0.135759 1.11977,0.179801 2.22087,0.393499 3.61967,0.393499 3.9519,-1e-6 9.03387,-1.280044 11.49546,-6.150445 3.89097,-7.698503 7.22964,-8.960054 9.37934,-8.960055 2.14971,-1e-6 3.65151,1.424479 3.65151,1.424479 a 2.0367701,2.0149348 0 0 0 3.37106,-2.061952 c 0,0 -1.1895,-3.492528 -4.56437,-6.831205 -3.37485,-3.338678 -9.07707,-6.634455 -17.73244,-6.634455 z" /><path
       id="path10973"
       style="color:#000000;fill:#915ad2;stroke:none;stroke-width:4.05124;stroke-linecap:round;stroke-linejoin:round;stroke-dasharray:none;stroke-opacity:1"
       d="m 38.207275,12.16318 a 2.0367701,2.0149348 0 0 0 -0.85321,0.289224 2.0367701,2.0149348 0 0 0 -0.861165,2.351178 l 12.219399,36.2652 a 2.0367701,2.0149348 0 0 0 1.931158,1.37726 h 2.322958 c 0.325961,3.022655 1.132244,5.259751 2.346826,6.461312 0.749151,0.741121 1.556211,1.156552 2.195673,1.367421 0.125131,0.04126 0.130159,0.01743 0.250592,0.04525 l 0.863155,0.853901 a 2.0367701,2.0149348 0 0 0 2.931542,-0.05312 c 1.347362,-1.433922 2.674888,-2.801645 3.94187,-4.055043 2.581042,-2.553373 5.486635,-4.92642 8.619608,-7.090918 a 2.0367701,2.0149348 0 0 0 0.274459,-3.07719 l -1.531403,-1.514983 c -0.02814,-0.119143 -0.0041,-0.124117 -0.04574,-0.247906 -0.213154,-0.632606 -0.633087,-1.431015 -1.38224,-2.172135 -1.214584,-1.201563 -3.475921,-1.999199 -6.531332,-2.321666 V 38.342908 A 2.0367701,2.0149348 0 0 0 64.302774,36.918429 L 39.863977,12.741629 A 2.0367701,2.0149348 0 0 0 38.207278,12.16318 Z" /><path
       id="path10985"
       style="color:#000000;fill:#915ad2;stroke:none;stroke-width:4.05124;stroke-linecap:round;stroke-linejoin:round;stroke-dasharray:none;stroke-opacity:1"
       d="m 187.40787,153.46467 a 2.0367701,2.0149348 0 0 0 -1.81382,0.80864 c -5.69711,7.61068 -8.3595,15.76054 -9.60408,23.30126 a 2.0367701,2.0149348 0 0 0 1.09982,2.12688 l 2.09226,1.03491 c 0.17099,0.64804 0.45362,1.48384 0.9984,2.5617 1.13971,2.255 3.31671,5.4415 7.50984,9.58966 l 16.29253,16.11787 a 2.0367701,2.0149348 0 0 0 3.33129,-2.17214 l -7.64706,-18.9137 2.17379,-2.15048 19.11866,7.56508 a 2.0367701,2.0149348 0 0 0 2.19568,-3.29558 L 206.86265,173.9209 c -4.19312,-4.14817 -7.41415,-6.30183 -9.69358,-7.42933 -1.08955,-0.53894 -1.9344,-0.81853 -2.58947,-0.98769 l -5.52696,-10.93348 a 2.0367701,2.0149348 0 0 0 -1.64477,-1.10573 z" /><path
       id="path10979"
       style="color:#000000;fill:#915ad2;stroke:none;stroke-width:4.05124;stroke-linecap:round;stroke-linejoin:round;stroke-dasharray:none;stroke-opacity:1"
       d="m 42.592505,153.18525 a 2.0367701,2.0149348 0 0 0 -1.535379,0.5883 l -16.292532,16.11786 a 2.0367701,2.0149348 0 0 0 -0.381857,2.3256 c 0,0 1.256905,2.44205 4.11291,4.70236 2.145435,1.69794 5.267518,3.36461 9.46884,4.09046 l -0.980494,0.96998 a 2.0367701,2.0149348 0 0 0 -0.451466,0.67682 l -8.146266,20.14734 a 2.0367701,2.0149348 0 0 0 2.647139,2.61876 l 20.365665,-8.05894 a 2.0367701,2.0149348 0 0 0 0.684158,-0.44662 l 16.292532,-16.11787 0.08552,-0.0846 a 2.0367701,2.0149348 0 0 0 0.395778,-2.29805 c -3.049527,-6.26671 -6.520391,-11.81037 -9.462879,-15.445 a 2.0367701,2.0149348 0 0 0 -3.028995,-0.16528 l -3.08866,3.05556 -0.980495,0.96998 c -0.733709,-4.15628 -2.418441,-7.24489 -4.134787,-9.36733 -2.284803,-2.82539 -4.753315,-4.06882 -4.753315,-4.06882 A 2.0367701,2.0149348 0 0 0 42.5925,153.18523 Z" /><path
       id="path2155"
       style="fill:#4b96ff;fill-opacity:1;stroke:none;stroke-width:4.05124;stroke-linecap:round;stroke-linejoin:round;stroke-dasharray:none;stroke-opacity:1"
       d="m 119.88653,42.372737 c -16.29247,0 -36.658224,8.05897 -48.877586,20.147334 -12.219363,12.088364 -28.511931,32.235806 -28.511931,56.412529 0,20.14728 12.219423,28.2063 20.365665,36.2652 8.146241,8.05891 20.365664,32.2358 20.365664,48.3536 0,8.05891 4.073146,8.05894 8.146266,8.05894 4.073133,0 4.073133,-8.05894 4.073133,-8.05894 0,-4.02946 4.07313,-8.05893 8.146259,-8.05893 12.21937,0 6e-5,24.1768 16.29253,24.1768 6.90801,0 8.14627,-4.02947 12.2194,-8.05893 4.07313,-4.02947 4.07313,-4.02947 8.14627,-4.02947 4.07313,0 8.14626,12.08843 8.14626,24.1768 0,6.1409 2.26621,12.0884 8.14627,12.0884 3.73119,0 8.14626,-3e-5 8.14626,-12.0884 0,-12.08837 4.07314,-28.2063 4.07314,-40.29467 0,-12.08837 6e-5,-32.23579 16.29253,-48.3536 12.21937,-12.08837 16.29253,-28.20629 16.29253,-40.29466 0,-16.117821 -4.07316,-32.235772 -16.29253,-44.324136 C 180.98353,54.46115 160.6178,42.372737 144.32533,42.372737 Z m 20.36567,32.235734 c 12.21937,0 24.43879,12.088436 24.43879,24.1768 0,20.147269 -8.14632,36.265199 -24.43879,36.265199 -12.21937,0 -24.4388,-16.11793 -24.4388,-32.23573 0,-12.088366 8.14633,-28.206269 24.4388,-28.206269 z M 87.301475,102.81474 c 4.073125,0 12.219396,8.05895 12.219396,16.11786 0,12.08838 -4.07315,28.20627 -16.292529,28.20627 -8.146249,0 -16.292531,-12.08842 -16.292531,-24.1768 0,-12.08838 12.219415,-20.14733 20.365664,-20.14733 z m 24.438795,40.29466 c 4.07313,0 12.2194,8.05894 12.2194,12.0884 0,8.05893 -12.2194,12.0884 -16.29254,12.0884 -4.07313,0 -8.146259,-4.02947 -4.07313,-12.0884 4.07313,-8.05892 4.07313,-12.0884 8.14627,-12.0884 z"
       sodipodi:nodetypes="sssssscssssssssssssssssssssssssssss" /></g></svg>
