<?xml version="1.0" encoding="UTF-8" standalone="no"?>
<!-- Created with Inkscape (http://www.inkscape.org/) -->

<svg
   width="256px"
   height="256px"
   viewBox="0 0 256 256"
   version="1.1"
   id="SVGRoot"
   sodipodi:docname="logo.svg"
   xml:space="preserve"
   inkscape:version="1.2 (1:1.2.1+202207142221+cd75a1ee6d)"
   inkscape:export-filename="logo-white-blue-background.png"
   inkscape:export-xdpi="192"
   inkscape:export-ydpi="192"
   xmlns:inkscape="http://www.inkscape.org/namespaces/inkscape"
   xmlns:sodipodi="http://sodipodi.sourceforge.net/DTD/sodipodi-0.dtd"
   xmlns="http://www.w3.org/2000/svg"
   xmlns:svg="http://www.w3.org/2000/svg"><sodipodi:namedview
     id="namedview1076"
     pagecolor="#ffffff"
     bordercolor="#999999"
     borderopacity="1"
     inkscape:showpageshadow="0"
     inkscape:pageopacity="0"
     inkscape:pagecheckerboard="0"
     inkscape:deskcolor="#d1d1d1"
     inkscape:document-units="px"
     showgrid="true"
     inkscape:zoom="1.0567607"
     inkscape:cx="32.173793"
     inkscape:cy="190.67704"
     inkscape:window-width="1920"
     inkscape:window-height="1015"
     inkscape:window-x="0"
     inkscape:window-y="0"
     inkscape:window-maximized="1"
     inkscape:current-layer="layer1"><inkscape:grid
       type="xygrid"
       id="grid1979"
       spacingx="4"
       spacingy="4"
       empspacing="8" /></sodipodi:namedview><defs
     id="defs1071" /><g
     inkscape:label="Layer 1"
     inkscape:groupmode="layer"
     id="layer1"><path
       style="fill:#d2d2d2;stroke:none;stroke-width:1px;stroke-linecap:butt;stroke-linejoin:miter;stroke-opacity:1;fill-opacity:1"
       d="M -320,288 V 544 H -64 V 288 Z"
       id="path3344-7-4" /><path
       style="fill:none;stroke:#4b96ff;stroke-width:20;stroke-linecap:round;stroke-linejoin:round;stroke-dasharray:none;stroke-opacity:1"
       d="m -288,448 c 0,32 32,64 64,64 h 64 c 32,0 64,-32 64,-64 v -64 c 0,-32 -32,-64 -64,-64 h -64 c -31.77983,0 -64,32 -64,64 z"
       id="path2280-5-5"
       sodipodi:nodetypes="ccccccccc" /><path
       style="fill:#965adc;fill-opacity:1;stroke:#965adc;stroke-width:4;stroke-linecap:round;stroke-linejoin:round;stroke-dasharray:none;stroke-opacity:1"
       d="m -140,332 -36,36 -84,68 -12,20 c -16,0 -36,32 -36,32 l 40,-12 -12,40 c 0,0 32,-20 32,-36 l 20,-12 c 0,0 40.02005,-56.02005 68,-84 l 36,-36 z"
       id="path389-35-2"
       sodipodi:nodetypes="cccccccccccc" /><path
       style="fill:#965adc;fill-opacity:1;stroke:#965adc;stroke-width:4;stroke-linecap:round;stroke-linejoin:round;stroke-dasharray:none;stroke-opacity:1"
       d="m -244,332 36.06535,36.06535 L -120,456 v 0 c 0,0 8,-24 16,-24 l 24,24 c 0,8 -24,16 -24,16 l 12,12 8,24 -24,-8 -116,-116 -36,-36 z"
       id="path389-3-6-5"
       sodipodi:nodetypes="ccccccccccccc" /><path
       style="fill:#965adc;fill-opacity:1;stroke:#965adc;stroke-width:4;stroke-linecap:round;stroke-linejoin:round;stroke-dasharray:none;stroke-opacity:1"
       d="m -260,348 16,-16 c 0,0 0,-8 -8,-16 -8,-8 -36,-16 -48,-24 8,12 16,40 24,48 8,8 16,8 16,8 z"
       id="path1132-2-4"
       sodipodi:nodetypes="cccccc" /><path
       style="fill:#965adc;fill-opacity:1;stroke:#965adc;stroke-width:4;stroke-linecap:round;stroke-linejoin:round;stroke-dasharray:none;stroke-opacity:1"
       d="m -124,348 -16,-16 8,-16 56,-16 z"
       id="path1134-9-7"
       sodipodi:nodetypes="ccccc" /><path
       style="fill:#4b96ff;fill-opacity:1;stroke:#4b96ff;stroke-width:4;stroke-linecap:round;stroke-linejoin:round;stroke-dasharray:none;stroke-opacity:1"
       d="m -228,480 c 0,12 12,12 12,0 0,-8 12,-8 12,0 0,16 20,16 20,0 0,-12 12,-12 12,0 0,24 16,24 16,0 0,-8 4,-16 12,-16 8,0 20,-8 20,-20 0,-12 0,-56 -12,-80 -8,-16 -32,-20 -56,-20 -24,0 -48,4 -56,20 -12,24 -12,68 -12,80 0,12 12,20 20,20 8,0 12,0 12,16 z"
       id="path1907-1-4"
       sodipodi:nodetypes="cccccccccccccc" /><path
       style="fill:#965adc;fill-opacity:1;stroke:#965adc;stroke-width:4;stroke-linecap:round;stroke-linejoin:round;stroke-dasharray:none;stroke-opacity:1"
       d="m -172,424 c -4,4 -8,8 0,16 8,8 36,-8 36,-16 0,-8 -4,-20 -12,-20 -8,0 -16,12 -24,20 z"
       id="path2030-2-4"
       sodipodi:nodetypes="ccccc" /><path
       style="fill:#965adc;fill-opacity:1;stroke:#965adc;stroke-width:4;stroke-linecap:round;stroke-linejoin:round;stroke-dasharray:none;stroke-opacity:1"
       d="m -236,404 c -8,0 -12,12 -12,20 0,8 28,24 36,16 8,-8 4,-12 0,-16 -8,-8 -16,-20 -24,-20 z"
       id="path2028-7-3"
       sodipodi:nodetypes="ccccc" /><path
       style="fill:#965adc;fill-opacity:1;stroke:#965adc;stroke-width:4;stroke-linecap:round;stroke-linejoin:round;stroke-dasharray:none;stroke-opacity:1"
       d="m -192,436 c -4,0 -16,16 -12,20 4,4 8,0 12,0 4,0 8,4 12,0 4,-4 -8,-20 -12,-20 z"
       id="path2051-0-0"
       sodipodi:nodetypes="ccccc" /><path
       style="fill:#d2d2d2;stroke:none;stroke-width:1px;stroke-linecap:butt;stroke-linejoin:miter;stroke-opacity:1;fill-opacity:1"
       d="M 0,288 V 544 H 256 V 288 Z"
       id="path3344-7-7" /><path
       id="path2280-5-8"
       style="color:#000000;fill:#4b96ff;stroke-linecap:round;stroke-linejoin:round;-inkscape-stroke:none"
       d="M 96,310 C 76.7537,310 58.61297,319.35759 45.01953,332.91992 31.42609,346.48226 22,364.64377 22,384 v 64 c 0,19.33329 9.35836,37.499 22.92969,51.07031 C 58.501,512.64164 76.66671,522 96,522 h 64 c 19.33329,0 37.499,-9.35836 51.07031,-22.92969 C 224.64164,485.499 234,467.33329 234,448 v -64 c 0,-19.33329 -9.35836,-37.499 -22.92969,-51.07031 C 197.499,319.35836 179.33329,310 160,310 Z m 0,20 h 64 c 12.66664,0 26.50106,6.64168 36.92969,17.07031 C 207.35832,357.49894 214,371.33336 214,384 v 64 c 0,12.66664 -6.64168,26.50106 -17.07031,36.92969 C 186.50106,495.35832 172.66664,502 160,502 H 96 C 83.33336,502 69.49894,495.35832 59.07031,484.92969 48.64168,474.50106 42,460.66664 42,448 V 384 C 42,371.35629 48.68493,357.5177 59.14648,347.08008 69.60804,336.64246 83.46653,330 96,330 Z" /><path
       id="path8948"
       style="color:#000000;fill:#965adc;stroke-width:4;stroke-linecap:round;stroke-linejoin:round"
       d="m 20.07812,290.00195 a 2.0002,2.0002 0 0 0 -1.74218,3.10743 c 3.77241,5.65864 7.81057,15.6429 11.82031,25.16601 4.00974,9.52311 7.84044,18.54943 12.42969,23.13867 4.23569,4.2357 8.52827,6.39811 11.78125,7.48242 2.10956,0.70319 3.77014,0.94065 4.73437,1.03321 l 35.48438,35.48437 11.06054,11.06055 -46.90429,37.9707 a 2.0002,2.0002 0 0 0 -0.45703,0.52539 l -11.49805,19.16211 c -8.90047,0.69471 -17.47865,8.76298 -24.29297,16.55078 -7.1243,8.14207 -12.18945,16.25586 -12.18945,16.25586 a 2.0002,2.0002 0 0 0 2.26953,2.97657 l 36.44336,-10.9336 -10.9336,36.44336 a 2.0002,2.0002 0 0 0 2.97657,2.26953 c 0,0 8.11379,-5.06515 16.25586,-12.18945 7.7878,-6.81432 15.85607,-15.3925 16.55078,-24.29297 L 93.0293,469.71484 a 2.0002,2.0002 0 0 0 0.59765,-0.55273 c 0,0 17.07937,-23.82173 36.6211,-48.08594 l 80.33789,80.33789 a 2.0002,2.0002 0 0 0 0.78125,0.48242 l 24,8 a 2.0002,2.0002 0 0 0 2.52929,-2.52929 l -8,-24 a 2.0002,2.0002 0 0 0 -0.48242,-0.78125 l -9.78515,-9.78516 c 2.3442,-0.8758 5.52146,-2.13964 9.26562,-4.01172 3.0795,-1.53975 6.18522,-3.33404 8.63672,-5.37695 C 239.98275,461.36919 242,459 242,456 a 2.0002,2.0002 0 0 0 -0.58594,-1.41406 l -24,-24 A 2.0002,2.0002 0 0 0 216,430 c -3,0 -5.36919,2.01725 -7.41211,4.46875 -2.04291,2.4515 -3.8372,5.55722 -5.37695,8.63672 -1.87208,3.74416 -3.13592,6.92142 -4.01172,9.26562 l -51.8086,-51.81054 c 4.84343,-5.52777 9.59731,-10.72035 14.02344,-15.14649 l 36,-36 48,-48 a 2.0002,2.0002 0 0 0 -1.96289,-3.33789 l -56,16 a 2.0002,2.0002 0 0 0 -1.24023,1.0293 l -7.85547,15.71094 -35.69531,35.69531 -16.20313,13.11719 -12.97656,-12.97852 -35.55078,-35.54883 c -0.09256,-0.96423 -0.33002,-2.62481 -1.03321,-4.73437 -1.08431,-3.25298 -3.24672,-7.54556 -7.48242,-11.78125 -4.58924,-4.58925 -13.61556,-8.41995 -23.13867,-12.42969 -9.52311,-4.00974 -19.50737,-8.0479 -25.16601,-11.82031 a 2.0002,2.0002 0 0 0 -1.03126,-0.33399 z" /><path
       id="path8969"
       style="color:#000000;fill:#4b96ff;stroke-width:4;stroke-linecap:round;stroke-linejoin:round"
       d="m 128,342 c -12.11109,0 -24.26961,0.99261 -34.57422,4.08398 -10.30461,3.09139 -18.8869,8.36559 -23.21484,17.02149 C 57.77368,387.97996 58,432.00002 58,444 c 0,6.66665 3.34617,12.2106 7.68359,16.00586 C 70.02103,463.80111 75.33334,466 80,466 c 2,0 3.67071,0.0141 4.92188,0.22266 1.25117,0.20853 2.01761,0.54496 2.66406,1.1914 C 88.87883,468.70695 90,472.16668 90,480 c 0,3.33333 0.83039,6.02255 2.27539,7.94922 C 93.72039,489.87588 95.83334,491 98,491 c 2.16666,0 4.27961,-1.12412 5.72461,-3.05078 C 105.16961,486.02255 106,483.33333 106,480 c 0,-1.5 0.4905,-2.37241 1.20312,-3.00586 C 107.91576,476.36069 108.94445,476 110,476 c 1.05555,0 2.08425,0.36069 2.79688,0.99414 C 113.50951,477.62759 114,478.5 114,480 c 0,8.83331 5.93335,14 12,14 6.06665,0 12,-5.16669 12,-14 0,-2.66666 0.66961,-4.47745 1.47461,-5.55078 C 140.27961,473.37589 141.16667,473 142,473 c 0.83333,0 1.72039,0.37589 2.52539,1.44922 0.805,1.07333 1.47461,2.88412 1.47461,5.55078 0,6.22221 1.01218,10.99701 2.71094,14.39453 C 150.4097,497.79205 153,500 156,500 c 3,0 5.5903,-2.20795 7.28906,-5.60547 C 164.98782,490.99701 166,486.22221 166,480 c 0,-3.66666 0.94853,-7.31732 2.66406,-9.89062 C 170.3796,467.53608 172.66667,466 176,466 c 4.66666,0 9.97897,-2.19889 14.31641,-5.99414 C 194.65383,456.2106 198,450.66665 198,444 c 0,-11.99998 0.22632,-56.02004 -12.21094,-80.89453 -4.32794,-8.6559 -12.91023,-13.9301 -23.21484,-17.02149 C 152.26961,342.99261 140.11109,342 128,342 Z" /><path
       id="path8984"
       style="color:#000000;fill:#965adc;stroke-width:4;stroke-linecap:round;stroke-linejoin:round"
       d="m 84,402 c -5,0 -8.61018,3.7477 -10.78906,8.10547 C 71.03205,414.46323 70,419.66667 70,424 c 0,3.16666 2.22573,5.81814 5.1543,8.48047 2.92855,2.66233 6.8021,5.23406 10.95117,7.30859 4.14906,2.07454 8.55767,3.65027 12.63086,4.19336 4.07318,0.54309 8.02956,0.0798 10.67773,-2.56836 4.2357,-4.23569 5.70779,-8.00206 5.04688,-11.30664 -0.66092,-3.30456 -3.04688,-5.52148 -5.04688,-7.52148 -3.88213,-3.88215 -7.88215,-8.88217 -12,-13 C 93.29623,405.46809 88.99999,402 84,402 Z m 88,0 c -5,0 -9.29623,3.46809 -13.41406,7.58594 -4.11785,4.11783 -8.11787,9.11785 -12,13 -2,2 -4.38596,4.21692 -5.04688,7.52148 -0.66091,3.30458 0.81118,7.07095 5.04688,11.30664 2.64817,2.64818 6.60455,3.11145 10.67773,2.56836 4.07319,-0.54309 8.4818,-2.11882 12.63086,-4.19336 4.14907,-2.07453 8.02262,-4.64626 10.95117,-7.30859 C 183.77427,429.81814 186,427.16666 186,424 c 0,-4.33333 -1.03205,-9.53677 -3.21094,-13.89453 C 180.61018,405.7477 176.99999,402 172,402 Z m -44,32 c -1.16667,0 -2.02857,0.45494 -2.89844,1.00586 -0.86987,0.55092 -1.73281,1.26863 -2.61328,2.11523 -1.76093,1.6932 -3.57649,3.90576 -5.15234,6.26953 -1.57586,2.36379 -2.90894,4.85381 -3.625,7.2168 -0.35803,1.1815 -0.57026,2.33691 -0.50391,3.49805 0.0663,1.16113 0.46643,2.39611 1.37891,3.30859 2.4714,2.4714 5.59409,2.60148 7.89844,2.02539 C 124.78873,458.86336 126.66667,458 128,458 c 1.33333,0 3.21128,0.86336 5.51562,1.43945 2.30436,0.57609 5.42704,0.44601 7.89844,-2.02539 0.91248,-0.91248 1.31256,-2.14746 1.37891,-3.30859 0.0663,-1.16114 -0.14588,-2.31655 -0.50391,-3.49805 -0.71606,-2.36299 -2.04914,-4.85301 -3.625,-7.2168 -1.57585,-2.36377 -3.39141,-4.57633 -5.15234,-6.26953 -0.88047,-0.8466 -1.74341,-1.56431 -2.61328,-2.11523 C 130.02857,434.45494 129.16667,434 128,434 Z" /><path
       style="fill:#d2d2d2;stroke:none;stroke-width:1px;stroke-linecap:butt;stroke-linejoin:miter;stroke-opacity:1;fill-opacity:1"
       d="M 288,288 V 544 H 544 V 288 Z"
       id="path3344-7-7-2" /><path
       id="path2280-5-8-0"
       style="color:#000000;fill:#4b96ff;stroke-linecap:round;stroke-linejoin:round"
       d="m 384,310 c -6.0345,0 -11.96083,0.92054 -17.67188,2.60156 3.15595,4.00195 5.067,7.96267 6.15821,11.23633 0.45848,1.37545 0.47491,2.11011 0.69336,3.20117 l 3.70508,3.70508 C 379.28029,330.30179 381.66589,330 384,330 h 64 c 2.34285,0 4.72923,0.29995 7.12305,0.73633 l 4.6582,-4.65821 6.62891,-13.25976 C 460.47499,311.00786 454.30197,310 448,310 Z m 121.68555,30.45508 -14.26172,14.26172 C 498.0183,363.7785 502,374.22854 502,384 v 38.1582 c 0.64654,-0.0878 1.30443,-0.1582 2,-0.1582 a 8.0008,8.0008 0 0 0 0.002,0 c 2.64815,5.2e-4 5.19572,1.05747 7.06836,2.92969 h 0.002 L 522,435.85742 V 384 c 0,-15.97033 -6.44313,-31.09962 -16.31445,-43.54492 z M 323.01367,344.9375 C 315.04114,356.45449 310,369.89838 310,384 v 64 c 0,3.54299 0.32106,7.0448 0.91797,10.48828 5.18259,-5.12975 11.30816,-9.8234 18.89844,-11.61719 L 330,446.56445 V 384 c 0,-9.17831 3.55739,-18.97083 9.49023,-27.65039 -4.2252,-1.45859 -9.50886,-4.22759 -14.56054,-9.2793 -0.67848,-0.67848 -1.30105,-1.40188 -1.91602,-2.13281 z M 477.2832,491.42383 C 468.2215,498.0183 457.77146,502 448,502 h -64 c -6.50391,0 -13.31002,-1.77494 -19.81055,-4.89062 -3.82584,5.68229 -8.98131,10.37184 -13.60547,14.41796 -0.27168,0.23773 -0.52375,0.42113 -0.79492,0.6543 C 360.16605,518.29643 371.85028,522 384,522 h 64 c 15.97033,0 31.09962,-6.44313 43.54492,-16.31445 z" /><path
       id="path8948-6"
       style="color:#000000;fill:#965adc;stroke-width:4;stroke-linecap:round;stroke-linejoin:round"
       d="m 308.07812,290.00195 a 2.0002,2.0002 0 0 0 -1.74218,3.10743 c 3.7724,5.65863 7.81057,15.64291 11.82031,25.16601 4.00974,9.5231 7.84044,18.54944 12.42969,23.13867 4.23568,4.2357 8.52827,6.39812 11.78125,7.48242 2.10956,0.70319 3.77014,0.94065 4.73437,1.03321 l 6.04297,6.04297 c 5.13478,-7.76779 12.99651,-12.8439 21.58789,-16.06836 l -8.80273,-8.80274 c -0.0926,-0.96423 -0.33002,-2.62481 -1.03321,-4.73437 -1.0843,-3.25298 -3.24672,-7.54557 -7.48242,-11.78125 -4.58923,-4.58925 -13.61557,-8.41995 -23.13867,-12.42969 -9.5231,-4.00974 -19.50738,-8.04791 -25.16601,-11.82031 a 2.0002,2.0002 0 0 0 -1.03126,-0.33399 z m 223.37305,8.07422 -56,16 a 2.0002,2.0002 0 0 0 -1.24023,1.0293 l -7.85547,15.71094 -9.08789,9.08789 c 8.59138,3.22446 16.45311,8.30057 21.58789,16.06836 l 6.55859,-6.5586 48,-48 a 2.0002,2.0002 0 0 0 -1.96289,-3.33789 z M 504,430 c -3,0 -5.36919,2.01725 -7.41211,4.46875 -0.92316,1.10779 -1.7883,2.35969 -2.60937,3.67187 -0.005,1.85681 0.0215,4.63533 0.0215,5.85938 0,9.34356 -4.70753,17.03241 -10.41602,22.02734 -3.93019,3.43892 -8.43558,5.93507 -13.24023,7.14454 l 28.24219,28.24218 a 2.0002,2.0002 0 0 0 0.78125,0.48242 l 24,8 a 2.0002,2.0002 0 0 0 2.52929,-2.52929 l -8,-24 a 2.0002,2.0002 0 0 0 -0.48242,-0.78125 l -9.78515,-9.78516 c 2.34419,-0.8758 5.52146,-2.13964 9.26562,-4.01172 3.0795,-1.53975 6.18522,-3.33404 8.63672,-5.37695 C 527.98275,461.36919 530,459 530,456 a 2.0002,2.0002 0 0 0 -0.58594,-1.41406 l -24,-24 A 2.0002,2.0002 0 0 0 504,430 Z m -165.64453,18.18555 -3.56836,5.94726 c -8.90046,0.69471 -17.47866,8.76299 -24.29297,16.55078 -7.12429,8.14207 -12.18945,16.25586 -12.18945,16.25586 a 2.0002,2.0002 0 0 0 2.26953,2.97657 l 36.44336,-10.9336 -10.9336,36.44336 a 2.0002,2.0002 0 0 0 2.97657,2.26953 c 0,0 8.11379,-5.06516 16.25586,-12.18945 7.78779,-6.81431 15.85607,-15.39251 16.55078,-24.29297 l 7.92578,-4.75586 c -0.12338,-0.98864 -0.28258,-1.77795 -0.42774,-2.41406 C 368.8066,474.02617 368.74267,474 368,474 c -7.17965,0 -13.96284,-3.05415 -19.58398,-7.97266 -4.8281,-4.22459 -8.90703,-10.39182 -10.06055,-17.84179 z" /><path
       id="path8969-8"
       style="color:#000000;fill:#4b96ff;stroke-width:4;stroke-linecap:round;stroke-linejoin:round"
       d="m 416,342 c -12.11108,0 -24.26962,0.99262 -34.57422,4.08398 -10.3046,3.09139 -18.88691,8.3656 -23.21484,17.02149 C 345.77369,387.97993 346,432.00003 346,444 c 0,6.66664 3.34618,12.2106 7.68359,16.00586 C 358.02103,463.80111 363.33334,466 368,466 c 2,0 3.67071,0.0141 4.92188,0.22266 1.25116,0.20853 2.01761,0.54496 2.66406,1.1914 C 376.87883,468.70695 378,472.16669 378,480 c 0,3.33333 0.83039,6.02255 2.27539,7.94922 1.445,1.92666 3.55795,3.05078 5.72461,3.05078 2.16666,0 4.27961,-1.12412 5.72461,-3.05078 C 393.16961,486.02255 394,483.33333 394,480 c 0,-1.5 0.49051,-2.37241 1.20312,-3.00586 C 395.91576,476.36069 396.94445,476 398,476 c 1.05555,0 2.08425,0.36069 2.79688,0.99414 C 401.5095,477.62759 402,478.5 402,480 c 0,8.8333 5.93336,14 12,14 6.06664,0 12,-5.1667 12,-14 0,-2.66666 0.66961,-4.47745 1.47461,-5.55078 C 428.27961,473.37589 429.16667,473 430,473 c 0.83333,0 1.72039,0.37589 2.52539,1.44922 0.805,1.07333 1.47461,2.88412 1.47461,5.55078 0,6.2222 1.01218,10.99701 2.71094,14.39453 C 438.4097,497.79205 441,500 444,500 c 3,0 5.5903,-2.20795 7.28906,-5.60547 C 452.98782,490.99701 454,486.2222 454,480 c 0,-3.66666 0.94853,-7.31733 2.66406,-9.89062 C 458.3796,467.53608 460.66667,466 464,466 c 4.66666,0 9.97897,-2.19889 14.31641,-5.99414 C 482.65382,456.2106 486,450.66664 486,444 c 0,-11.99997 0.22631,-56.02007 -12.21094,-80.89453 -4.32793,-8.65589 -12.91024,-13.9301 -23.21484,-17.02149 C 440.26962,342.99262 428.11108,342 416,342 Z m -44,60 c 4.99999,0 9.29624,3.46809 13.41406,7.58594 4.11785,4.11782 8.11788,9.11785 12,13 2,2 4.38596,4.21693 5.04688,7.52148 0.66091,3.30458 -0.81118,7.07096 -5.04688,11.30664 -2.64816,2.64816 -6.60456,3.11145 -10.67773,2.56836 -4.07319,-0.54309 -8.48181,-2.11882 -12.63086,-4.19336 -4.14907,-2.07453 -8.02263,-4.64626 -10.95117,-7.30859 C 360.22573,429.81814 358,427.16666 358,424 c 0,-4.33333 1.03205,-9.53678 3.21094,-13.89453 C 363.38982,405.7477 367,402 372,402 Z m 88,0 c 4.99999,0 8.61018,3.7477 10.78906,8.10547 C 472.96795,414.46322 474,419.66667 474,424 c 0,3.16666 -2.22573,5.81814 -5.1543,8.48047 -2.92854,2.66233 -6.8021,5.23406 -10.95117,7.30859 -4.14905,2.07454 -8.55767,3.65027 -12.63086,4.19336 -4.07317,0.54309 -8.02957,0.0798 -10.67773,-2.56836 -4.2357,-4.23568 -5.70779,-8.00206 -5.04688,-11.30664 0.66092,-3.30455 3.04688,-5.52148 5.04688,-7.52148 3.88212,-3.88215 7.88215,-8.88218 12,-13 C 450.70376,405.46809 455,402 460,402 Z m -44,32 c 1.16667,0 2.02857,0.45494 2.89844,1.00586 0.86987,0.55092 1.73281,1.26863 2.61328,2.11523 1.76093,1.6932 3.57649,3.90577 5.15234,6.26953 1.57586,2.36379 2.90894,4.85381 3.625,7.2168 0.35803,1.1815 0.57021,2.33691 0.50391,3.49805 -0.0663,1.16113 -0.46643,2.39611 -1.37891,3.30859 -2.4714,2.4714 -5.59408,2.60148 -7.89844,2.02539 C 419.21129,458.86336 417.33333,458 416,458 c -1.33333,0 -3.21128,0.86336 -5.51562,1.43945 -2.30435,0.57609 -5.42704,0.44601 -7.89844,-2.02539 -0.91248,-0.91248 -1.31261,-2.14746 -1.37891,-3.30859 -0.0663,-1.16114 0.14588,-2.31655 0.50391,-3.49805 0.71606,-2.36299 2.04914,-4.85301 3.625,-7.2168 1.57585,-2.36376 3.39141,-4.57633 5.15234,-6.26953 0.88047,-0.8466 1.74341,-1.56431 2.61328,-2.11523 C 413.97143,434.45494 414.83333,434 416,434 Z" /><path
       style="fill:#d2d2d2;fill-opacity:1;stroke:none;stroke-width:1px;stroke-linecap:butt;stroke-linejoin:miter;stroke-opacity:1"
       d="M 0,0 V 256 H 256 V 0 Z"
       id="path3344-7-7-2-5" /><path
       id="path2280-5-8-0-0"
       style="color:#000000;fill:#4b96ff;stroke-linecap:round;stroke-linejoin:round"
       d="m 96,22 c -6.0345,0 -11.96083,0.92054 -17.67188,2.60156 3.15595,4.00195 5.067,7.96267 6.15821,11.23633 0.45848,1.37545 0.47491,2.11011 0.69336,3.20117 l 3.70508,3.70508 C 91.28029,42.30179 93.66589,42 96,42 h 64 c 2.34285,0 4.72923,0.29995 7.12305,0.73633 l 4.6582,-4.65821 6.62891,-13.25976 C 172.47499,23.00786 166.30197,22 160,22 Z M 217.68555,52.45508 203.42383,66.7168 C 210.0183,75.7785 214,86.22854 214,96 v 38.1582 C 214.64654,134.0704 215.30443,134 216,134 a 8.0008,8.0008 0 0 0 0.002,0 c 2.64815,5.2e-4 5.19572,1.05747 7.06836,2.92969 h 0.002 L 234,147.85742 V 96 C 234,80.02967 227.55687,64.90038 217.68555,52.45508 Z M 35.01367,56.9375 C 27.04114,68.45449 22,81.89838 22,96 v 64 c 0,3.54299 0.32106,7.0448 0.91797,10.48828 5.18259,-5.12975 11.30816,-9.8234 18.89844,-11.61719 L 42,158.56445 V 96 c 0,-9.17831 3.55739,-18.97083 9.49023,-27.65039 -4.2252,-1.45859 -9.50886,-4.22759 -14.56054,-9.2793 -0.67848,-0.67848 -1.30105,-1.40188 -1.91602,-2.13281 z M 189.2832,203.42383 C 180.2215,210.0183 169.77146,214 160,214 H 96 c -6.50391,0 -13.31002,-1.77494 -19.81055,-4.89062 -3.82584,5.68229 -8.98131,10.37184 -13.60547,14.41796 -0.27168,0.23773 -0.52375,0.42113 -0.79492,0.6543 C 72.16605,230.29643 83.85028,234 96,234 h 64 c 15.97033,0 31.09962,-6.44313 43.54492,-16.31445 z" /><path
       id="path8948-6-4"
       style="color:#000000;fill:#965adc;stroke-width:4;stroke-linecap:round;stroke-linejoin:round"
       d="m 20.07812,2.00195 a 2.0002,2.0002 0 0 0 -1.74218,3.10743 c 3.7724,5.65863 7.81057,15.64291 11.82031,25.16601 4.00974,9.5231 7.84044,18.54944 12.42969,23.13867 4.23568,4.2357 8.52827,6.39812 11.78125,7.48242 2.10956,0.70319 3.77014,0.94065 4.73437,1.03321 l 6.04297,6.04297 C 70.27931,60.20487 78.14104,55.12876 86.73242,51.9043 L 77.92969,43.10156 C 77.83709,42.13733 77.59967,40.47675 76.89648,38.36719 75.81218,35.11421 73.64976,30.82162 69.41406,26.58594 64.82483,21.99669 55.79849,18.16599 46.27539,14.15625 36.75229,10.14651 26.76801,6.10834 21.10938,2.33594 A 2.0002,2.0002 0 0 0 20.07812,2.00195 Z m 223.37305,8.07422 -56,16 a 2.0002,2.0002 0 0 0 -1.24023,1.0293 l -7.85547,15.71094 -9.08789,9.08789 c 8.59138,3.22446 16.45311,8.30057 21.58789,16.06836 l 6.55859,-6.5586 48,-48 a 2.0002,2.0002 0 0 0 -1.96289,-3.33789 z M 216,142 c -3,0 -5.36919,2.01725 -7.41211,4.46875 -0.92316,1.10779 -1.7883,2.35969 -2.60937,3.67187 -0.005,1.85681 0.0215,4.63533 0.0215,5.85938 0,9.34356 -4.70753,17.03241 -10.41602,22.02734 -3.93019,3.43892 -8.43558,5.93507 -13.24023,7.14454 l 28.24219,28.24218 a 2.0002,2.0002 0 0 0 0.78125,0.48242 l 24,8 a 2.0002,2.0002 0 0 0 2.52929,-2.52929 l -8,-24 a 2.0002,2.0002 0 0 0 -0.48242,-0.78125 l -9.78515,-9.78516 c 2.34419,-0.8758 5.52146,-2.13964 9.26562,-4.01172 3.0795,-1.53975 6.18522,-3.33404 8.63672,-5.37695 C 239.98275,173.36919 242,171 242,168 a 2.0002,2.0002 0 0 0 -0.58594,-1.41406 l -24,-24 A 2.0002,2.0002 0 0 0 216,142 Z m -165.64453,18.18555 -3.56836,5.94726 c -8.90046,0.69471 -17.47866,8.76299 -24.29297,16.55078 -7.12429,8.14207 -12.18945,16.25586 -12.18945,16.25586 a 2.0002,2.0002 0 0 0 2.26953,2.97657 l 36.44336,-10.9336 -10.9336,36.44336 a 2.0002,2.0002 0 0 0 2.97657,2.26953 c 0,0 8.11379,-5.06516 16.25586,-12.18945 7.78779,-6.81431 15.85607,-15.39251 16.55078,-24.29297 l 7.92578,-4.75586 c -0.12338,-0.98864 -0.28258,-1.77795 -0.42774,-2.41406 C 80.8066,186.02617 80.74267,186 80,186 c -7.17965,0 -13.96284,-3.05415 -19.58398,-7.97266 -4.8281,-4.22459 -8.90703,-10.39182 -10.06055,-17.84179 z" /><path
       id="path8969-8-8"
       style="color:#000000;fill:#4b96ff;stroke-width:4;stroke-linecap:round;stroke-linejoin:round"
       d="m 128,54 c -12.11108,0 -24.26962,0.99262 -34.57422,4.08398 -10.3046,3.09139 -18.88691,8.3656 -23.21484,17.02149 C 57.77369,99.97993 58,144.00003 58,156 c 0,6.66664 3.34618,12.2106 7.68359,16.00586 C 70.02103,175.80111 75.33334,178 80,178 c 2,0 3.67071,0.0141 4.92188,0.22266 1.25116,0.20853 2.01761,0.54496 2.66406,1.1914 C 88.87883,180.70695 90,184.16669 90,192 c 0,3.33333 0.83039,6.02255 2.27539,7.94922 C 93.72039,201.87588 95.83334,203 98,203 c 2.16666,0 4.27961,-1.12412 5.72461,-3.05078 C 105.16961,198.02255 106,195.33333 106,192 c 0,-1.5 0.49051,-2.37241 1.20312,-3.00586 C 107.91576,188.36069 108.94445,188 110,188 c 1.05555,0 2.08425,0.36069 2.79688,0.99414 C 113.5095,189.62759 114,190.5 114,192 c 0,8.8333 5.93336,14 12,14 6.06664,0 12,-5.1667 12,-14 0,-2.66666 0.66961,-4.47745 1.47461,-5.55078 C 140.27961,185.37589 141.16667,185 142,185 c 0.83333,0 1.72039,0.37589 2.52539,1.44922 0.805,1.07333 1.47461,2.88412 1.47461,5.55078 0,6.2222 1.01218,10.99701 2.71094,14.39453 C 150.4097,209.79205 153,212 156,212 c 3,0 5.5903,-2.20795 7.28906,-5.60547 C 164.98782,202.99701 166,198.2222 166,192 c 0,-3.66666 0.94853,-7.31733 2.66406,-9.89062 C 170.3796,179.53608 172.66667,178 176,178 c 4.66666,0 9.97897,-2.19889 14.31641,-5.99414 C 194.65382,168.2106 198,162.66664 198,156 198,144.00003 198.22631,99.97993 185.78906,75.10547 181.46113,66.44958 172.87882,61.17537 162.57422,58.08398 152.26962,54.99262 140.11108,54 128,54 Z m -44,60 c 4.99999,0 9.29624,3.46809 13.41406,7.58594 4.11785,4.11782 8.11788,9.11785 12,13 2,2 4.38596,4.21693 5.04688,7.52148 0.66091,3.30458 -0.81118,7.07096 -5.04688,11.30664 -2.64816,2.64816 -6.60456,3.11145 -10.67773,2.56836 -4.07319,-0.54309 -8.48181,-2.11882 -12.63086,-4.19336 C 81.9564,149.71453 78.08284,147.1428 75.1543,144.48047 72.22573,141.81814 70,139.16666 70,136 c 0,-4.33333 1.03205,-9.53678 3.21094,-13.89453 C 75.38982,117.7477 79,114 84,114 Z m 88,0 c 4.99999,0 8.61018,3.7477 10.78906,8.10547 C 184.96795,126.46322 186,131.66667 186,136 c 0,3.16666 -2.22573,5.81814 -5.1543,8.48047 -2.92854,2.66233 -6.8021,5.23406 -10.95117,7.30859 -4.14905,2.07454 -8.55767,3.65027 -12.63086,4.19336 -4.07317,0.54309 -8.02957,0.0798 -10.67773,-2.56836 -4.2357,-4.23568 -5.70779,-8.00206 -5.04688,-11.30664 0.66092,-3.30455 3.04688,-5.52148 5.04688,-7.52148 3.88212,-3.88215 7.88215,-8.88218 12,-13 C 162.70376,117.46809 167,114 172,114 Z m -44,32 c 1.16667,0 2.02857,0.45494 2.89844,1.00586 0.86987,0.55092 1.73281,1.26863 2.61328,2.11523 1.76093,1.6932 3.57649,3.90577 5.15234,6.26953 1.57586,2.36379 2.90894,4.85381 3.625,7.2168 0.35803,1.1815 0.57021,2.33691 0.50391,3.49805 -0.0663,1.16113 -0.46643,2.39611 -1.37891,3.30859 -2.4714,2.4714 -5.59408,2.60148 -7.89844,2.02539 C 131.21129,170.86336 129.33333,170 128,170 c -1.33333,0 -3.21128,0.86336 -5.51562,1.43945 -2.30435,0.57609 -5.42704,0.44601 -7.89844,-2.02539 -0.91248,-0.91248 -1.31261,-2.14746 -1.37891,-3.30859 -0.0663,-1.16114 0.14588,-2.31655 0.50391,-3.49805 0.71606,-2.36299 2.04914,-4.85301 3.625,-7.2168 1.57585,-2.36376 3.39141,-4.57633 5.15234,-6.26953 0.88047,-0.8466 1.74341,-1.56431 2.61328,-2.11523 C 125.97143,146.45494 126.83333,146 128,146 Z" /></g></svg>
