<?xml version="1.0" encoding="UTF-8" standalone="no"?>
<!-- Created with Inkscape (http://www.inkscape.org/) -->

<svg
   width="256px"
   height="256px"
   viewBox="0 0 256 256"
   version="1.1"
   id="SVGRoot"
   sodipodi:docname="necrominis-manufacturers-property-icon.svg"
   xml:space="preserve"
   inkscape:version="1.2.2 (1:1.2.2+202212051550+b0a8486541)"
   inkscape:export-filename="necrominis-manufacturers-property-icon.png"
   inkscape:export-xdpi="192"
   inkscape:export-ydpi="192"
   xmlns:inkscape="http://www.inkscape.org/namespaces/inkscape"
   xmlns:sodipodi="http://sodipodi.sourceforge.net/DTD/sodipodi-0.dtd"
   xmlns="http://www.w3.org/2000/svg"
   xmlns:svg="http://www.w3.org/2000/svg"><sodipodi:namedview
     id="namedview1076"
     pagecolor="#ffffff"
     bordercolor="#999999"
     borderopacity="1"
     inkscape:showpageshadow="0"
     inkscape:pageopacity="0"
     inkscape:pagecheckerboard="0"
     inkscape:deskcolor="#d1d1d1"
     inkscape:document-units="px"
     showgrid="true"
     inkscape:zoom="1.4944853"
     inkscape:cx="85.313653"
     inkscape:cy="193.71218"
     inkscape:window-width="1920"
     inkscape:window-height="1015"
     inkscape:window-x="0"
     inkscape:window-y="0"
     inkscape:window-maximized="1"
     inkscape:current-layer="layer1"><inkscape:grid
       type="xygrid"
       id="grid1979"
       spacingx="4"
       spacingy="4"
       empspacing="8" /></sodipodi:namedview><defs
     id="defs1071" /><g
     inkscape:label="Layer 1"
     inkscape:groupmode="layer"
     id="layer1"><path
       style="fill:none;stroke:#000000;stroke-width:16;stroke-linecap:round;stroke-linejoin:round;stroke-dasharray:none;stroke-opacity:1"
       d="m 128,64 -64,32 64,32 64,-32 z"
       id="path344"
       sodipodi:nodetypes="ccccc" /><path
       id="path1781"
       style="color:#000000;fill:#e1e1e1;stroke-width:16;stroke-linecap:round;stroke-linejoin:round;-inkscape-stroke:none;fill-opacity:1"
       d="M 128 150.62695 L 107.3125 171.3125 C 102.46514 176.16067 94.978368 177.37711 88.845703 174.3125 A 8.0008 8.0008 0 0 0 88.84375 174.3125 L 56 157.89062 L 56 192 A 8.0008 8.0008 0 0 0 60.421875 199.15625 L 124.42188 231.15625 A 8.0008 8.0008 0 0 0 131.57812 231.15625 L 195.57812 199.15625 A 8.0008 8.0008 0 0 0 200 192 L 200 157.89062 L 167.15625 174.3125 A 8.0008 8.0008 0 0 0 167.1543 174.3125 C 161.02162 177.37711 153.53486 176.16068 148.6875 171.3125 L 128 150.62695 z " /><path
       id="path1728"
       style="color:#000000;fill:#e1e1e1;stroke-width:1;stroke-linecap:round;stroke-linejoin:round;-inkscape-stroke:none;fill-opacity:1"
       d="m 94.792758,24.091797 a 8.0008509,8.0008 0 0 0 -2.371109,0.751953 l -64.000408,32 a 8.0008509,8.0008 0 0 0 -2.078138,12.8125 l 32.000204,32 a 8.0008509,8.0008 0 0 0 9.234433,1.5 L 128,72.945312 188.42227,103.15625 a 8.0008509,8.0008 0 0 0 9.23443,-1.5 l 32.0002,-32 a 8.0008509,8.0008 0 0 0 -2.07814,-12.8125 l -64.00041,-32 a 8.0008509,8.0008 0 0 0 -4.8594,-0.740234 8.0008509,8.0008 0 0 0 -4.37503,2.240234 L 128,52.6875 101.65608,26.34375 a 8.0008509,8.0008 0 0 0 -4.375025,-2.240234 8.0008509,8.0008 0 0 0 -2.488297,-0.01172 z M 94.419708,41.734375 114.49406,61.806641 65.579681,86.265625 45.505334,66.193359 Z m 67.160592,0 48.91437,24.458984 -20.07435,20.072266 -48.91437,-24.458984 z" /><path
       id="path1801"
       style="color:#000000;fill:#e1e1e1;stroke:none;stroke-width:1;stroke-linecap:round;stroke-linejoin:round;stroke-opacity:1;-inkscape-stroke:none;fill-opacity:1"
       d="m 65.206631,88.091797 a 8.0008509,8.0008 0 0 0 -2.488296,0.01172 8.0008509,8.0008 0 0 0 -4.375028,2.240234 L 26.343103,122.34375 a 8.0008509,8.0008 0 0 0 2.078138,12.8125 l 64.000408,32 a 8.0008509,8.0008 0 0 0 9.234431,-1.5 L 128,139.3125 l 26.34392,26.34375 a 8.0008509,8.0008 0 0 0 9.23443,1.5 l 64.00041,-32 a 8.0008509,8.0008 0 0 0 2.07814,-12.8125 L 197.6567,90.343751 a 8.0008509,8.0008 0 0 0 -4.37503,-2.240234 8.0008509,8.0008 0 0 0 -4.8594,0.740234 L 128,119.05469 67.57774,88.84375 a 8.0008509,8.0008 0 0 0 -2.371109,-0.751953 z m 0.37305,17.642583 48.914379,24.45898 -20.074352,20.07226 -48.914374,-24.45898 z m 124.840639,0 20.07435,20.07226 -48.91437,24.45898 -20.07435,-20.07226 z" /></g></svg>
