<?xml version="1.0" encoding="UTF-8" standalone="no"?>
<!-- Created with Inkscape (http://www.inkscape.org/) -->

<svg
   width="256px"
   height="256px"
   viewBox="0 0 256 256"
   version="1.1"
   id="SVGRoot"
   sodipodi:docname="necrominis-tags-property-icon.svg"
   xml:space="preserve"
   inkscape:version="1.2.2 (1:1.2.2+202212051550+b0a8486541)"
   inkscape:export-filename="necrominis-tags-property-icon-grey.png"
   inkscape:export-xdpi="192"
   inkscape:export-ydpi="192"
   xmlns:inkscape="http://www.inkscape.org/namespaces/inkscape"
   xmlns:sodipodi="http://sodipodi.sourceforge.net/DTD/sodipodi-0.dtd"
   xmlns="http://www.w3.org/2000/svg"
   xmlns:svg="http://www.w3.org/2000/svg"><sodipodi:namedview
     id="namedview1076"
     pagecolor="#ffffff"
     bordercolor="#999999"
     borderopacity="1"
     inkscape:showpageshadow="0"
     inkscape:pageopacity="0"
     inkscape:pagecheckerboard="0"
     inkscape:deskcolor="#d1d1d1"
     inkscape:document-units="px"
     showgrid="true"
     inkscape:zoom="1.4944853"
     inkscape:cx="7.0258302"
     inkscape:cy="132.15252"
     inkscape:window-width="1920"
     inkscape:window-height="1015"
     inkscape:window-x="0"
     inkscape:window-y="0"
     inkscape:window-maximized="1"
     inkscape:current-layer="layer1"><inkscape:grid
       type="xygrid"
       id="grid1979"
       spacingx="4"
       spacingy="4"
       empspacing="8" /></sodipodi:namedview><defs
     id="defs1071" /><g
     inkscape:label="Layer 1"
     inkscape:groupmode="layer"
     id="layer1"><path
       id="path1057"
       style="color:#000000;fill:#7d7d7d;stroke-width:32;stroke-linecap:round;stroke-linejoin:round;-inkscape-stroke:none;fill-opacity:1"
       d="m 136.00082,16 a 16.0016,16.0016 0 0 0 -11.31445,4.685547 l -96,96.000003 a 16.0016,16.0016 0 0 0 0,22.6289 l 1.591797,1.5918 c 0.910287,-1.22918 1.884736,-2.42372 2.99414,-3.5332 a 16.0016,16.0016 0 0 0 0,-0.002 L 129.2723,41.371094 a 16.0016,16.0016 0 0 0 0.002,0 C 135.27156,35.375073 143.42065,31.999564 151.90121,32 h 64 a 16.0016,16.0016 0 0 0 0.002,0 c 0.0329,3e-6 0.0647,0.0058 0.0977,0.0059 V 32 a 16.0016,16.0016 0 0 0 -16,-16 z" /><path
       id="path1195"
       style="color:#000000;fill:#7d7d7d;stroke-width:32;stroke-linecap:round;stroke-linejoin:round;-inkscape-stroke:none;fill-opacity:1"
       d="M 152 48 A 16.0016 16.0016 0 0 0 140.68555 52.685547 L 44.685547 148.68555 A 16.0016 16.0016 0 0 0 44.685547 171.31445 L 108.68555 235.31445 A 16.0016 16.0016 0 0 0 131.31445 235.31445 L 227.31445 139.31445 A 16.0016 16.0016 0 0 0 232 128 L 232 64 A 16.0016 16.0016 0 0 0 216 48 L 152 48 z M 184 76 A 24 24 0 0 1 208 100 A 24 24 0 0 1 184 124 A 24 24 0 0 1 160 100 A 24 24 0 0 1 184 76 z " /></g></svg>
