<?xml version="1.0" encoding="UTF-8" standalone="no"?>
<!-- Created with Inkscape (http://www.inkscape.org/) -->

<svg
   width="256px"
   height="256px"
   viewBox="0 0 256 256"
   version="1.1"
   id="SVGRoot"
   sodipodi:docname="necrominis-created-property-icon.svg"
   xml:space="preserve"
   inkscape:version="1.2.2 (1:1.2.2+202212051550+b0a8486541)"
   inkscape:export-filename="necrominis-created-property-icon.png"
   inkscape:export-xdpi="192"
   inkscape:export-ydpi="192"
   xmlns:inkscape="http://www.inkscape.org/namespaces/inkscape"
   xmlns:sodipodi="http://sodipodi.sourceforge.net/DTD/sodipodi-0.dtd"
   xmlns="http://www.w3.org/2000/svg"
   xmlns:svg="http://www.w3.org/2000/svg"><sodipodi:namedview
     id="namedview1076"
     pagecolor="#ffffff"
     bordercolor="#999999"
     borderopacity="1"
     inkscape:showpageshadow="0"
     inkscape:pageopacity="0"
     inkscape:pagecheckerboard="0"
     inkscape:deskcolor="#d1d1d1"
     inkscape:document-units="px"
     showgrid="true"
     inkscape:zoom="0.74724266"
     inkscape:cx="-67.581795"
     inkscape:cy="364.67404"
     inkscape:window-width="1920"
     inkscape:window-height="1015"
     inkscape:window-x="0"
     inkscape:window-y="0"
     inkscape:window-maximized="1"
     inkscape:current-layer="layer1"><inkscape:grid
       type="xygrid"
       id="grid1979"
       spacingx="4"
       spacingy="4"
       empspacing="8" /></sodipodi:namedview><defs
     id="defs1071" /><g
     inkscape:label="Layer 1"
     inkscape:groupmode="layer"
     id="layer1"><path
       id="path2773"
       style="color:#000000;fill:#e1e1e1;stroke-width:16;stroke-linecap:round;stroke-linejoin:round;-inkscape-stroke:none;fill-opacity:1"
       d="M 24 104 L 24 192 C 24 202.6666 29.086721 212.39924 36.34375 219.65625 C 43.600779 226.91326 53.33341 232 64 232 L 192 232 C 203.59993 232 213.94212 228.37038 221.15625 221.15625 C 228.37038 213.94212 232 203.59993 232 192 L 232 104 L 24 104 z M 72 124 L 88 124 C 91.999984 124 96 128 96 132 L 96 148 C 96 152 92.224831 156.17931 88 156 L 72 156 C 68.000016 156 64 152 64 148 L 64 132 C 64 128 68.000016 124 72 124 z M 120 124 L 136 124 C 140 124 144 128 144 132 L 144 148 C 144 152 140.22485 156.17931 136 156 L 120 156 C 116 156 112 152 112 148 L 112 132 C 112 128 116 124 120 124 z M 168 124 L 184 124 C 188 124 192 128 192 132 L 192 148 C 192 152 188.22485 156.17931 184 156 L 168 156 C 164 156 160 152 160 148 L 160 132 C 160 128 164 124 168 124 z M 72 172 L 88 172 C 91.999984 172 96 176 96 180 L 96 196 C 96 200 92.224834 204.17931 88 204 L 72 204 C 68.000016 204 64 200 64 196 L 64 180 C 64 176 68.000016 172 72 172 z M 120 172 L 136 172 C 140 172 144 176 144 180 L 144 196 C 144 200 140.22485 204.17931 136 204 L 120 204 C 116 204 112 200 112 196 L 112 180 C 112 176 116 172 120 172 z " /><path
       style="color:#000000;fill:#e1e1e1;stroke-width:16;stroke-linecap:round;stroke-linejoin:round;-inkscape-stroke:none;fill-opacity:1"
       d="M 64,40 C 53.333399,40 43.600786,45.086714 36.34375,52.34375 29.086714,59.600786 24,69.333399 24,80 v 8 H 232 V 80 C 232,60.00012 216.26654,40 192,40 v 16 c 0,8.836547 -7.16345,16 -16,16 -8.83655,0 -16,-7.163453 -16,-16 V 40 H 96 V 56 C 96,64.836547 88.836547,72 80,72 71.163453,72 64,64.836547 64,56 Z"
       id="path1676" /><g
       id="g1937"
       style="fill:#e1e1e1;fill-opacity:1"><path
         style="color:#000000;fill:#e1e1e1;stroke-linecap:round;stroke-linejoin:round;-inkscape-stroke:none;fill-opacity:1"
         d="m 80,24 c -4.418278,0 -8,3.581722 -8,8 v 24 c 0,4.418278 3.581722,8 8,8 4.418278,0 8,-3.581722 8,-8 V 32 c 0,-4.418278 -3.581722,-8 -8,-8 z"
         id="path1632"
         sodipodi:nodetypes="sssssss" /><path
         style="color:#000000;fill:#e1e1e1;stroke-linecap:round;stroke-linejoin:round;-inkscape-stroke:none;fill-opacity:1"
         d="m 176,24 c -4.41828,0 -8,3.581722 -8,8 v 24 c 0,4.418278 3.58172,8 8,8 4.41828,0 8,-3.581722 8,-8 V 32 c 0,-4.418278 -3.58172,-8 -8,-8 z"
         id="path1634"
         sodipodi:nodetypes="sssssss" /></g></g></svg>
