<?xml version="1.0" encoding="UTF-8" standalone="no"?>
<!-- Created with Inkscape (http://www.inkscape.org/) -->

<svg
   width="256px"
   height="256px"
   viewBox="0 0 256 256"
   version="1.1"
   id="SVGRoot"
   sodipodi:docname="necrominis-models-property-icon.svg"
   xml:space="preserve"
   inkscape:version="1.2.2 (1:1.2.2+202212051550+b0a8486541)"
   inkscape:export-filename="necrominis-models-property-icon-grey.png"
   inkscape:export-xdpi="192"
   inkscape:export-ydpi="192"
   xmlns:inkscape="http://www.inkscape.org/namespaces/inkscape"
   xmlns:sodipodi="http://sodipodi.sourceforge.net/DTD/sodipodi-0.dtd"
   xmlns="http://www.w3.org/2000/svg"
   xmlns:svg="http://www.w3.org/2000/svg"><sodipodi:namedview
     id="namedview1076"
     pagecolor="#ffffff"
     bordercolor="#999999"
     borderopacity="1"
     inkscape:showpageshadow="0"
     inkscape:pageopacity="0"
     inkscape:pagecheckerboard="0"
     inkscape:deskcolor="#d1d1d1"
     inkscape:document-units="px"
     showgrid="true"
     inkscape:zoom="1.4944853"
     inkscape:cx="32.452644"
     inkscape:cy="106.05658"
     inkscape:window-width="1920"
     inkscape:window-height="1015"
     inkscape:window-x="0"
     inkscape:window-y="0"
     inkscape:window-maximized="1"
     inkscape:current-layer="layer1"><inkscape:grid
       type="xygrid"
       id="grid1979"
       spacingx="4"
       spacingy="4"
       empspacing="8" /></sodipodi:namedview><defs
     id="defs1071" /><g
     inkscape:label="Layer 1"
     inkscape:groupmode="layer"
     id="layer1"><path
       id="path342"
       style="fill:#7d7d7d;fill-opacity:1;stroke:none;stroke-width:24;stroke-linecap:round;stroke-linejoin:round;stroke-dasharray:none;stroke-opacity:1"
       d="m 80,116 v 24 c 0,11.99999 4.000012,16 16,16 h 4 v 36 h 56 v -36 h 4 c 11.99999,0 16,-4.00001 16,-16 V 116 C 176,92 152,68 128,68 104,68 80,92 80,116 Z"
       sodipodi:nodetypes="ccccccccsccc" /><path
       style="fill:#7d7d7d;stroke:none;stroke-width:1px;stroke-linecap:butt;stroke-linejoin:miter;stroke-opacity:1;fill-opacity:1"
       d="m 72,232 c 0,8 4,8 8,8 h 96 c 4,0 8,0 8,-8 0,-12 -12,-24 -24,-24 H 96 c -12,0 -24,12 -24,24 z"
       id="path1105"
       sodipodi:nodetypes="ccccccc" /><circle
       style="fill:#7d7d7d;stroke:none;stroke-width:16;stroke-linecap:round;stroke-linejoin:round;fill-opacity:1"
       id="path438"
       cx="128"
       cy="48"
       r="32" /></g></svg>
