<?xml version="1.0" encoding="UTF-8" standalone="no"?>
<!-- Created with Inkscape (http://www.inkscape.org/) -->

<svg
   width="256px"
   height="256px"
   viewBox="0 0 256 256"
   version="1.1"
   id="SVGRoot"
   sodipodi:docname="necrominis-models-property-icon.svg"
   xml:space="preserve"
   inkscape:version="1.2.2 (1:1.2.2+202212051550+b0a8486541)"
   inkscape:export-filename="necrominis-models-property-icon.png"
   inkscape:export-xdpi="192"
   inkscape:export-ydpi="192"
   xmlns:inkscape="http://www.inkscape.org/namespaces/inkscape"
   xmlns:sodipodi="http://sodipodi.sourceforge.net/DTD/sodipodi-0.dtd"
   xmlns="http://www.w3.org/2000/svg"
   xmlns:svg="http://www.w3.org/2000/svg"><sodipodi:namedview
     id="namedview1076"
     pagecolor="#ffffff"
     bordercolor="#999999"
     borderopacity="1"
     inkscape:showpageshadow="0"
     inkscape:pageopacity="0"
     inkscape:pagecheckerboard="0"
     inkscape:deskcolor="#d1d1d1"
     inkscape:document-units="px"
     showgrid="true"
     inkscape:zoom="2.1135214"
     inkscape:cx="78.778479"
     inkscape:cy="161.10554"
     inkscape:window-width="1920"
     inkscape:window-height="1015"
     inkscape:window-x="0"
     inkscape:window-y="0"
     inkscape:window-maximized="1"
     inkscape:current-layer="layer1"><inkscape:grid
       type="xygrid"
       id="grid1979"
       spacingx="4"
       spacingy="4"
       empspacing="8" /></sodipodi:namedview><defs
     id="defs1071" /><g
     inkscape:label="Layer 1"
     inkscape:groupmode="layer"
     id="layer1"><path
       id="path342"
       style="fill:#e1e1e1;stroke:none;stroke-width:24;stroke-linecap:round;stroke-linejoin:round;stroke-dasharray:none;stroke-opacity:1;fill-opacity:1"
       d="M 128 16 A 31.99999 32 0 0 0 96 48 A 31.99999 32 0 0 0 104.82422 69.962891 C 90.025913 78.139295 80.000036 93.896749 80 112 C 79.999992 116 80 144 80 144 C 80 155.99999 84.000012 160 96 160 L 96 192 L 160 192 L 160 160 C 171.99999 160 176 155.99999 176 144 L 176 112 C 176 93.896747 165.9741 78.139294 151.17578 69.962891 A 31.99999 32 0 0 0 160 48 A 31.99999 32 0 0 0 128 16 z " /><path
       style="fill:#e1e1e1;stroke:none;stroke-width:1px;stroke-linecap:butt;stroke-linejoin:miter;stroke-opacity:1;fill-opacity:1"
       d="m 72,232 c 0,8 4,8 8,8 h 96 c 4,0 8,0 8,-8 0,-12 -12,-24 -24,-24 H 96 c -12,0 -24,12 -24,24 z"
       id="path1105"
       sodipodi:nodetypes="ccccccc" /></g></svg>
