<?xml version="1.0" encoding="UTF-8" standalone="no"?>
<!-- Created with Inkscape (http://www.inkscape.org/) -->

<svg
   width="256px"
   height="256px"
   viewBox="0 0 256 256"
   version="1.1"
   id="SVGRoot"
   sodipodi:docname="logo-8.svg"
   xml:space="preserve"
   inkscape:version="1.2.2 (1:1.2.2+202212051550+b0a8486541)"
   inkscape:export-filename="logo-8.png"
   inkscape:export-xdpi="192"
   inkscape:export-ydpi="192"
   xmlns:inkscape="http://www.inkscape.org/namespaces/inkscape"
   xmlns:sodipodi="http://sodipodi.sourceforge.net/DTD/sodipodi-0.dtd"
   xmlns="http://www.w3.org/2000/svg"
   xmlns:svg="http://www.w3.org/2000/svg"><sodipodi:namedview
     id="namedview1076"
     pagecolor="#ffffff"
     bordercolor="#999999"
     borderopacity="1"
     inkscape:showpageshadow="0"
     inkscape:pageopacity="0"
     inkscape:pagecheckerboard="0"
     inkscape:deskcolor="#d1d1d1"
     inkscape:document-units="px"
     showgrid="true"
     inkscape:zoom="2"
     inkscape:cx="97.75"
     inkscape:cy="95.25"
     inkscape:window-width="1920"
     inkscape:window-height="1015"
     inkscape:window-x="0"
     inkscape:window-y="0"
     inkscape:window-maximized="1"
     inkscape:current-layer="layer1"
     showguides="false"><inkscape:grid
       type="xygrid"
       id="grid1979"
       spacingx="4"
       spacingy="4"
       empspacing="8" /></sodipodi:namedview><defs
     id="defs1071" /><g
     inkscape:label="Layer 1"
     inkscape:groupmode="layer"
     id="layer1"><path
       style="fill:#e1e1e1;fill-opacity:1;stroke:none;stroke-width:0;stroke-linecap:butt;stroke-linejoin:miter;stroke-dasharray:none;stroke-opacity:1"
       d="M 288,-288 V -32 H 544 V -288 Z"
       id="path8108-9-4-4-2-2-9-2-8-3-6" /><path
       id="path414-1-6-7-2"
       style="color:#000000;fill:#4b96ff;stroke-linecap:round;stroke-linejoin:round;-inkscape-stroke:none"
       d="M 348 -280 C 334.00004 -280 321.40122 -273.36997 312.01562 -263.98438 C 302.63003 -254.59878 296 -241.99997 296 -228 L 296 -111.91406 C 299.35724 -114.46207 303.51178 -116 308 -116 C 312.48822 -116 316.64276 -114.46207 320 -111.91406 L 320 -228 C 320 -233.99997 323.37001 -241.40127 328.98438 -247.01562 C 334.59874 -252.63 342.00002 -256 348 -256 L 376.73633 -256 C 376.58222 -256.41158 376.42129 -256.82275 376.32227 -257.24219 C 375.19228 -262.02856 377.53085 -268.1802 382.63281 -270.73242 A 8.0008 8.0008 0 0 0 382.63281 -270.73438 L 401.16406 -280 L 348 -280 z M 512 -208.08594 L 512 -92 C 512 -86.000018 508.63 -78.598739 503.01562 -72.984375 C 497.40127 -67.370011 489.99997 -64 484 -64 L 455.21094 -64 C 456.08135 -61.565679 456.2562 -58.819788 455.38477 -56.205078 C 453.20001 -49.650825 449.86742 -44.331979 445.98828 -40 L 484 -40 C 497.99997 -40 510.59878 -46.630034 519.98438 -56.015625 C 529.36997 -65.401216 536 -78.000042 536 -92 L 536 -208.08594 C 532.64276 -205.53793 528.48822 -204 524 -204 C 519.51178 -204 515.35724 -205.53793 512 -208.08594 z " /><path
       id="path1715-6"
       style="color:#000000;fill:#965adc;stroke-width:8;stroke-linecap:round;stroke-linejoin:round;-inkscape-stroke:none"
       d="m 435.39648,-287.95508 a 4.0004,4.0004 0 0 0 -1.18554,0.37696 l -48,24 A 4.0004,4.0004 0 0 0 388,-256 h 56 40 c 5.99998,0 13.40126,3.37 19.01562,8.98438 C 508.63,-241.40126 512,-233.99998 512,-228 v 4 a 12,12 0 0 0 12,12 12,12 0 0 0 12,-12 v -4 c 0,-13.99998 -6.63002,-26.59878 -16.01562,-35.98438 C 510.59878,-273.36998 497.99998,-280 484,-280 h -38.34375 l -6.82813,-6.82812 a 4.0004,4.0004 0 0 0 -3.43164,-1.12696 z M 308,-108 a 12,12 0 0 0 -12,12 v 4 c 0,13.999972 6.63002,26.598775 16.01562,35.984375 C 321.40122,-46.630025 334.00003,-40 348,-40 h 40.54883 c 0.51989,0.639161 1.06984,1.253033 1.65039,1.832031 C 393.83326,-34.543631 398.68802,-32 404,-32 c 4,0 12.58342,0.05392 21.4043,-3.253906 8.82087,-3.307828 18.01116,-10.342075 22.39062,-23.480469 a 4.0004,4.0004 0 0 0 -6.01367,-4.59375 C 436.16529,-59.584148 432.39655,-58.5 429.875,-58.5 c -2.52155,0 -4.23248,-0.907465 -6.37695,-2.623047 -2.14448,-1.715582 -4.42251,-4.252533 -7.44922,-6.558594 C 413.02212,-69.9877 408.99999,-72 404,-72 c -5.33332,0 -10.1996,2.543343 -13.82812,6.171875 -0.5779,0.577892 -1.12368,1.190557 -1.64063,1.828125 H 348 c -5.99999,0 -13.40126,-3.370005 -19.01563,-8.984375 C 323.37,-78.598745 320,-86.000012 320,-92 v -4 a 12,12 0 0 0 -12,-12 z" /><path
       style="fill:#e1e1e1;fill-opacity:1;stroke:none;stroke-width:0;stroke-linecap:butt;stroke-linejoin:miter;stroke-dasharray:none;stroke-opacity:1"
       d="M 0,-288 V -32 H 256 V -288 Z"
       id="path8108-9-4-4-2-2-9-2-8-3" /><path
       id="path1587"
       style="color:#000000;fill:#4b96ff;stroke-width:8;stroke-linecap:round;stroke-linejoin:round;-inkscape-stroke:none"
       d="M 128 -240 C 107.60004 -240 89.564472 -237.00977 76.439453 -226.07227 C 63.314434 -215.13475 56 -196.66661 56 -168 A 4.0004 4.0004 0 0 0 60.658203 -164.05469 C 60.658203 -164.05469 67.885328 -165.22908 73.828125 -171.17188 C 77.277372 -174.62113 80.129118 -179.80231 81.136719 -186.80664 C 82.384709 -183.45093 83 -180.51954 83 -178.0625 C 83 -172.57128 80.661051 -168.49557 76.939453 -164.07617 C 73.217856 -159.65678 68.152209 -155.23359 63.832031 -149.63086 C 59.511855 -144.02812 56 -136.99998 56 -128 C 56 -125.33334 56.74195 -122.76884 58.404297 -120.90234 C 60.066643 -119.03586 62.34226 -118.14477 64.492188 -117.80078 C 68.792044 -117.1128 73.260008 -118.07188 77.867188 -119.0957 C 82.474368 -120.11952 87.156917 -121.33099 90.855469 -121.7793 C 94.55402 -122.22761 96.70394 -121.6398 97.171875 -121.17188 C 98.464766 -119.87898 98.336751 -119.57829 98.203125 -118.91016 C 98.069499 -118.24203 97.357603 -117.01384 96.171875 -115.82812 C 93.800419 -113.45667 90.210938 -111.57813 90.210938 -111.57812 A 4.0004 4.0004 0 0 0 88.570312 -105.94141 L 100.57031 -85.941406 A 4.0004 4.0004 0 0 0 106.82812 -85.171875 C 106.82812 -85.171875 107.56011 -85.899446 108.71875 -86.671875 C 109.87739 -87.444304 111.33333 -88 112 -88 C 112.66667 -88 114.12261 -87.444304 115.28125 -86.671875 C 116.43989 -85.899446 117.17187 -85.171875 117.17188 -85.171875 A 4.0004 4.0004 0 0 0 122.82812 -85.171875 C 122.82812 -85.171875 123.56011 -85.899446 124.71875 -86.671875 C 125.87739 -87.444304 127.33333 -88 128 -88 C 128.66667 -88 130.12261 -87.444304 131.28125 -86.671875 C 132.43989 -85.899446 133.17188 -85.171875 133.17188 -85.171875 A 4.0004 4.0004 0 0 0 138.82812 -85.171875 C 138.82812 -85.171875 139.56011 -85.899446 140.71875 -86.671875 C 141.87739 -87.444304 143.33333 -88 144 -88 C 144.66667 -88 146.12261 -87.444304 147.28125 -86.671875 C 148.43989 -85.899446 149.17188 -85.171875 149.17188 -85.171875 A 4.0004 4.0004 0 0 0 155.42969 -85.941406 L 167.42969 -105.94141 A 4.0004 4.0004 0 0 0 165.78906 -111.57812 C 165.78906 -111.57812 162.19958 -113.45667 159.82812 -115.82812 C 158.64241 -117.01384 157.9305 -118.24203 157.79688 -118.91016 C 157.66326 -119.57829 157.53524 -119.87898 158.82812 -121.17188 C 159.29606 -121.6398 161.44598 -122.22761 165.14453 -121.7793 C 168.84309 -121.33099 173.52564 -120.11952 178.13281 -119.0957 C 182.74 -118.07188 187.20796 -117.1128 191.50781 -117.80078 C 193.65774 -118.14477 195.93335 -119.03586 197.5957 -120.90234 C 199.25805 -122.76884 200 -125.33334 200 -128 C 200 -136.14284 196.40745 -142.64253 192.12305 -147.99805 C 187.83864 -153.35355 182.83862 -157.85357 179.12305 -162.49805 C 175.40746 -167.14251 173 -171.64287 173 -177.5 C 173 -180.1335 173.61925 -183.20808 174.88281 -186.68164 C 175.90715 -179.74225 178.74348 -174.60028 182.17188 -171.17188 C 188.11468 -165.22908 195.3418 -164.05469 195.3418 -164.05469 A 4.0004 4.0004 0 0 0 200 -168 C 200 -196.66661 192.68556 -215.13475 179.56055 -226.07227 C 166.43552 -237.00977 148.39996 -240 128 -240 z " /><path
       id="path1572"
       style="color:#000000;fill:#e1e1e1;stroke-width:8;stroke-linecap:round;stroke-linejoin:round;-inkscape-stroke:none"
       d="M 87.90625 -240.99609 A 1.0001 1.0001 0 0 0 87.445312 -240.83203 L 75.445312 -232.83203 A 1.0001 1.0001 0 0 0 75.292969 -231.29297 L 90.712891 -215.87305 L 83.167969 -204.55469 A 1.0001 1.0001 0 0 0 83.757812 -203.0293 L 115.75781 -195.0293 A 1.0001 1.0001 0 0 0 116.51367 -196.85742 L 97.414062 -208.31836 L 104.83203 -219.44531 A 1.0001 1.0001 0 0 0 104.78125 -220.625 L 88.78125 -240.625 A 1.0001 1.0001 0 0 0 87.90625 -240.99609 z M 88 -156 C 80.222238 -156 75 -149.99998 75 -144 C 75 -138.00002 80.222238 -132 88 -132 C 93.555544 -132 96.987363 -131.12075 99.734375 -130.20508 C 102.48139 -129.28941 104.66667 -128 108 -128 C 111 -128 112.73643 -129.78645 114.00977 -131.31445 C 115.28309 -132.84245 116.24862 -134.55193 117.07812 -136.21094 C 118.73712 -139.52894 119.79492 -142.73438 119.79492 -142.73438 A 4.0004 4.0004 0 0 0 115.0293 -147.88086 C 107.94238 -146.10913 105.97233 -147.50721 102.82422 -149.75586 C 99.676109 -152.00451 95.333319 -156 88 -156 z M 168 -156 C 160.66668 -156 156.32389 -152.00451 153.17578 -149.75586 C 150.02767 -147.50721 148.05762 -146.10913 140.9707 -147.88086 A 4.0004 4.0004 0 0 0 136.20508 -142.73438 C 136.20508 -142.73438 137.26288 -139.52894 138.92188 -136.21094 C 139.75138 -134.55193 140.71691 -132.84245 141.99023 -131.31445 C 143.26357 -129.78645 145 -128 148 -128 C 151.33333 -128 153.51862 -129.28941 156.26562 -130.20508 C 159.01264 -131.12075 162.44446 -132 168 -132 C 175.77776 -132 181 -138.00002 181 -144 C 181 -149.99998 175.77776 -156 168 -156 z M 128 -128 A 4.0004 4.0004 0 0 0 124.28516 -125.48633 L 116.28516 -105.48633 A 4.0004 4.0004 0 0 0 122.82812 -101.17188 C 122.82812 -101.17188 123.56011 -101.89945 124.71875 -102.67188 C 125.87739 -103.44429 127.33333 -104 128 -104 C 128.66667 -104 130.12261 -103.44429 131.28125 -102.67188 C 132.43989 -101.89945 133.17188 -101.17187 133.17188 -101.17188 A 4.0004 4.0004 0 0 0 139.71484 -105.48633 L 131.71484 -125.48633 A 4.0004 4.0004 0 0 0 128 -128 z " /><path
       id="path1587-1"
       style="color:#000000;fill:#4b96ff;stroke-width:8;stroke-linecap:round;stroke-linejoin:round;-inkscape-stroke:none"
       d="M 416 -240 C 403.22137 -240 391.37153 -238.82479 381.07422 -235.25977 L 392.78125 -220.625 A 1.0001 1.0001 0 0 1 392.83203 -219.44531 L 385.41406 -208.31836 L 404.51367 -196.85742 A 1.0001 1.0001 0 0 1 403.75781 -195.0293 L 371.75781 -203.0293 A 1.0001 1.0001 0 0 1 371.16797 -204.55469 L 378.71289 -215.87305 L 366.73047 -227.85547 C 365.95259 -227.28384 365.18603 -226.69441 364.43945 -226.07227 C 351.31445 -215.13476 344 -196.66658 344 -168 A 4.0004 4.0004 0 0 0 348.6582 -164.05469 C 348.6582 -164.05469 355.88534 -165.22908 361.82812 -171.17188 C 365.27737 -174.62112 368.12912 -179.80232 369.13672 -186.80664 C 370.38471 -183.45093 371 -180.51954 371 -178.0625 C 371 -172.57129 368.66105 -168.49557 364.93945 -164.07617 C 361.21787 -159.65679 356.15221 -155.23358 351.83203 -149.63086 C 347.51186 -144.02812 344 -136.99997 344 -128 C 344 -125.33334 344.74195 -122.76884 346.4043 -120.90234 C 348.06664 -119.03587 350.34226 -118.14477 352.49219 -117.80078 C 356.79203 -117.1128 361.26001 -118.07188 365.86719 -119.0957 C 370.47436 -120.11952 375.15692 -121.33099 378.85547 -121.7793 C 382.55402 -122.22761 384.70395 -121.63979 385.17188 -121.17188 C 386.46477 -119.87898 386.33675 -119.57829 386.20312 -118.91016 C 386.06951 -118.24203 385.3576 -117.01384 384.17188 -115.82812 C 381.80043 -113.45668 378.21094 -111.57813 378.21094 -111.57812 A 4.0004 4.0004 0 0 0 376.57031 -105.94141 L 388.57031 -85.941406 A 4.0004 4.0004 0 0 0 394.82812 -85.171875 C 394.82812 -85.171875 395.56011 -85.899456 396.71875 -86.671875 C 397.87739 -87.444304 399.33333 -88 400 -88 C 400.66667 -88 402.12261 -87.444304 403.28125 -86.671875 C 404.43989 -85.899456 405.17187 -85.171875 405.17188 -85.171875 A 4.0004 4.0004 0 0 0 410.82812 -85.171875 C 410.82812 -85.171875 411.56011 -85.899456 412.71875 -86.671875 C 413.87739 -87.444304 415.33333 -88 416 -88 C 416.66667 -88 418.12261 -87.444304 419.28125 -86.671875 C 420.43989 -85.899456 421.17187 -85.171875 421.17188 -85.171875 A 4.0004 4.0004 0 0 0 426.82812 -85.171875 C 426.82812 -85.171875 427.56011 -85.899456 428.71875 -86.671875 C 429.87739 -87.444304 431.33333 -88 432 -88 C 432.66667 -88 434.12261 -87.444304 435.28125 -86.671875 C 436.43989 -85.899456 437.17187 -85.171875 437.17188 -85.171875 A 4.0004 4.0004 0 0 0 443.42969 -85.941406 L 455.42969 -105.94141 A 4.0004 4.0004 0 0 0 453.78906 -111.57812 C 453.78906 -111.57812 450.19958 -113.45668 447.82812 -115.82812 C 446.64242 -117.01384 445.93049 -118.24203 445.79688 -118.91016 C 445.66326 -119.57829 445.53525 -119.87898 446.82812 -121.17188 C 447.29606 -121.63979 449.44598 -122.22761 453.14453 -121.7793 C 456.84309 -121.33099 461.52565 -120.11952 466.13281 -119.0957 C 470.74 -118.07188 475.20797 -117.1128 479.50781 -117.80078 C 481.65774 -118.14477 483.93335 -119.03587 485.5957 -120.90234 C 487.25805 -122.76884 488 -125.33334 488 -128 C 488 -136.14283 484.40744 -142.64253 480.12305 -147.99805 C 475.83864 -153.35354 470.83861 -157.85357 467.12305 -162.49805 C 463.40746 -167.1425 461 -171.64288 461 -177.5 C 461 -180.1335 461.61925 -183.20808 462.88281 -186.68164 C 463.90715 -179.74226 466.74348 -174.60027 470.17188 -171.17188 C 476.11467 -165.22908 483.3418 -164.05469 483.3418 -164.05469 A 4.0004 4.0004 0 0 0 488 -168 C 488 -196.66658 480.68554 -215.13476 467.56055 -226.07227 C 454.43553 -237.00975 436.39994 -240 416 -240 z M 376 -156 C 383.33331 -156 387.67611 -152.00451 390.82422 -149.75586 C 393.97233 -147.50721 395.94238 -146.10913 403.0293 -147.88086 A 4.0004 4.0004 0 0 1 407.79492 -142.73438 C 407.79492 -142.73438 406.73712 -139.52893 405.07812 -136.21094 C 404.24863 -134.55193 403.28308 -132.84245 402.00977 -131.31445 C 400.73643 -129.78645 399 -128 396 -128 C 392.66667 -128 390.48139 -129.28941 387.73438 -130.20508 C 384.98737 -131.12075 381.55553 -132 376 -132 C 368.22225 -132 363 -138.00003 363 -144 C 363 -149.99997 368.22225 -156 376 -156 z M 456 -156 C 463.77775 -156 469 -149.99997 469 -144 C 469 -138.00003 463.77775 -132 456 -132 C 450.44447 -132 447.01264 -131.12075 444.26562 -130.20508 C 441.51863 -129.28941 439.33333 -128 436 -128 C 433 -128 431.26357 -129.78645 429.99023 -131.31445 C 428.71692 -132.84245 427.75137 -134.55193 426.92188 -136.21094 C 425.26288 -139.52893 424.20508 -142.73438 424.20508 -142.73438 A 4.0004 4.0004 0 0 1 428.9707 -147.88086 C 436.05762 -146.10913 438.02767 -147.50721 441.17578 -149.75586 C 444.32389 -152.00451 448.66669 -156 456 -156 z M 416 -128 A 4.0004 4.0004 0 0 1 419.71484 -125.48633 L 427.71484 -105.48633 A 4.0004 4.0004 0 0 1 421.17188 -101.17188 C 421.17187 -101.17187 420.43989 -101.89945 419.28125 -102.67188 C 418.12261 -103.44428 416.66667 -104 416 -104 C 415.33333 -104 413.87739 -103.44428 412.71875 -102.67188 C 411.56011 -101.89945 410.82812 -101.17188 410.82812 -101.17188 A 4.0004 4.0004 0 0 1 404.28516 -105.48633 L 412.28516 -125.48633 A 4.0004 4.0004 0 0 1 416 -128 z " /><path
       style="fill:#e1e1e1;fill-opacity:1;stroke:none;stroke-width:0;stroke-linecap:butt;stroke-linejoin:miter;stroke-dasharray:none;stroke-opacity:1"
       d="M -288,-288 V -32 H -32 V -288 Z"
       id="path8108-9-4-4-2-2-9-2-8" /><path
       style="fill:none;fill-opacity:1;stroke:#4b96ff;stroke-width:24;stroke-linecap:round;stroke-linejoin:round;stroke-dasharray:none;stroke-opacity:1"
       d="m -144,-268 h -84 c -20,0 -40,20 -40,40 v 132"
       id="path414-1-6"
       sodipodi:nodetypes="cccc" /><path
       style="fill:none;fill-opacity:1;stroke:#4b96ff;stroke-width:24;stroke-linecap:round;stroke-linejoin:round;stroke-dasharray:none;stroke-opacity:1"
       d="m -176,-52 h 84 c 20,0 40,-20 40,-40 v -132"
       id="path414-1-6-3"
       sodipodi:nodetypes="cccc" /><path
       style="fill:#965adc;fill-opacity:1;stroke:#965adc;stroke-width:8;stroke-linecap:round;stroke-linejoin:round;stroke-dasharray:none;stroke-opacity:1"
       d="m -132,-260 v -16 l -8,-8 -48,24 z"
       id="path4413-0"
       sodipodi:nodetypes="ccccc" /><path
       style="fill:#965adc;fill-opacity:1;stroke:#965adc;stroke-width:8;stroke-linecap:round;stroke-linejoin:round;stroke-dasharray:none;stroke-opacity:1"
       d="m -172,-68 c -8,0 -16,8 -16,16 0,8 8.06426,16 16,16 8,0 32,0 40,-24 -24,16 -24,-8 -40,-8 z"
       id="path4411-6"
       sodipodi:nodetypes="csccc" /><path
       style="fill:none;fill-opacity:1;stroke:#965adc;stroke-width:24;stroke-linecap:round;stroke-linejoin:round;stroke-dasharray:none;stroke-opacity:1"
       d="m -268,-96 v 4 c 0,20 20,40 40,40 h 52"
       id="path414-1"
       sodipodi:nodetypes="cccc" /><path
       style="fill:none;fill-opacity:1;stroke:#965adc;stroke-width:24;stroke-linecap:round;stroke-linejoin:round;stroke-dasharray:none;stroke-opacity:1"
       d="m -52,-224 v -4 c 0,-20 -20,-40 -40,-40 h -52"
       id="path414-1-75"
       sodipodi:nodetypes="cccc" /><path
       style="opacity:1;fill:#4b96ff;fill-opacity:1;stroke:#4b96ff;stroke-width:8;stroke-linecap:round;stroke-linejoin:round;stroke-dasharray:none;stroke-opacity:1"
       d="m -228,-168 c 0,-56 28,-68 68,-68 40,0 68,12 68,68 0,0 -24,-4 -16,-36 -32,44 16,48 16,76 0,16 -32,-4 -40,4 -8,8 8,16 8,16 l -12,20 c 0,0 -4,-4 -8,-4 -4,0 -8,4 -8,4 0,0 -4,-4 -8,-4 -4,0 -8,4 -8,4 0,0 -4,-4 -8,-4 -4,0 -8,4 -8,4 l -12,-20 c 0,0 16,-8 8,-16 -8,-8 -40,12 -40,-4 0,-32 48,-32 16,-76 8,32 -16,36 -16,36 z"
       id="path382"
       sodipodi:nodetypes="ccccccccccccccccccc" /><path
       style="opacity:1;fill:#e1e1e1;fill-opacity:1;stroke:#e1e1e1;stroke-width:8;stroke-linecap:round;stroke-linejoin:round;stroke-dasharray:none;stroke-opacity:1"
       d="m -160,-124 -8,20 c 0,0 4,-4 8,-4 4,0 8,4 8,4 z"
       id="path384"
       sodipodi:nodetypes="ccccc" /><path
       style="opacity:1;fill:#e1e1e1;fill-opacity:1;stroke:#e1e1e1;stroke-width:8;stroke-linecap:round;stroke-linejoin:round;stroke-dasharray:none;stroke-opacity:1"
       d="m -172,-144 c -16,4 -16,-8 -28,-8 -12,0 -12,16 0,16 12,0 16,4 20,4 4,0 8,-12 8,-12 z"
       id="path386"
       sodipodi:nodetypes="ccccc" /><path
       style="fill:#e1e1e1;fill-opacity:1;stroke:#e1e1e1;stroke-width:8;stroke-linecap:round;stroke-linejoin:round;stroke-dasharray:none;stroke-opacity:1"
       d="m -148,-144 c 16,4 16,-8 28,-8 12,0 12,16 0,16 -12,0 -16,4 -20,4 -4,0 -8,-12 -8,-12 z"
       id="path386-3"
       sodipodi:nodetypes="ccccc" /><path
       id="path390"
       style="color:#000000;opacity:1;fill:#e1e1e1;fill-opacity:1;stroke:#e1e1e1;stroke-width:2;stroke-linecap:square;stroke-linejoin:round;stroke-dasharray:none;stroke-opacity:1"
       d="m -212,-232 16,16 -8,12 32,8 -20,-12 8,-12 -16,-20 z"
       sodipodi:nodetypes="cccccccc" /><path
       id="path414-1-6-7"
       style="color:#000000;fill:#4b96ff;stroke-linecap:round;stroke-linejoin:round;-inkscape-stroke:none"
       d="M 60 -280 C 46.000028 -280 33.401225 -273.36998 24.015625 -263.98438 C 14.630025 -254.59878 8 -241.99998 8 -228 L 8 -96 A 12 12 0 0 0 20 -84 A 12 12 0 0 0 32 -96 L 32 -228 C 32 -233.99998 35.370005 -241.40126 40.984375 -247.01562 C 46.598745 -252.63 54.000012 -256 60 -256 L 144 -256 A 12 12 0 0 0 156 -268 A 12 12 0 0 0 144 -280 L 60 -280 z M 236 -236 A 12 12 0 0 0 224 -224 L 224 -92 C 224 -86.000012 220.63 -78.598745 215.01562 -72.984375 C 209.40126 -67.370005 201.99998 -64 196 -64 L 112 -64 A 12 12 0 0 0 100 -52 A 12 12 0 0 0 112 -40 L 196 -40 C 209.99998 -40 222.59878 -46.630025 231.98438 -56.015625 C 241.36998 -65.401225 248 -78.000028 248 -92 L 248 -224 A 12 12 0 0 0 236 -236 z " /><path
       id="path1715"
       style="color:#000000;fill:#965adc;stroke-width:8;stroke-linecap:round;stroke-linejoin:round;-inkscape-stroke:none"
       d="M 147.39648 -287.95508 A 4.0004 4.0004 0 0 0 146.21094 -287.57812 L 98.210938 -263.57812 A 4.0004 4.0004 0 0 0 100 -256 L 156 -256 L 196 -256 C 201.99998 -256 209.40126 -252.63 215.01562 -247.01562 C 220.63 -241.40126 224 -233.99998 224 -228 L 224 -224 A 12 12 0 0 0 236 -212 A 12 12 0 0 0 248 -224 L 248 -228 C 248 -241.99998 241.36998 -254.59878 231.98438 -263.98438 C 222.59878 -273.36998 209.99998 -280 196 -280 L 157.65625 -280 L 150.82812 -286.82812 A 4.0004 4.0004 0 0 0 147.39648 -287.95508 z M 20 -108 A 12 12 0 0 0 8 -96 L 8 -92 C 8 -78.000028 14.630025 -65.401225 24.015625 -56.015625 C 33.401225 -46.630025 46.000028 -40 60 -40 L 100.54883 -40 C 101.06872 -39.360839 101.61867 -38.746967 102.19922 -38.167969 C 105.83326 -34.543631 110.68802 -32 116 -32 C 120 -32 128.58342 -31.946084 137.4043 -35.253906 C 146.22517 -38.561734 155.41546 -45.595981 159.79492 -58.734375 A 4.0004 4.0004 0 0 0 153.78125 -63.328125 C 148.16529 -59.584148 144.39655 -58.5 141.875 -58.5 C 139.35345 -58.5 137.64252 -59.407465 135.49805 -61.123047 C 133.35357 -62.838629 131.07554 -65.37558 128.04883 -67.681641 C 125.02212 -69.9877 120.99999 -72 116 -72 C 110.66668 -72 105.8004 -69.456657 102.17188 -65.828125 C 101.59398 -65.250233 101.0482 -64.637568 100.53125 -64 L 60 -64 C 54.000012 -64 46.598745 -67.370005 40.984375 -72.984375 C 35.370005 -78.598745 32 -86.000012 32 -92 L 32 -96 A 12 12 0 0 0 20 -108 z " /><path
       id="path1831"
       style="color:#000000;fill:#4b96ff;stroke-linecap:round;stroke-linejoin:round;-inkscape-stroke:none"
       d="M 60,8 C 46.00004,8 33.40122,14.63003 24.01562,24.01562 14.63003,33.40122 8,46.00003 8,60 V 176.08594 C 11.35724,173.53793 15.51178,172 20,172 c 4.48822,0 8.64276,1.53793 12,4.08594 V 60 C 32,54.00003 35.37001,46.59873 40.98438,40.98438 46.59874,35.37 54.00002,32 60,32 H 88.73633 C 88.58222,31.58842 88.42129,31.17725 88.32227,30.75781 87.19228,25.97144 89.53085,19.8198 94.63281,17.26758 a 8.0008,8.0008 0 0 0 0,-0.002 L 113.16406,8 Z M 224,79.91406 V 196 c 0,5.99998 -3.37,13.40126 -8.98438,19.01562 C 209.40127,220.62999 201.99997,224 196,224 h -28.78906 c 0.87041,2.43432 1.04526,5.18021 0.17383,7.79492 -2.18476,6.55425 -5.51735,11.8731 -9.39649,16.20508 H 196 c 13.99997,0 26.59878,-6.63003 35.98438,-16.01563 C 241.36997,222.59878 248,209.99996 248,196 V 79.91406 C 244.64276,82.46207 240.48822,84 236,84 c -4.48822,0 -8.64276,-1.53793 -12,-4.08594 z" /><path
       id="path1833"
       style="color:#000000;fill:#965adc;stroke-width:8;stroke-linecap:round;stroke-linejoin:round;-inkscape-stroke:none"
       d="m 147.39648,0.04492 a 4.0004,4.0004 0 0 0 -1.18554,0.37696 l -48,24 A 4.0004,4.0004 0 0 0 100,32 h 56 40 c 5.99998,0 13.40126,3.37 19.01562,8.98438 C 220.63,46.59874 224,54.00002 224,60 v 4 a 12,12 0 0 0 12,12 12,12 0 0 0 12,-12 V 60 C 248,46.00002 241.36998,33.40122 231.98438,24.01562 222.59878,14.63002 209.99998,8 196,8 H 157.65625 L 150.82812,1.17188 A 4.0004,4.0004 0 0 0 147.39648,0.04492 Z M 20,180 A 12,12 0 0 0 8,192 v 4 c 0,13.99997 6.63002,26.59877 16.01562,35.98437 C 33.40122,241.36997 46.00003,248 60,248 h 40.54883 c 0.51989,0.63916 1.06984,1.25303 1.65039,1.83203 C 105.83326,253.45637 110.68802,256 116,256 c 4,0 12.58342,0.0539 21.4043,-3.25391 8.82087,-3.30782 18.01116,-10.34207 22.39062,-23.48047 a 4.0004,4.0004 0 0 0 -6.01367,-4.59375 c -5.61596,3.74398 -9.3847,4.82813 -11.90625,4.82813 -2.52155,0 -4.23248,-0.90747 -6.37695,-2.62305 -2.14448,-1.71558 -4.42251,-4.25253 -7.44922,-6.55859 C 125.02212,218.0123 120.99999,216 116,216 c -5.33332,0 -10.1996,2.54334 -13.82812,6.17187 -0.5779,0.5779 -1.12368,1.19056 -1.64063,1.82813 H 60 C 54.00001,224 46.59874,220.62999 40.98437,215.01562 35.37,209.40125 32,201.99999 32,196 v -4 A 12,12 0 0 0 20,180 Z" /><path
       id="path1835"
       style="color:#000000;fill:#4b96ff;stroke-width:8;stroke-linecap:round;stroke-linejoin:round;-inkscape-stroke:none"
       d="m 128,48 c -12.77863,0 -24.62847,1.17521 -34.92578,4.74023 L 104.78125,67.375 a 1.0001,1.0001 0 0 1 0.0508,1.17969 l -7.41797,11.12695 19.09961,11.46094 a 1.0001,1.0001 0 0 1 -0.75586,1.82812 l -32,-8 A 1.0001,1.0001 0 0 1 83.16797,83.44531 L 90.71289,72.12695 78.73047,60.14453 c -0.77788,0.57163 -1.54444,1.16106 -2.29102,1.7832 C 63.31445,72.86524 56,91.33342 56,120 a 4.0004,4.0004 0 0 0 4.6582,3.94531 c 0,0 7.22714,-1.17439 13.16992,-7.11719 3.44925,-3.44924 6.301,-8.63044 7.3086,-15.63476 1.24799,3.35571 1.86328,6.2871 1.86328,8.74414 0,5.49121 -2.33895,9.56693 -6.06055,13.98633 -3.72158,4.41938 -8.78724,8.84259 -13.10742,14.44531 C 59.51186,143.97188 56,151.00003 56,160 c 0,2.66666 0.74195,5.23116 2.4043,7.09766 1.66234,1.86647 3.93796,2.75757 6.08789,3.10156 4.29984,0.68798 8.76782,-0.2711 13.375,-1.29492 4.60717,-1.02382 9.28973,-2.23529 12.98828,-2.6836 3.69855,-0.44831 5.84848,0.13951 6.31641,0.60742 1.29289,1.2929 1.16487,1.59359 1.03124,2.26172 -0.13361,0.66813 -0.84552,1.89632 -2.03124,3.08204 -2.37145,2.37144 -5.96094,4.24999 -5.96094,4.25 a 4.0004,4.0004 0 0 0 -1.64063,5.63671 l 12,20 a 4.0004,4.0004 0 0 0 6.25781,0.76953 c 0,0 0.73199,-0.72758 1.89063,-1.5 C 109.87739,200.5557 111.33333,200 112,200 c 0.66667,0 2.12261,0.5557 3.28125,1.32812 1.15864,0.77242 1.89062,1.5 1.89063,1.5 a 4.0004,4.0004 0 0 0 5.65624,0 c 0,0 0.73199,-0.72758 1.89063,-1.5 C 125.87739,200.5557 127.33333,200 128,200 c 0.66667,0 2.12261,0.5557 3.28125,1.32812 1.15864,0.77242 1.89062,1.5 1.89063,1.5 a 4.0004,4.0004 0 0 0 5.65624,0 c 0,0 0.73199,-0.72758 1.89063,-1.5 C 141.87739,200.5557 143.33333,200 144,200 c 0.66667,0 2.12261,0.5557 3.28125,1.32812 1.15864,0.77242 1.89062,1.5 1.89063,1.5 a 4.0004,4.0004 0 0 0 6.25781,-0.76953 l 12,-20 a 4.0004,4.0004 0 0 0 -1.64063,-5.63671 c 0,0 -3.58948,-1.87856 -5.96094,-4.25 -1.1857,-1.18572 -1.89763,-2.41391 -2.03124,-3.08204 -0.13362,-0.66813 -0.26163,-0.96882 1.03124,-2.26172 0.46794,-0.46791 2.61786,-1.05573 6.31641,-0.60742 3.69856,0.44831 8.38112,1.65978 12.98828,2.6836 4.60719,1.02382 9.07516,1.9829 13.375,1.29492 2.14993,-0.34399 4.42554,-1.23509 6.08789,-3.10156 1.66235,-1.8665 2.4043,-4.431 2.4043,-7.09766 0,-8.14283 -3.59256,-14.64253 -7.87695,-19.99805 -4.28441,-5.35549 -9.28444,-9.85552 -13,-14.5 C 175.40746,120.8575 173,116.35712 173,110.5 c 0,-2.6335 0.61925,-5.70808 1.88281,-9.18164 1.02434,6.93938 3.86067,12.08137 7.28907,15.50976 5.94279,5.9428 13.16992,7.11719 13.16992,7.11719 A 4.0004,4.0004 0 0 0 200,120 C 200,91.33342 192.68554,72.86524 179.56055,61.92773 166.43553,50.99025 148.39994,48 128,48 Z m -40,84 c 7.33331,0 11.67611,3.99549 14.82422,6.24414 3.14811,2.24865 5.11816,3.64673 12.20508,1.875 a 4.0004,4.0004 0 0 1 4.76562,5.14648 c 0,0 -1.0578,3.20545 -2.7168,6.52344 -0.82949,1.65901 -1.79504,3.36849 -3.06835,4.89649 C 112.73643,158.21355 111,160 108,160 c -3.33333,0 -5.51861,-1.28941 -8.26562,-2.20508 C 96.98737,156.87925 93.55553,156 88,156 c -7.77775,0 -13,-6.00003 -13,-12 0,-5.99997 5.22225,-12 13,-12 z m 80,0 c 7.77775,0 13,6.00003 13,12 0,5.99997 -5.22225,12 -13,12 -5.55553,0 -8.98736,0.87925 -11.73438,1.79492 C 153.51863,158.71059 151.33333,160 148,160 c -3,0 -4.73643,-1.78645 -6.00977,-3.31445 -1.27331,-1.528 -2.23886,-3.23748 -3.06835,-4.89649 -1.659,-3.31799 -2.7168,-6.52344 -2.7168,-6.52344 a 4.0004,4.0004 0 0 1 4.76562,-5.14648 c 7.08692,1.77173 9.05697,0.37365 12.20508,-1.875 C 156.32389,135.99549 160.66669,132 168,132 Z m -40,28 a 4.0004,4.0004 0 0 1 3.71484,2.51367 l 8,20 a 4.0004,4.0004 0 0 1 -6.54296,4.31445 c -10e-6,10e-6 -0.73199,-0.72757 -1.89063,-1.5 C 130.12261,184.55572 128.66667,184 128,184 c -0.66667,0 -2.12261,0.55572 -3.28125,1.32812 -1.15864,0.77243 -1.89063,1.5 -1.89063,1.5 a 4.0004,4.0004 0 0 1 -6.54296,-4.31445 l 8,-20 A 4.0004,4.0004 0 0 1 128,160 Z" /></g></svg>
