<?xml version="1.0" encoding="UTF-8" standalone="no"?>
<!-- Created with Inkscape (http://www.inkscape.org/) -->

<svg
   width="3000"
   height="3000"
   viewBox="0 0 3000 3000"
   version="1.1"
   id="SVGRoot"
   sodipodi:docname="photography.svg"
   xml:space="preserve"
   inkscape:version="1.2.2 (1:1.2.2+202212051550+b0a8486541)"
   inkscape:export-filename="logo-white-background.png"
   inkscape:export-xdpi="192"
   inkscape:export-ydpi="192"
   xmlns:inkscape="http://www.inkscape.org/namespaces/inkscape"
   xmlns:sodipodi="http://sodipodi.sourceforge.net/DTD/sodipodi-0.dtd"
   xmlns="http://www.w3.org/2000/svg"
   xmlns:svg="http://www.w3.org/2000/svg"><sodipodi:namedview
     id="namedview1076"
     pagecolor="#ffffff"
     bordercolor="#999999"
     borderopacity="1"
     inkscape:showpageshadow="0"
     inkscape:pageopacity="0"
     inkscape:pagecheckerboard="0"
     inkscape:deskcolor="#d1d1d1"
     inkscape:document-units="px"
     showgrid="true"
     inkscape:zoom="0.74724267"
     inkscape:cx="410.17465"
     inkscape:cy="268.31979"
     inkscape:window-width="1920"
     inkscape:window-height="1015"
     inkscape:window-x="0"
     inkscape:window-y="0"
     inkscape:window-maximized="1"
     inkscape:current-layer="layer1"><inkscape:grid
       type="xygrid"
       id="grid1979"
       spacingx="24"
       spacingy="24"
       empspacing="5"
       originx="0"
       originy="0" /></sodipodi:namedview><defs
     id="defs1071" /><g
     inkscape:label="Layer 1"
     inkscape:groupmode="layer"
     id="layer1"><path
       id="path2280-5-8-0-0"
       style="color:#000000;fill:#4b96ff;stroke-linecap:round;stroke-linejoin:round"
       d="m 144,70 c -6.0345,0 -11.96083,0.92054 -17.67188,2.60156 3.15595,4.00195 5.067,7.96267 6.15821,11.23633 0.45848,1.37545 0.47491,2.11011 0.69336,3.20117 l 3.70508,3.70508 C 139.28029,90.30179 141.66589,90 144,90 h 64 c 2.34285,0 4.72923,0.29995 7.12305,0.73633 l 4.6582,-4.65821 6.62891,-13.25976 C 220.47499,71.00786 214.30197,70 208,70 Z m 121.68555,30.45508 -14.26172,14.26172 C 258.0183,123.7785 262,134.22854 262,144 v 38.1582 C 262.64654,182.0704 263.30443,182 264,182 a 8.0008,8.0008 0 0 0 0.002,0 c 2.64815,5.2e-4 5.19572,1.05747 7.06836,2.92969 h 0.002 L 282,195.85742 V 144 c 0,-15.97033 -6.44313,-31.09962 -16.31445,-43.54492 z M 83.01367,104.9375 C 75.04114,116.45449 70,129.89838 70,144 v 64 c 0,3.54299 0.32106,7.0448 0.91797,10.48828 5.18259,-5.12975 11.30816,-9.8234 18.89844,-11.61719 L 90,206.56445 V 144 c 0,-9.17831 3.55739,-18.97083 9.49023,-27.65039 -4.2252,-1.45859 -9.50886,-4.22759 -14.56054,-9.2793 -0.67848,-0.67848 -1.30105,-1.40188 -1.91602,-2.13281 z M 237.2832,251.42383 C 228.2215,258.0183 217.77146,262 208,262 h -64 c -6.50391,0 -13.31002,-1.77494 -19.81055,-4.89062 -3.82584,5.68229 -8.98131,10.37184 -13.60547,14.41796 -0.27168,0.23773 -0.52375,0.42113 -0.79492,0.6543 C 120.16605,278.29643 131.85028,282 144,282 h 64 c 15.97033,0 31.09962,-6.44313 43.54492,-16.31445 z" /><path
       id="path8948-6-4"
       style="color:#000000;fill:#965adc;stroke-width:4;stroke-linecap:round;stroke-linejoin:round"
       d="m 68.07812,50.00195 a 2.0002,2.0002 0 0 0 -1.74218,3.10743 c 3.7724,5.65863 7.81057,15.64291 11.82031,25.16601 4.00974,9.5231 7.84044,18.54944 12.42969,23.13867 4.23568,4.2357 8.52827,6.39812 11.78125,7.48242 2.10956,0.70319 3.77014,0.94065 4.73437,1.03321 l 6.04297,6.04297 c 5.13478,-7.76779 12.99651,-12.8439 21.58789,-16.06836 l -8.80273,-8.80274 c -0.0926,-0.96423 -0.33002,-2.62481 -1.03321,-4.73437 -1.0843,-3.25298 -3.24672,-7.54557 -7.48242,-11.78125 C 112.82483,69.99669 103.79849,66.16599 94.27539,62.15625 84.75229,58.14651 74.76801,54.10834 69.10938,50.33594 a 2.0002,2.0002 0 0 0 -1.03126,-0.33399 z m 223.37305,8.07422 -56,16 a 2.0002,2.0002 0 0 0 -1.24023,1.0293 l -7.85547,15.71094 -9.08789,9.08789 c 8.59138,3.22446 16.45311,8.30057 21.58789,16.06836 l 6.55859,-6.5586 48,-48 a 2.0002,2.0002 0 0 0 -1.96289,-3.33789 z M 264,190 c -3,0 -5.36919,2.01725 -7.41211,4.46875 -0.92316,1.10779 -1.7883,2.35969 -2.60937,3.67187 -0.005,1.85681 0.0215,4.63533 0.0215,5.85938 0,9.34356 -4.70753,17.03241 -10.41602,22.02734 -3.93019,3.43892 -8.43558,5.93507 -13.24023,7.14454 l 28.24219,28.24218 a 2.0002,2.0002 0 0 0 0.78125,0.48242 l 24,8 a 2.0002,2.0002 0 0 0 2.52929,-2.52929 l -8,-24 a 2.0002,2.0002 0 0 0 -0.48242,-0.78125 l -9.78515,-9.78516 c 2.34419,-0.8758 5.52146,-2.13964 9.26562,-4.01172 3.0795,-1.53975 6.18522,-3.33404 8.63672,-5.37695 C 287.98275,221.36919 290,219 290,216 a 2.0002,2.0002 0 0 0 -0.58594,-1.41406 l -24,-24 A 2.0002,2.0002 0 0 0 264,190 Z m -165.64453,18.18555 -3.56836,5.94726 c -8.90046,0.69471 -17.47866,8.76299 -24.29297,16.55078 -7.12429,8.14207 -12.18945,16.25586 -12.18945,16.25586 a 2.0002,2.0002 0 0 0 2.26953,2.97657 l 36.44336,-10.9336 -10.9336,36.44336 a 2.0002,2.0002 0 0 0 2.97657,2.26953 c 0,0 8.11379,-5.06516 16.25586,-12.18945 7.78779,-6.81431 15.85607,-15.39251 16.55078,-24.29297 l 7.92578,-4.75586 c -0.12338,-0.98864 -0.28258,-1.77795 -0.42774,-2.41406 -0.55863,-0.0168 -0.62256,-0.043 -1.36523,-0.043 -7.17965,0 -13.96284,-3.05415 -19.58398,-7.97266 -4.8281,-4.22459 -8.90703,-10.39182 -10.06055,-17.84179 z" /><path
       id="path8969-8-8"
       style="color:#000000;fill:#4b96ff;stroke-width:4;stroke-linecap:round;stroke-linejoin:round"
       d="m 176,102 c -12.11108,0 -24.26962,0.99262 -34.57422,4.08398 -10.3046,3.09139 -18.88691,8.3656 -23.21484,17.02149 C 105.77369,147.97993 106,192.00003 106,204 c 0,6.66664 3.34618,12.2106 7.68359,16.00586 C 118.02103,223.80111 123.33334,226 128,226 c 2,0 3.67071,0.0141 4.92188,0.22266 1.25116,0.20853 2.01761,0.54496 2.66406,1.1914 C 136.87883,228.70695 138,232.16669 138,240 c 0,3.33333 0.83039,6.02255 2.27539,7.94922 1.445,1.92666 3.55795,3.05078 5.72461,3.05078 2.16666,0 4.27961,-1.12412 5.72461,-3.05078 C 153.16961,246.02255 154,243.33333 154,240 c 0,-1.5 0.49051,-2.37241 1.20312,-3.00586 C 155.91576,236.36069 156.94445,236 158,236 c 1.05555,0 2.08425,0.36069 2.79688,0.99414 C 161.5095,237.62759 162,238.5 162,240 c 0,8.8333 5.93336,14 12,14 6.06664,0 12,-5.1667 12,-14 0,-2.66666 0.66961,-4.47745 1.47461,-5.55078 C 188.27961,233.37589 189.16667,233 190,233 c 0.83333,0 1.72039,0.37589 2.52539,1.44922 0.805,1.07333 1.47461,2.88412 1.47461,5.55078 0,6.2222 1.01218,10.99701 2.71094,14.39453 C 198.4097,257.79205 201,260 204,260 c 3,0 5.5903,-2.20795 7.28906,-5.60547 C 212.98782,250.99701 214,246.2222 214,240 c 0,-3.66666 0.94853,-7.31733 2.66406,-9.89062 C 218.3796,227.53608 220.66667,226 224,226 c 4.66666,0 9.97897,-2.19889 14.31641,-5.99414 C 242.65382,216.2106 246,210.66664 246,204 c 0,-11.99997 0.22631,-56.02007 -12.21094,-80.89453 -4.32793,-8.65589 -12.91024,-13.9301 -23.21484,-17.02149 C 200.26962,102.99262 188.11108,102 176,102 Z m -44,60 c 4.99999,0 9.29624,3.46809 13.41406,7.58594 4.11785,4.11782 8.11788,9.11785 12,13 2,2 4.38596,4.21693 5.04688,7.52148 0.66091,3.30458 -0.81118,7.07096 -5.04688,11.30664 -2.64816,2.64816 -6.60456,3.11145 -10.67773,2.56836 -4.07319,-0.54309 -8.48181,-2.11882 -12.63086,-4.19336 -4.14907,-2.07453 -8.02263,-4.64626 -10.95117,-7.30859 C 120.22573,189.81814 118,187.16666 118,184 c 0,-4.33333 1.03205,-9.53678 3.21094,-13.89453 C 123.38982,165.7477 127,162 132,162 Z m 88,0 c 4.99999,0 8.61018,3.7477 10.78906,8.10547 C 232.96795,174.46322 234,179.66667 234,184 c 0,3.16666 -2.22573,5.81814 -5.1543,8.48047 -2.92854,2.66233 -6.8021,5.23406 -10.95117,7.30859 -4.14905,2.07454 -8.55767,3.65027 -12.63086,4.19336 -4.07317,0.54309 -8.02957,0.0798 -10.67773,-2.56836 -4.2357,-4.23568 -5.70779,-8.00206 -5.04688,-11.30664 0.66092,-3.30455 3.04688,-5.52148 5.04688,-7.52148 3.88212,-3.88215 7.88215,-8.88218 12,-13 C 210.70376,165.46809 215,162 220,162 Z m -44,32 c 1.16667,0 2.02857,0.45494 2.89844,1.00586 0.86987,0.55092 1.73281,1.26863 2.61328,2.11523 1.76093,1.6932 3.57649,3.90577 5.15234,6.26953 1.57586,2.36379 2.90894,4.85381 3.625,7.2168 0.35803,1.1815 0.57021,2.33691 0.50391,3.49805 -0.0663,1.16113 -0.46643,2.39611 -1.37891,3.30859 -2.4714,2.4714 -5.59408,2.60148 -7.89844,2.02539 C 179.21129,218.86336 177.33333,218 176,218 c -1.33333,0 -3.21128,0.86336 -5.51562,1.43945 -2.30435,0.57609 -5.42704,0.44601 -7.89844,-2.02539 -0.91248,-0.91248 -1.31261,-2.14746 -1.37891,-3.30859 -0.0663,-1.16114 0.14588,-2.31655 0.50391,-3.49805 0.71606,-2.36299 2.04914,-4.85301 3.625,-7.2168 1.57585,-2.36376 3.39141,-4.57633 5.15234,-6.26953 0.88047,-0.8466 1.74341,-1.56431 2.61328,-2.11523 C 173.97143,194.45494 174.83333,194 176,194 Z" /><text
       xml:space="preserve"
       style="font-style:normal;font-weight:normal;font-size:31.7314px;line-height:1.25;font-family:sans-serif;fill:#965adc;fill-opacity:1;stroke:none;stroke-width:0.881424"
       x="175.70573"
       y="331.55066"
       id="text311-3"><tspan
         id="tspan309-6"
         x="175.70573"
         y="331.55066"
         style="font-style:normal;font-variant:normal;font-weight:bold;font-stretch:normal;font-size:31.7314px;font-family:'DejaVu Sans';-inkscape-font-specification:'DejaVu Sans Bold';text-align:center;text-anchor:middle;fill:#965adc;fill-opacity:1;stroke-width:0.881424"
         sodipodi:role="line">NECROMINIS</tspan></text><path
       id="path2280-5-8-0-0-7"
       style="color:#000000;fill:#4b96ff;stroke-linecap:round;stroke-linejoin:round"
       d="m 2792,70 c -6.0345,0 -11.9608,0.92054 -17.6719,2.60156 3.156,4.00195 5.067,7.96267 6.1582,11.23633 0.4585,1.37545 0.4749,2.11011 0.6934,3.20117 l 3.7051,3.70508 C 2787.2803,90.30179 2789.6659,90 2792,90 h 64 c 2.3429,0 4.7292,0.29995 7.1231,0.73633 l 4.6582,-4.65821 6.6289,-13.25976 C 2868.475,71.00786 2862.302,70 2856,70 Z m 121.6856,30.45508 -14.2618,14.26172 C 2906.0183,123.7785 2910,134.22854 2910,144 v 38.1582 c 0.6465,-0.0878 1.3044,-0.1582 2,-0.1582 a 8.0008,8.0008 0 0 0 0,0 c 2.6482,5.2e-4 5.1957,1.05747 7.0684,2.92969 h 0 L 2930,195.85742 V 144 c 0,-15.97033 -6.4431,-31.09962 -16.3144,-43.54492 z m -182.6719,4.48242 C 2723.0411,116.45449 2718,129.89838 2718,144 v 64 c 0,3.54299 0.3211,7.0448 0.918,10.48828 5.1826,-5.12975 11.3081,-9.8234 18.8984,-11.61719 L 2738,206.56445 V 144 c 0,-9.17831 3.5574,-18.97083 9.4902,-27.65039 -4.2252,-1.45859 -9.5088,-4.22759 -14.5605,-9.2793 -0.6785,-0.67848 -1.3011,-1.40188 -1.916,-2.13281 z m 154.2695,146.48633 C 2876.2215,258.0183 2865.7715,262 2856,262 h -64 c -6.5039,0 -13.31,-1.77494 -19.8106,-4.89062 -3.8258,5.68229 -8.9813,10.37184 -13.6054,14.41796 -0.2717,0.23773 -0.5238,0.42113 -0.7949,0.6543 C 2768.166,278.29643 2779.8503,282 2792,282 h 64 c 15.9703,0 31.0996,-6.44313 43.5449,-16.31445 z" /><path
       id="path8948-6-4-5"
       style="color:#000000;fill:#965adc;stroke-width:4;stroke-linecap:round;stroke-linejoin:round"
       d="m 2716.0781,50.00195 a 2.0002,2.0002 0 0 0 -1.7422,3.10743 c 3.7724,5.65863 7.8106,15.64291 11.8204,25.16601 4.0097,9.5231 7.8404,18.54944 12.4296,23.13867 4.2357,4.2357 8.5283,6.39812 11.7813,7.48242 2.1095,0.70319 3.7701,0.94065 4.7344,1.03321 l 6.0429,6.04297 c 5.1348,-7.76779 12.9965,-12.8439 21.5879,-16.06836 l -8.8027,-8.80274 c -0.093,-0.96423 -0.33,-2.62481 -1.0332,-4.73437 -1.0843,-3.25298 -3.2467,-7.54557 -7.4824,-11.78125 -4.5893,-4.58925 -13.6156,-8.41995 -23.1387,-12.42969 -9.5231,-4.00974 -19.5074,-8.04791 -25.166,-11.82031 a 2.0002,2.0002 0 0 0 -1.0313,-0.33399 z m 223.3731,8.07422 -56,16 a 2.0002,2.0002 0 0 0 -1.2403,1.0293 l -7.8554,15.71094 -9.0879,9.08789 c 8.5914,3.22446 16.4531,8.30057 21.5879,16.06836 l 6.5586,-6.5586 48,-48 a 2.0002,2.0002 0 0 0 -1.9629,-3.33789 z M 2912,190 c -3,0 -5.3692,2.01725 -7.4121,4.46875 -0.9232,1.10779 -1.7883,2.35969 -2.6094,3.67187 -0.01,1.85681 0.021,4.63533 0.021,5.85938 0,9.34356 -4.7075,17.03241 -10.416,22.02734 -3.9302,3.43892 -8.4356,5.93507 -13.2402,7.14454 l 28.2422,28.24218 a 2.0002,2.0002 0 0 0 0.7812,0.48242 l 24,8 a 2.0002,2.0002 0 0 0 2.5293,-2.52929 l -8,-24 a 2.0002,2.0002 0 0 0 -0.4824,-0.78125 l -9.7852,-9.78516 c 2.3442,-0.8758 5.5215,-2.13964 9.2657,-4.01172 3.0794,-1.53975 6.1852,-3.33404 8.6367,-5.37695 C 2935.9828,221.36919 2938,219 2938,216 a 2.0002,2.0002 0 0 0 -0.5859,-1.41406 l -24,-24 A 2.0002,2.0002 0 0 0 2912,190 Z m -165.6445,18.18555 -3.5684,5.94726 c -8.9004,0.69471 -17.4786,8.76299 -24.293,16.55078 -7.1242,8.14207 -12.1894,16.25586 -12.1894,16.25586 a 2.0002,2.0002 0 0 0 2.2695,2.97657 l 36.4434,-10.9336 -10.9336,36.44336 a 2.0002,2.0002 0 0 0 2.9766,2.26953 c 0,0 8.1137,-5.06516 16.2558,-12.18945 7.7878,-6.81431 15.8561,-15.39251 16.5508,-24.29297 l 7.9258,-4.75586 c -0.1234,-0.98864 -0.2826,-1.77795 -0.4278,-2.41406 -0.5586,-0.0168 -0.6225,-0.043 -1.3652,-0.043 -7.1796,0 -13.9628,-3.05415 -19.584,-7.97266 -4.8281,-4.22459 -8.907,-10.39182 -10.0605,-17.84179 z" /><path
       id="path8969-8-8-3"
       style="color:#000000;fill:#4b96ff;stroke-width:4;stroke-linecap:round;stroke-linejoin:round"
       d="m 2824,102 c -12.1111,0 -24.2696,0.99262 -34.5742,4.08398 -10.3046,3.09139 -18.8869,8.3656 -23.2149,17.02149 C 2753.7737,147.97993 2754,192.00003 2754,204 c 0,6.66664 3.3462,12.2106 7.6836,16.00586 4.3374,3.79525 9.6497,5.99414 14.3164,5.99414 2,0 3.6707,0.0141 4.9219,0.22266 1.2511,0.20853 2.0176,0.54496 2.664,1.1914 1.2929,1.29289 2.4141,4.75263 2.4141,12.58594 0,3.33333 0.8304,6.02255 2.2754,7.94922 1.445,1.92666 3.5579,3.05078 5.7246,3.05078 2.1667,0 4.2796,-1.12412 5.7246,-3.05078 1.445,-1.92667 2.2754,-4.61589 2.2754,-7.94922 0,-1.5 0.4905,-2.37241 1.2031,-3.00586 C 2803.9158,236.36069 2804.9445,236 2806,236 c 1.0556,0 2.0842,0.36069 2.7969,0.99414 C 2809.5095,237.62759 2810,238.5 2810,240 c 0,8.8333 5.9334,14 12,14 6.0666,0 12,-5.1667 12,-14 0,-2.66666 0.6696,-4.47745 1.4746,-5.55078 0.805,-1.07333 1.6921,-1.44922 2.5254,-1.44922 0.8333,0 1.7204,0.37589 2.5254,1.44922 0.805,1.07333 1.4746,2.88412 1.4746,5.55078 0,6.2222 1.0122,10.99701 2.7109,14.39453 C 2846.4097,257.79205 2849,260 2852,260 c 3,0 5.5903,-2.20795 7.2891,-5.60547 C 2860.9878,250.99701 2862,246.2222 2862,240 c 0,-3.66666 0.9485,-7.31733 2.6641,-9.89062 1.7155,-2.5733 4.0026,-4.10938 7.3359,-4.10938 4.6667,0 9.979,-2.19889 14.3164,-5.99414 C 2890.6538,216.2106 2894,210.66664 2894,204 c 0,-11.99997 0.2263,-56.02007 -12.2109,-80.89453 -4.328,-8.65589 -12.9103,-13.9301 -23.2149,-17.02149 C 2848.2696,102.99262 2836.1111,102 2824,102 Z m -44,60 c 5,0 9.2962,3.46809 13.4141,7.58594 4.1178,4.11782 8.1178,9.11785 12,13 2,2 4.3859,4.21693 5.0468,7.52148 0.661,3.30458 -0.8111,7.07096 -5.0468,11.30664 -2.6482,2.64816 -6.6046,3.11145 -10.6778,2.56836 -4.0732,-0.54309 -8.4818,-2.11882 -12.6308,-4.19336 -4.1491,-2.07453 -8.0227,-4.64626 -10.9512,-7.30859 C 2768.2257,189.81814 2766,187.16666 2766,184 c 0,-4.33333 1.032,-9.53678 3.2109,-13.89453 C 2771.3898,165.7477 2775,162 2780,162 Z m 88,0 c 5,0 8.6102,3.7477 10.7891,8.10547 2.1789,4.35775 3.2109,9.5612 3.2109,13.89453 0,3.16666 -2.2257,5.81814 -5.1543,8.48047 -2.9285,2.66233 -6.8021,5.23406 -10.9512,7.30859 -4.149,2.07454 -8.5576,3.65027 -12.6308,4.19336 -4.0732,0.54309 -8.0296,0.0798 -10.6778,-2.56836 -4.2357,-4.23568 -5.7077,-8.00206 -5.0468,-11.30664 0.6609,-3.30455 3.0468,-5.52148 5.0468,-7.52148 3.8822,-3.88215 7.8822,-8.88218 12,-13 C 2858.7038,165.46809 2863,162 2868,162 Z m -44,32 c 1.1667,0 2.0286,0.45494 2.8984,1.00586 0.8699,0.55092 1.7329,1.26863 2.6133,2.11523 1.7609,1.6932 3.5765,3.90577 5.1524,6.26953 1.5758,2.36379 2.9089,4.85381 3.625,7.2168 0.358,1.1815 0.5702,2.33691 0.5039,3.49805 -0.066,1.16113 -0.4665,2.39611 -1.3789,3.30859 -2.4714,2.4714 -5.5941,2.60148 -7.8985,2.02539 C 2827.2113,218.86336 2825.3333,218 2824,218 c -1.3333,0 -3.2113,0.86336 -5.5156,1.43945 -2.3044,0.57609 -5.4271,0.44601 -7.8985,-2.02539 -0.9124,-0.91248 -1.3126,-2.14746 -1.3789,-3.30859 -0.066,-1.16114 0.1459,-2.31655 0.5039,-3.49805 0.7161,-2.36299 2.0492,-4.85301 3.625,-7.2168 1.5759,-2.36376 3.3915,-4.57633 5.1524,-6.26953 0.8805,-0.8466 1.7434,-1.56431 2.6133,-2.11523 C 2821.9714,194.45494 2822.8333,194 2824,194 Z" /><text
       xml:space="preserve"
       style="font-style:normal;font-weight:normal;font-size:31.7314px;line-height:1.25;font-family:sans-serif;fill:#965adc;fill-opacity:1;stroke:none;stroke-width:0.881424"
       x="2823.7058"
       y="331.55066"
       id="text311-3-5"><tspan
         id="tspan309-6-6"
         x="2823.7058"
         y="331.55066"
         style="font-style:normal;font-variant:normal;font-weight:bold;font-stretch:normal;font-size:31.7314px;font-family:'DejaVu Sans';-inkscape-font-specification:'DejaVu Sans Bold';text-align:center;text-anchor:middle;fill:#965adc;fill-opacity:1;stroke-width:0.881424"
         sodipodi:role="line">NECROMINIS</tspan></text><path
       id="path2280-5-8-0-0-1"
       style="color:#000000;fill:#4b96ff;stroke-linecap:round;stroke-linejoin:round"
       d="m 144,2686 c -6.0345,0 -11.96083,0.9205 -17.67188,2.6016 3.15595,4.0019 5.067,7.9626 6.15821,11.2363 0.45848,1.3754 0.47491,2.1101 0.69336,3.2012 l 3.70508,3.705 C 139.28029,2706.3018 141.66589,2706 144,2706 h 64 c 2.34285,0 4.72923,0.3 7.12305,0.7363 l 4.6582,-4.6582 6.62891,-13.2597 C 220.47499,2687.0079 214.30197,2686 208,2686 Z m 121.68555,30.4551 -14.26172,14.2617 C 258.0183,2739.7785 262,2750.2285 262,2760 v 38.1582 c 0.64654,-0.088 1.30443,-0.1582 2,-0.1582 a 8.0008,8.0008 0 0 0 0.002,0 c 2.64815,5e-4 5.19572,1.0575 7.06836,2.9297 h 0.002 L 282,2811.8574 V 2760 c 0,-15.9703 -6.44313,-31.0996 -16.31445,-43.5449 z m -182.67188,4.4824 C 75.04114,2732.4545 70,2745.8984 70,2760 v 64 c 0,3.543 0.32106,7.0448 0.91797,10.4883 5.18259,-5.1298 11.30816,-9.8234 18.89844,-11.6172 L 90,2822.5644 V 2760 c 0,-9.1783 3.55739,-18.9708 9.49023,-27.6504 -4.2252,-1.4586 -9.50886,-4.2276 -14.56054,-9.2793 -0.67848,-0.6785 -1.30105,-1.4019 -1.91602,-2.1328 z M 237.2832,2867.4238 C 228.2215,2874.0183 217.77146,2878 208,2878 h -64 c -6.50391,0 -13.31002,-1.7749 -19.81055,-4.8906 -3.82584,5.6823 -8.98131,10.3718 -13.60547,14.4179 -0.27168,0.2378 -0.52375,0.4212 -0.79492,0.6543 C 120.16605,2894.2964 131.85028,2898 144,2898 h 64 c 15.97033,0 31.09962,-6.4431 43.54492,-16.3144 z" /><path
       id="path8948-6-4-2"
       style="color:#000000;fill:#965adc;stroke-width:4;stroke-linecap:round;stroke-linejoin:round"
       d="m 68.07812,2666.0019 a 2.0002,2.0002 0 0 0 -1.74218,3.1075 c 3.7724,5.6586 7.81057,15.6429 11.82031,25.166 4.00974,9.5231 7.84044,18.5494 12.42969,23.1387 4.23568,4.2357 8.52827,6.3981 11.78125,7.4824 2.10956,0.7032 3.77014,0.9406 4.73437,1.0332 l 6.04297,6.043 c 5.13478,-7.7678 12.99651,-12.8439 21.58789,-16.0684 l -8.80273,-8.8027 c -0.0926,-0.9643 -0.33002,-2.6249 -1.03321,-4.7344 -1.0843,-3.253 -3.24672,-7.5456 -7.48242,-11.7813 -4.58923,-4.5892 -13.61557,-8.4199 -23.13867,-12.4296 -9.5231,-4.0098 -19.50738,-8.048 -25.16601,-11.8204 a 2.0002,2.0002 0 0 0 -1.03126,-0.334 z m 223.37305,8.0743 -56,16 a 2.0002,2.0002 0 0 0 -1.24023,1.0293 l -7.85547,15.7109 -9.08789,9.0879 c 8.59138,3.2245 16.45311,8.3006 21.58789,16.0684 l 6.55859,-6.5586 48,-48 a 2.0002,2.0002 0 0 0 -1.96289,-3.3379 z M 264,2806 c -3,0 -5.36919,2.0172 -7.41211,4.4688 -0.92316,1.1077 -1.7883,2.3596 -2.60937,3.6718 -0.005,1.8568 0.0215,4.6354 0.0215,5.8594 0,9.3436 -4.70753,17.0324 -10.41602,22.0273 -3.93019,3.439 -8.43558,5.9351 -13.24023,7.1446 l 28.24219,28.2422 a 2.0002,2.0002 0 0 0 0.78125,0.4824 l 24,8 a 2.0002,2.0002 0 0 0 2.52929,-2.5293 l -8,-24 a 2.0002,2.0002 0 0 0 -0.48242,-0.7813 l -9.78515,-9.7851 c 2.34419,-0.8758 5.52146,-2.1397 9.26562,-4.0117 3.0795,-1.5398 6.18522,-3.3341 8.63672,-5.377 C 287.98275,2837.3692 290,2835 290,2832 a 2.0002,2.0002 0 0 0 -0.58594,-1.4141 l -24,-24 A 2.0002,2.0002 0 0 0 264,2806 Z m -165.64453,18.1856 -3.56836,5.9472 c -8.90046,0.6947 -17.47866,8.763 -24.29297,16.5508 -7.12429,8.1421 -12.18945,16.2558 -12.18945,16.2558 a 2.0002,2.0002 0 0 0 2.26953,2.9766 l 36.44336,-10.9336 -10.9336,36.4434 a 2.0002,2.0002 0 0 0 2.97657,2.2695 c 0,0 8.11379,-5.0651 16.25586,-12.1894 7.78779,-6.8143 15.85607,-15.3925 16.55078,-24.293 l 7.92578,-4.7559 c -0.12338,-0.9886 -0.28258,-1.7779 -0.42774,-2.414 C 128.8066,2850.0262 128.74267,2850 128,2850 c -7.17965,0 -13.96284,-3.0542 -19.58398,-7.9727 -4.8281,-4.2246 -8.90703,-10.3918 -10.06055,-17.8418 z" /><path
       id="path8969-8-8-7"
       style="color:#000000;fill:#4b96ff;stroke-width:4;stroke-linecap:round;stroke-linejoin:round"
       d="m 176,2718 c -12.11108,0 -24.26962,0.9926 -34.57422,4.084 -10.3046,3.0914 -18.88691,8.3656 -23.21484,17.0215 C 105.77369,2763.9799 106,2808 106,2820 c 0,6.6666 3.34618,12.2106 7.68359,16.0059 4.33744,3.7952 9.64975,5.9941 14.31641,5.9941 2,0 3.67071,0.014 4.92188,0.2227 1.25116,0.2085 2.01761,0.5449 2.66406,1.1914 1.29289,1.2928 2.41406,4.7526 2.41406,12.5859 0,3.3333 0.83039,6.0226 2.27539,7.9492 1.445,1.9267 3.55795,3.0508 5.72461,3.0508 2.16666,0 4.27961,-1.1241 5.72461,-3.0508 1.445,-1.9266 2.27539,-4.6159 2.27539,-7.9492 0,-1.5 0.49051,-2.3724 1.20312,-3.0059 0.71264,-0.6334 1.74133,-0.9941 2.79688,-0.9941 1.05555,0 2.08425,0.3607 2.79688,0.9941 C 161.5095,2853.6276 162,2854.5 162,2856 c 0,8.8333 5.93336,14 12,14 6.06664,0 12,-5.1667 12,-14 0,-2.6667 0.66961,-4.4774 1.47461,-5.5508 0.805,-1.0733 1.69206,-1.4492 2.52539,-1.4492 0.83333,0 1.72039,0.3759 2.52539,1.4492 0.805,1.0734 1.47461,2.8841 1.47461,5.5508 0,6.2222 1.01218,10.997 2.71094,14.3945 C 198.4097,2873.7921 201,2876 204,2876 c 3,0 5.5903,-2.2079 7.28906,-5.6055 C 212.98782,2866.997 214,2862.2222 214,2856 c 0,-3.6667 0.94853,-7.3173 2.66406,-9.8906 C 218.3796,2843.5361 220.66667,2842 224,2842 c 4.66666,0 9.97897,-2.1989 14.31641,-5.9941 C 242.65382,2832.2106 246,2826.6666 246,2820 c 0,-12 0.22631,-56.0201 -12.21094,-80.8945 -4.32793,-8.6559 -12.91024,-13.9301 -23.21484,-17.0215 C 200.26962,2718.9926 188.11108,2718 176,2718 Z m -44,60 c 4.99999,0 9.29624,3.4681 13.41406,7.5859 4.11785,4.1179 8.11788,9.1179 12,13 2,2 4.38596,4.217 5.04688,7.5215 0.66091,3.3046 -0.81118,7.071 -5.04688,11.3067 -2.64816,2.6481 -6.60456,3.1114 -10.67773,2.5683 -4.07319,-0.5431 -8.48181,-2.1188 -12.63086,-4.1933 -4.14907,-2.0746 -8.02263,-4.6463 -10.95117,-7.3086 C 120.22573,2805.8181 118,2803.1667 118,2800 c 0,-4.3333 1.03205,-9.5368 3.21094,-13.8945 C 123.38982,2781.7477 127,2778 132,2778 Z m 88,0 c 4.99999,0 8.61018,3.7477 10.78906,8.1055 2.17889,4.3577 3.21094,9.5612 3.21094,13.8945 0,3.1667 -2.22573,5.8181 -5.1543,8.4805 -2.92854,2.6623 -6.8021,5.234 -10.95117,7.3086 -4.14905,2.0745 -8.55767,3.6502 -12.63086,4.1933 -4.07317,0.5431 -8.02957,0.08 -10.67773,-2.5683 -4.2357,-4.2357 -5.70779,-8.0021 -5.04688,-11.3067 0.66092,-3.3045 3.04688,-5.5215 5.04688,-7.5215 3.88212,-3.8821 7.88215,-8.8821 12,-13 C 210.70376,2781.4681 215,2778 220,2778 Z m -44,32 c 1.16667,0 2.02857,0.4549 2.89844,1.0059 0.86987,0.5509 1.73281,1.2686 2.61328,2.1152 1.76093,1.6932 3.57649,3.9058 5.15234,6.2695 1.57586,2.3638 2.90894,4.8538 3.625,7.2168 0.35803,1.1815 0.57021,2.3369 0.50391,3.4981 -0.0663,1.1611 -0.46643,2.3961 -1.37891,3.3086 -2.4714,2.4714 -5.59408,2.6014 -7.89844,2.0253 C 179.21129,2834.8634 177.33333,2834 176,2834 c -1.33333,0 -3.21128,0.8634 -5.51562,1.4394 -2.30435,0.5761 -5.42704,0.4461 -7.89844,-2.0253 -0.91248,-0.9125 -1.31261,-2.1475 -1.37891,-3.3086 -0.0663,-1.1612 0.14588,-2.3166 0.50391,-3.4981 0.71606,-2.363 2.04914,-4.853 3.625,-7.2168 1.57585,-2.3637 3.39141,-4.5763 5.15234,-6.2695 0.88047,-0.8466 1.74341,-1.5643 2.61328,-2.1152 C 173.97143,2810.4549 174.83333,2810 176,2810 Z" /><text
       xml:space="preserve"
       style="font-style:normal;font-weight:normal;font-size:31.7314px;line-height:1.25;font-family:sans-serif;fill:#965adc;fill-opacity:1;stroke:none;stroke-width:0.881424"
       x="175.70573"
       y="2947.5508"
       id="text311-3-0"><tspan
         id="tspan309-6-9"
         x="175.70573"
         y="2947.5508"
         style="font-style:normal;font-variant:normal;font-weight:bold;font-stretch:normal;font-size:31.7314px;font-family:'DejaVu Sans';-inkscape-font-specification:'DejaVu Sans Bold';text-align:center;text-anchor:middle;fill:#965adc;fill-opacity:1;stroke-width:0.881424"
         sodipodi:role="line">NECROMINIS</tspan></text><path
       id="path2280-5-8-0-0-7-0"
       style="color:#000000;fill:#4b96ff;stroke-linecap:round;stroke-linejoin:round"
       d="m 2792,2686 c -6.0345,0 -11.9608,0.9205 -17.6719,2.6016 3.156,4.0019 5.067,7.9626 6.1582,11.2363 0.4585,1.3754 0.4749,2.1101 0.6934,3.2012 l 3.7051,3.705 c 2.3955,-0.4423 4.7811,-0.7441 7.1152,-0.7441 h 64 c 2.3429,0 4.7292,0.3 7.1231,0.7363 l 4.6582,-4.6582 6.6289,-13.2597 C 2868.475,2687.0079 2862.302,2686 2856,2686 Z m 121.6856,30.4551 -14.2618,14.2617 C 2906.0183,2739.7785 2910,2750.2285 2910,2760 v 38.1582 c 0.6465,-0.088 1.3044,-0.1582 2,-0.1582 a 8.0008,8.0008 0 0 0 0,0 c 2.6482,5e-4 5.1957,1.0575 7.0684,2.9297 h 0 L 2930,2811.8574 V 2760 c 0,-15.9703 -6.4431,-31.0996 -16.3144,-43.5449 z m -182.6719,4.4824 C 2723.0411,2732.4545 2718,2745.8984 2718,2760 v 64 c 0,3.543 0.3211,7.0448 0.918,10.4883 5.1826,-5.1298 11.3081,-9.8234 18.8984,-11.6172 L 2738,2822.5644 V 2760 c 0,-9.1783 3.5574,-18.9708 9.4902,-27.6504 -4.2252,-1.4586 -9.5088,-4.2276 -14.5605,-9.2793 -0.6785,-0.6785 -1.3011,-1.4019 -1.916,-2.1328 z m 154.2695,146.4863 C 2876.2215,2874.0183 2865.7715,2878 2856,2878 h -64 c -6.5039,0 -13.31,-1.7749 -19.8106,-4.8906 -3.8258,5.6823 -8.9813,10.3718 -13.6054,14.4179 -0.2717,0.2378 -0.5238,0.4212 -0.7949,0.6543 10.3769,6.1148 22.0612,9.8184 34.2109,9.8184 h 64 c 15.9703,0 31.0996,-6.4431 43.5449,-16.3144 z" /><path
       id="path8948-6-4-5-6"
       style="color:#000000;fill:#965adc;stroke-width:4;stroke-linecap:round;stroke-linejoin:round"
       d="m 2716.0781,2666.0019 a 2.0002,2.0002 0 0 0 -1.7422,3.1075 c 3.7724,5.6586 7.8106,15.6429 11.8204,25.166 4.0097,9.5231 7.8404,18.5494 12.4296,23.1387 4.2357,4.2357 8.5283,6.3981 11.7813,7.4824 2.1095,0.7032 3.7701,0.9406 4.7344,1.0332 l 6.0429,6.043 c 5.1348,-7.7678 12.9965,-12.8439 21.5879,-16.0684 l -8.8027,-8.8027 c -0.093,-0.9643 -0.33,-2.6249 -1.0332,-4.7344 -1.0843,-3.253 -3.2467,-7.5456 -7.4824,-11.7813 -4.5893,-4.5892 -13.6156,-8.4199 -23.1387,-12.4296 -9.5231,-4.0098 -19.5074,-8.048 -25.166,-11.8204 a 2.0002,2.0002 0 0 0 -1.0313,-0.334 z m 223.3731,8.0743 -56,16 a 2.0002,2.0002 0 0 0 -1.2403,1.0293 l -7.8554,15.7109 -9.0879,9.0879 c 8.5914,3.2245 16.4531,8.3006 21.5879,16.0684 l 6.5586,-6.5586 48,-48 a 2.0002,2.0002 0 0 0 -1.9629,-3.3379 z M 2912,2806 c -3,0 -5.3692,2.0172 -7.4121,4.4688 -0.9232,1.1077 -1.7883,2.3596 -2.6094,3.6718 -0.01,1.8568 0.021,4.6354 0.021,5.8594 0,9.3436 -4.7075,17.0324 -10.416,22.0273 -3.9302,3.439 -8.4356,5.9351 -13.2402,7.1446 l 28.2422,28.2422 a 2.0002,2.0002 0 0 0 0.7812,0.4824 l 24,8 a 2.0002,2.0002 0 0 0 2.5293,-2.5293 l -8,-24 a 2.0002,2.0002 0 0 0 -0.4824,-0.7813 l -9.7852,-9.7851 c 2.3442,-0.8758 5.5215,-2.1397 9.2657,-4.0117 3.0794,-1.5398 6.1852,-3.3341 8.6367,-5.377 C 2935.9828,2837.3692 2938,2835 2938,2832 a 2.0002,2.0002 0 0 0 -0.5859,-1.4141 l -24,-24 A 2.0002,2.0002 0 0 0 2912,2806 Z m -165.6445,18.1856 -3.5684,5.9472 c -8.9004,0.6947 -17.4786,8.763 -24.293,16.5508 -7.1242,8.1421 -12.1894,16.2558 -12.1894,16.2558 a 2.0002,2.0002 0 0 0 2.2695,2.9766 l 36.4434,-10.9336 -10.9336,36.4434 a 2.0002,2.0002 0 0 0 2.9766,2.2695 c 0,0 8.1137,-5.0651 16.2558,-12.1894 7.7878,-6.8143 15.8561,-15.3925 16.5508,-24.293 l 7.9258,-4.7559 c -0.1234,-0.9886 -0.2826,-1.7779 -0.4278,-2.414 -0.5586,-0.017 -0.6225,-0.043 -1.3652,-0.043 -7.1796,0 -13.9628,-3.0542 -19.584,-7.9727 -4.8281,-4.2246 -8.907,-10.3918 -10.0605,-17.8418 z" /><path
       id="path8969-8-8-3-2"
       style="color:#000000;fill:#4b96ff;stroke-width:4;stroke-linecap:round;stroke-linejoin:round"
       d="m 2824,2718 c -12.1111,0 -24.2696,0.9926 -34.5742,4.084 -10.3046,3.0914 -18.8869,8.3656 -23.2149,17.0215 C 2753.7737,2763.9799 2754,2808 2754,2820 c 0,6.6666 3.3462,12.2106 7.6836,16.0059 4.3374,3.7952 9.6497,5.9941 14.3164,5.9941 2,0 3.6707,0.014 4.9219,0.2227 1.2511,0.2085 2.0176,0.5449 2.664,1.1914 1.2929,1.2928 2.4141,4.7526 2.4141,12.5859 0,3.3333 0.8304,6.0226 2.2754,7.9492 1.445,1.9267 3.5579,3.0508 5.7246,3.0508 2.1667,0 4.2796,-1.1241 5.7246,-3.0508 1.445,-1.9266 2.2754,-4.6159 2.2754,-7.9492 0,-1.5 0.4905,-2.3724 1.2031,-3.0059 0.7127,-0.6334 1.7414,-0.9941 2.7969,-0.9941 1.0556,0 2.0842,0.3607 2.7969,0.9941 0.7126,0.6335 1.2031,1.5059 1.2031,3.0059 0,8.8333 5.9334,14 12,14 6.0666,0 12,-5.1667 12,-14 0,-2.6667 0.6696,-4.4774 1.4746,-5.5508 0.805,-1.0733 1.6921,-1.4492 2.5254,-1.4492 0.8333,0 1.7204,0.3759 2.5254,1.4492 0.805,1.0734 1.4746,2.8841 1.4746,5.5508 0,6.2222 1.0122,10.997 2.7109,14.3945 1.6988,3.3976 4.2891,5.6055 7.2891,5.6055 3,0 5.5903,-2.2079 7.2891,-5.6055 1.6987,-3.3975 2.7109,-8.1723 2.7109,-14.3945 0,-3.6667 0.9485,-7.3173 2.6641,-9.8906 1.7155,-2.5733 4.0026,-4.1094 7.3359,-4.1094 4.6667,0 9.979,-2.1989 14.3164,-5.9941 4.3374,-3.7953 7.6836,-9.3393 7.6836,-16.0059 0,-12 0.2263,-56.0201 -12.2109,-80.8945 -4.328,-8.6559 -12.9103,-13.9301 -23.2149,-17.0215 C 2848.2696,2718.9926 2836.1111,2718 2824,2718 Z m -44,60 c 5,0 9.2962,3.4681 13.4141,7.5859 4.1178,4.1179 8.1178,9.1179 12,13 2,2 4.3859,4.217 5.0468,7.5215 0.661,3.3046 -0.8111,7.071 -5.0468,11.3067 -2.6482,2.6481 -6.6046,3.1114 -10.6778,2.5683 -4.0732,-0.5431 -8.4818,-2.1188 -12.6308,-4.1933 -4.1491,-2.0746 -8.0227,-4.6463 -10.9512,-7.3086 -2.9286,-2.6624 -5.1543,-5.3138 -5.1543,-8.4805 0,-4.3333 1.032,-9.5368 3.2109,-13.8945 C 2771.3898,2781.7477 2775,2778 2780,2778 Z m 88,0 c 5,0 8.6102,3.7477 10.7891,8.1055 2.1789,4.3577 3.2109,9.5612 3.2109,13.8945 0,3.1667 -2.2257,5.8181 -5.1543,8.4805 -2.9285,2.6623 -6.8021,5.234 -10.9512,7.3086 -4.149,2.0745 -8.5576,3.6502 -12.6308,4.1933 -4.0732,0.5431 -8.0296,0.08 -10.6778,-2.5683 -4.2357,-4.2357 -5.7077,-8.0021 -5.0468,-11.3067 0.6609,-3.3045 3.0468,-5.5215 5.0468,-7.5215 3.8822,-3.8821 7.8822,-8.8821 12,-13 C 2858.7038,2781.4681 2863,2778 2868,2778 Z m -44,32 c 1.1667,0 2.0286,0.4549 2.8984,1.0059 0.8699,0.5509 1.7329,1.2686 2.6133,2.1152 1.7609,1.6932 3.5765,3.9058 5.1524,6.2695 1.5758,2.3638 2.9089,4.8538 3.625,7.2168 0.358,1.1815 0.5702,2.3369 0.5039,3.4981 -0.066,1.1611 -0.4665,2.3961 -1.3789,3.3086 -2.4714,2.4714 -5.5941,2.6014 -7.8985,2.0253 -2.3043,-0.576 -4.1823,-1.4394 -5.5156,-1.4394 -1.3333,0 -3.2113,0.8634 -5.5156,1.4394 -2.3044,0.5761 -5.4271,0.4461 -7.8985,-2.0253 -0.9124,-0.9125 -1.3126,-2.1475 -1.3789,-3.3086 -0.066,-1.1612 0.1459,-2.3166 0.5039,-3.4981 0.7161,-2.363 2.0492,-4.853 3.625,-7.2168 1.5759,-2.3637 3.3915,-4.5763 5.1524,-6.2695 0.8805,-0.8466 1.7434,-1.5643 2.6133,-2.1152 0.8698,-0.551 1.7317,-1.0059 2.8984,-1.0059 z" /><text
       xml:space="preserve"
       style="font-style:normal;font-weight:normal;font-size:31.7314px;line-height:1.25;font-family:sans-serif;fill:#965adc;fill-opacity:1;stroke:none;stroke-width:0.881424"
       x="2823.7058"
       y="2947.5508"
       id="text311-3-5-6"><tspan
         id="tspan309-6-6-1"
         x="2823.7058"
         y="2947.5508"
         style="font-style:normal;font-variant:normal;font-weight:bold;font-stretch:normal;font-size:31.7314px;font-family:'DejaVu Sans';-inkscape-font-specification:'DejaVu Sans Bold';text-align:center;text-anchor:middle;fill:#965adc;fill-opacity:1;stroke-width:0.881424"
         sodipodi:role="line">NECROMINIS</tspan></text><path
       id="rect1369-1-2"
       style="fill:#191919;fill-opacity:1;stroke:none;stroke-width:1.56961;stroke-linecap:round;stroke-linejoin:round"
       d="m 2262,48 v 936 h 690 V 48 Z m 8,8 h 674 v 920 h -674 z" /><path
       id="rect1369-1-2-6"
       style="fill:#191919;fill-opacity:1;stroke:none;stroke-width:1.56961;stroke-linecap:round;stroke-linejoin:round"
       d="m 2262,1032 v 936 h 690 v -936 z m 8,8 h 674 v 920 h -674 z" /><path
       id="rect1369-1-2-6-1"
       style="fill:#191919;fill-opacity:1;stroke:none;stroke-width:1.56961;stroke-linecap:round;stroke-linejoin:round"
       d="m 2262,2016 v 936 h 690 v -936 z m 8,8 h 674 v 920 h -674 z" /><path
       id="rect1369-1-2-9"
       style="fill:#191919;fill-opacity:1;stroke:none;stroke-width:1.34765;stroke-linecap:round;stroke-linejoin:round"
       d="M 48,48 V 738 H 738 V 48 Z m 8,8 H 730 V 730 H 56 Z" /><path
       id="rect1369-1-2-9-4"
       style="fill:#191919;fill-opacity:1;stroke:none;stroke-width:1.34765;stroke-linecap:round;stroke-linejoin:round"
       d="m 48,786 v 690 H 738 V 786 Z m 8,8 h 674 v 674 H 56 Z" /><path
       id="rect1369-1-2-9-4-0"
       style="fill:#191919;fill-opacity:1;stroke:none;stroke-width:1.34765;stroke-linecap:round;stroke-linejoin:round"
       d="m 48,1524 v 690 h 690 v -690 z m 8,8 h 674 v 674 H 56 Z" /><path
       id="rect1369-1-2-9-4-0-3"
       style="fill:#191919;fill-opacity:1;stroke:none;stroke-width:1.34765;stroke-linecap:round;stroke-linejoin:round"
       d="m 48,2262 v 690 h 690 v -690 z m 8,8 h 674 v 674 H 56 Z" /></g></svg>
