<?xml version="1.0" encoding="UTF-8" standalone="no"?>
<!-- Created with Inkscape (http://www.inkscape.org/) -->

<svg
   width="256"
   height="256"
   viewBox="0 0 256 256"
   version="1.1"
   id="SVGRoot"
   sodipodi:docname="necrominis-missing-image.svg"
   xml:space="preserve"
   inkscape:version="1.2.2 (1:1.2.2+202212051550+b0a8486541)"
   inkscape:export-filename="no-image-thumbnail.jpg"
   inkscape:export-xdpi="375"
   inkscape:export-ydpi="375"
   xmlns:inkscape="http://www.inkscape.org/namespaces/inkscape"
   xmlns:sodipodi="http://sodipodi.sourceforge.net/DTD/sodipodi-0.dtd"
   xmlns="http://www.w3.org/2000/svg"
   xmlns:svg="http://www.w3.org/2000/svg"><sodipodi:namedview
     id="namedview1076"
     pagecolor="#ffffff"
     bordercolor="#999999"
     borderopacity="1"
     inkscape:showpageshadow="0"
     inkscape:pageopacity="0"
     inkscape:pagecheckerboard="0"
     inkscape:deskcolor="#d1d1d1"
     inkscape:document-units="px"
     showgrid="true"
     inkscape:zoom="1.0633188"
     inkscape:cx="31.505133"
     inkscape:cy="186.67967"
     inkscape:window-width="1920"
     inkscape:window-height="1015"
     inkscape:window-x="0"
     inkscape:window-y="0"
     inkscape:window-maximized="1"
     inkscape:current-layer="layer1"><inkscape:grid
       type="xygrid"
       id="grid1979"
       spacingx="4"
       spacingy="4"
       empspacing="8"
       originx="0"
       originy="0" /></sodipodi:namedview><defs
     id="defs1071"><clipPath
       clipPathUnits="userSpaceOnUse"
       id="clipPath832"><g
         id="g836"
         transform="translate(-1153.9092,-77.091)"><path
           d="M 0,1200 H 1200 V 0 H 0 Z"
           id="path834" /></g></clipPath><clipPath
       clipPathUnits="userSpaceOnUse"
       id="clipPath838"><g
         id="g842"
         transform="translate(-954.2559,-1131.8738)"><path
           d="M 0,1200 H 1200 V 0 H 0 Z"
           id="path840" /></g></clipPath><clipPath
       clipPathUnits="userSpaceOnUse"
       id="clipPath844"><g
         id="g848"
         transform="translate(-296.3604,-1171.8635)"><path
           d="M 0,1200 H 1200 V 0 H 0 Z"
           id="path846" /></g></clipPath><clipPath
       clipPathUnits="userSpaceOnUse"
       id="clipPath850"><g
         id="g854"
         transform="translate(-682.418,-76.343)"><path
           d="M 0,1200 H 1200 V 0 H 0 Z"
           id="path852" /></g></clipPath><clipPath
       clipPathUnits="userSpaceOnUse"
       id="clipPath880"><g
         id="g884"
         transform="translate(-1159.9326,-230.3342)"><path
           d="M 0,1200 H 1200 V 0 H 0 Z"
           id="path882" /></g></clipPath><clipPath
       clipPathUnits="userSpaceOnUse"
       id="clipPath898"><g
         id="g902"
         transform="translate(-1152.373,-885.6696)"><path
           d="M 0,1200 H 1200 V 0 H 0 Z"
           id="path900" /></g></clipPath><clipPath
       clipPathUnits="userSpaceOnUse"
       id="clipPath904"><g
         id="g908"
         transform="translate(-61.6006,-727.7873)"><path
           d="M 0,1200 H 1200 V 0 H 0 Z"
           id="path906" /></g></clipPath><clipPath
       clipPathUnits="userSpaceOnUse"
       id="clipPath934"><g
         id="g938"
         transform="translate(-571.874,-976.1057)"><path
           d="M 0,1200 H 1200 V 0 H 0 Z"
           id="path936" /></g></clipPath><clipPath
       clipPathUnits="userSpaceOnUse"
       id="clipPath946"><g
         id="g950"
         transform="translate(-1018.1074,-863.716)"><path
           d="M 0,1200 H 1200 V 0 H 0 Z"
           id="path948" /></g></clipPath><clipPath
       clipPathUnits="userSpaceOnUse"
       id="clipPath964"><g
         id="g968"
         transform="translate(-26.0439,-132.9973)"><path
           d="M 0,1200 H 1200 V 0 H 0 Z"
           id="path966" /></g></clipPath><clipPath
       clipPathUnits="userSpaceOnUse"
       id="clipPath982"><g
         id="g986"
         transform="translate(-379.3364,-707.2751)"><path
           d="M 0,1200 H 1200 V 0 H 0 Z"
           id="path984" /></g></clipPath><clipPath
       clipPathUnits="userSpaceOnUse"
       id="clipPath1006"><g
         id="g1010"
         transform="translate(-842.0078,-413.925)"><path
           d="M 0,1200 H 1200 V 0 H 0 Z"
           id="path1008" /></g></clipPath><clipPath
       clipPathUnits="userSpaceOnUse"
       id="clipPath1054"><g
         id="g1058"
         transform="translate(-332.6543,-290.675)"><path
           d="M 0,1200 H 1200 V 0 H 0 Z"
           id="path1056" /></g></clipPath><clipPath
       clipPathUnits="userSpaceOnUse"
       id="clipPath856"><g
         id="g860"
         transform="translate(-229.4751,-29.5041)"><path
           d="M 0,1200 H 1200 V 0 H 0 Z"
           id="path858" /></g></clipPath><clipPath
       clipPathUnits="userSpaceOnUse"
       id="clipPath862"><g
         id="g866"
         transform="translate(-21.8975,-1125.0715)"><path
           d="M 0,1200 H 1200 V 0 H 0 Z"
           id="path864" /></g></clipPath><clipPath
       clipPathUnits="userSpaceOnUse"
       id="clipPath868"><g
         id="g872"
         transform="translate(-31.3931,-646.3483)"><path
           d="M 0,1200 H 1200 V 0 H 0 Z"
           id="path870" /></g></clipPath><clipPath
       clipPathUnits="userSpaceOnUse"
       id="clipPath874"><g
         id="g878"
         transform="translate(-1155.4072,-672.8239)"><path
           d="M 0,1200 H 1200 V 0 H 0 Z"
           id="path876" /></g></clipPath><clipPath
       clipPathUnits="userSpaceOnUse"
       id="clipPath886"><g
         id="g890"
         transform="translate(-1178.3643,-312.0061)"><path
           d="M 0,1200 H 1200 V 0 H 0 Z"
           id="path888" /></g></clipPath><clipPath
       clipPathUnits="userSpaceOnUse"
       id="clipPath892"><g
         id="g896"
         transform="translate(-30.6284,-264.0529)"><path
           d="M 0,1200 H 1200 V 0 H 0 Z"
           id="path894" /></g></clipPath><clipPath
       clipPathUnits="userSpaceOnUse"
       id="clipPath910"><g
         id="g914"
         transform="translate(-236.1646,-1141.1843)"><path
           d="M 0,1200 H 1200 V 0 H 0 Z"
           id="path912" /></g></clipPath><clipPath
       clipPathUnits="userSpaceOnUse"
       id="clipPath916"><g
         id="g920"
         transform="translate(-507.6841,-1088.5793)"><path
           d="M 0,1200 H 1200 V 0 H 0 Z"
           id="path918" /></g></clipPath><clipPath
       clipPathUnits="userSpaceOnUse"
       id="clipPath922"><g
         id="g926"
         transform="translate(-1077.0713,-1109.6189)"><path
           d="M 0,1200 H 1200 V 0 H 0 Z"
           id="path924" /></g></clipPath><clipPath
       clipPathUnits="userSpaceOnUse"
       id="clipPath928"><g
         id="g932"
         transform="translate(-45.4463,-904.8752)"><path
           d="M 0,1200 H 1200 V 0 H 0 Z"
           id="path930" /></g></clipPath><clipPath
       clipPathUnits="userSpaceOnUse"
       id="clipPath940"><g
         id="g944"
         transform="translate(-341.3501,-903.3176)"><path
           d="M 0,1200 H 1200 V 0 H 0 Z"
           id="path942" /></g></clipPath><clipPath
       clipPathUnits="userSpaceOnUse"
       id="clipPath952"><g
         id="g956"
         transform="translate(-986.1094,-515.5275)"><path
           d="M 0,1200 H 1200 V 0 H 0 Z"
           id="path954" /></g></clipPath><clipPath
       clipPathUnits="userSpaceOnUse"
       id="clipPath958"><g
         id="g962"
         transform="translate(-880.207,-769.382)"><path
           d="M 0,1200 H 1200 V 0 H 0 Z"
           id="path960" /></g></clipPath><clipPath
       clipPathUnits="userSpaceOnUse"
       id="clipPath970"><g
         id="g974"
         transform="translate(-623.7461,-844.4304)"><path
           d="M 0,1200 H 1200 V 0 H 0 Z"
           id="path972" /></g></clipPath><clipPath
       clipPathUnits="userSpaceOnUse"
       id="clipPath976"><g
         id="g980"
         transform="translate(-683.5459,-648.3835)"><path
           d="M 0,1200 H 1200 V 0 H 0 Z"
           id="path978" /></g></clipPath><clipPath
       clipPathUnits="userSpaceOnUse"
       id="clipPath988"><g
         id="g992"
         transform="translate(-70.8452,-608.5192)"><path
           d="M 0,1200 H 1200 V 0 H 0 Z"
           id="path990" /></g></clipPath><clipPath
       clipPathUnits="userSpaceOnUse"
       id="clipPath994"><g
         id="g998"
         transform="translate(-951.9355,-1015.0817)"><path
           d="M 0,1200 H 1200 V 0 H 0 Z"
           id="path996" /></g></clipPath><clipPath
       clipPathUnits="userSpaceOnUse"
       id="clipPath1000"><g
         id="g1004"
         transform="translate(-772.376,-285.3176)"><path
           d="M 0,1200 H 1200 V 0 H 0 Z"
           id="path1002" /></g></clipPath><clipPath
       clipPathUnits="userSpaceOnUse"
       id="clipPath1012"><g
         id="g1016"
         transform="translate(-687.2207,-232.9279)"><path
           d="M 0,1200 H 1200 V 0 H 0 Z"
           id="path1014" /></g></clipPath><clipPath
       clipPathUnits="userSpaceOnUse"
       id="clipPath1018"><g
         id="g1022"
         transform="translate(-879.71,-817.8224)"><path
           d="M 0,1200 H 1200 V 0 H 0 Z"
           id="path1020" /></g></clipPath><clipPath
       clipPathUnits="userSpaceOnUse"
       id="clipPath1024"><g
         id="g1028"
         transform="translate(-512.2783,-435.2258)"><path
           d="M 0,1200 H 1200 V 0 H 0 Z"
           id="path1026" /></g></clipPath><clipPath
       clipPathUnits="userSpaceOnUse"
       id="clipPath1030"><g
         id="g1034"
         transform="translate(-175.4727,-944.6188)"><path
           d="M 0,1200 H 1200 V 0 H 0 Z"
           id="path1032" /></g></clipPath><clipPath
       clipPathUnits="userSpaceOnUse"
       id="clipPath1036"><g
         id="g1040"
         transform="translate(-159.6685,-412.257)"><path
           d="M 0,1200 H 1200 V 0 H 0 Z"
           id="path1038" /></g></clipPath><clipPath
       clipPathUnits="userSpaceOnUse"
       id="clipPath1042"><g
         id="g1046"
         transform="translate(-242.2026,-306.7473)"><path
           d="M 0,1200 H 1200 V 0 H 0 Z"
           id="path1044" /></g></clipPath><clipPath
       clipPathUnits="userSpaceOnUse"
       id="clipPath1048"><g
         id="g1052"
         transform="translate(-484.979,-211.1516)"><path
           d="M 0,1200 H 1200 V 0 H 0 Z"
           id="path1050" /></g></clipPath></defs><g
     inkscape:label="Layer 1"
     inkscape:groupmode="layer"
     id="layer1"><g
       id="g1492"
       transform="matrix(0.49999984,0,0,0.49999913,-15.999936,63.999906)"><path
         d="M 800,640.0013 H -224.0002 V -384 H 800 Z"
         style="fill:#4b96ff;fill-opacity:1;fill-rule:nonzero;stroke:none;stroke-width:0.853332"
         id="path396" /><g
         id="g3193"
         transform="matrix(-0.85333349,0,0,-0.85333377,386.15131,459.81719)"
         clip-path="url(#clipPath1048)"
         style="fill:#965adc;fill-opacity:0.75"><path
           d="m 0,0 c 10.896,13.844 36.505,29.701 67.422,22.585 28.639,-6.588 44.284,-23.87 72.705,-27.804 40.354,-5.59 60.84,-26.722 41.499,-50.048 -19.735,-23.798 -50.249,-0.653 -76.73,-21.342 -38.177,-29.826 -9.118,-52.065 -37.174,-72.731 -31.006,-22.845 -57.928,13.161 -103.5,6.231 -45.577,-6.93 -54.836,-36.352 -88.656,-22.247 -34.091,14.214 -3.714,54.768 15.845,65.58 35.818,19.797 54.963,22.736 71.696,41.701 C -10.144,-27.763 -17.922,-22.77 0,0"
           style="fill:#965adc;fill-opacity:0.75;fill-rule:nonzero;stroke:none"
           id="path3191" /></g><g
         id="g3197"
         transform="matrix(-0.85333349,0,0,-0.85333377,593.32053,378.24217)"
         clip-path="url(#clipPath1042)"
         style="fill:#965adc;fill-opacity:0.25"><path
           d="m 0,0 c 17.758,-5.922 48.682,-15.506 56.507,-51.429 8.442,-38.757 -2.376,-65.253 20.721,-80.194 13.045,-8.444 36.068,-4.609 42.593,-25.328 6.797,-21.595 -13.431,-56.79 -61.011,-47.196 -34.652,6.986 -52.648,30.201 -73.947,66.621 -11.874,20.305 -23.429,42.383 -61.554,42.383 -32.821,0 -44.877,-22.083 -77.404,-23.638 -38.582,-1.838 -50.214,40.666 -12.83,77.347 31.373,30.779 53.473,42.834 82.279,47.355 C -54.458,10.655 -23.99,7.997 0,0"
           style="fill:#965adc;fill-opacity:0.25;fill-rule:nonzero;stroke:none"
           id="path3195" /></g><g
         id="g3201"
         transform="matrix(-0.85333349,0,0,-0.85333377,663.74964,288.20717)"
         clip-path="url(#clipPath1036)"
         style="fill:#965adc;fill-opacity:0.75"><path
           d="M 0,0 C 8.253,35.08 23.684,63.552 47.459,78.414 82.595,100.372 138.022,97.75 185.354,76.517 241.397,51.376 272.987,61.538 295.346,45.614 329.915,20.999 300.06,-27.711 256.585,-18.284 223.083,-11.016 206.305,15.237 149.213,0.57 108.713,-9.832 134.024,-66.472 61.22,-72.233 -5.182,-77.488 -4.68,-19.893 0,0"
           style="fill:#965adc;fill-opacity:0.75;fill-rule:nonzero;stroke:none"
           id="path3199" /></g><g
         id="g3205"
         transform="matrix(-0.85333349,0,0,-0.85333377,650.26339,-166.07508)"
         clip-path="url(#clipPath1030)"
         style="fill:#965adc;fill-opacity:0.75"><path
           d="m 0,0 c -4.11,31.186 0.771,59.07 18.111,78.261 25.627,28.357 78.669,42.552 130.394,39.107 61.245,-4.08 87.53,13.565 113.959,7.106 40.861,-9.981 29.259,-58.705 -14.84,-63.799 C 213.641,56.753 188.964,73.322 140.21,44.467 105.622,23.999 148.614,-14.958 82.059,-41.148 21.357,-65.035 2.331,-17.683 0,0"
           style="fill:#965adc;fill-opacity:0.75;fill-rule:nonzero;stroke:none"
           id="path3203" /></g><g
         id="g3209"
         transform="matrix(-0.85333349,0,0,-0.85333377,362.85588,268.60716)"
         clip-path="url(#clipPath1024)"
         style="fill:#965adc;fill-opacity:0.25"><path
           d="m 0,0 c -11.006,7.268 -28.538,41.708 9.434,61.31 31.752,16.388 54.773,7.153 127.733,2.47 53.59,-3.44 110.956,20.53 142.802,-42.769 26.337,-52.34 -14.653,-97.565 -59.638,-95.289 -44.15,2.238 -59.149,30.679 -101.606,51.116 -16.34,7.868 -37.264,8.584 -64.474,9.538 C 27.046,-12.67 13.38,-8.834 0,0"
           style="fill:#965adc;fill-opacity:0.25;fill-rule:nonzero;stroke:none"
           id="path3207" /></g><g
         id="g3213"
         transform="matrix(-0.85333349,0,0,-0.85333377,49.31413,-57.87543)"
         clip-path="url(#clipPath1018)"
         style="fill:#965adc;fill-opacity:0.25"><path
           d="m 0,0 c -11.85,-2.161 -45.645,9.576 -33.909,46.692 9.813,31.035 30.706,39.515 80.884,82.716 36.856,31.73 66.687,45.321 120.163,21.497 C 216.688,128.83 238.169,110.98 207.63,83.938 177.654,57.4 132.547,73.36 91.792,59.98 76.104,54.833 62.124,42.027 43.928,25.389 25.735,8.754 14.405,2.628 0,0"
           style="fill:#965adc;fill-opacity:0.25;fill-rule:nonzero;stroke:none"
           id="path3211" /></g><g
         id="g3217"
         transform="matrix(-0.85333349,0,0,-0.85333377,213.57169,441.23478)"
         clip-path="url(#clipPath1012)"
         style="fill:#965adc;fill-opacity:0.25"><path
           d="m 0,0 c 10.579,22.862 29.7,22.145 42.124,21.336 36.65,-2.396 40.278,-29.96 74.647,-44.278 34.375,-14.321 88.441,-16.278 120.335,-51.951 40.543,-45.346 33.723,-75.689 -0.352,-106.647 -26.294,-23.884 -90.811,-22.997 -136.277,28.795 -21.504,24.498 -36.046,77.546 -73.25,95.628 C 4.64,-46.135 -10.578,-22.863 0,0"
           style="fill:#965adc;fill-opacity:0.25;fill-rule:nonzero;stroke:none"
           id="path3215" /></g><g
         id="g3225"
         transform="matrix(-0.85333349,0,0,-0.85333377,140.90582,396.52883)"
         clip-path="url(#clipPath1000)"
         style="fill:#965adc;fill-opacity:0.5"><path
           d="M 0,0 C -17.279,25.504 5.153,44.544 29.029,53.522 64.104,66.71 98.005,62.176 131.673,44.026 165.34,25.882 187.391,3.905 230.061,1.913 c 50.455,-2.355 101.925,25.053 114.607,2.142 15.256,-27.563 -3.49,-78.809 -72.309,-101.637 -42.287,-14.025 -75.938,1.765 -104.173,21.469 -29.655,20.691 -48.643,55.431 -87.912,60.1 C 63.37,-14.002 10.396,-15.348 0,0"
           style="fill:#965adc;fill-opacity:0.5;fill-rule:nonzero;stroke:none"
           id="path3223" /></g><g
         id="g3229"
         transform="matrix(-0.85333349,0,0,-0.85333377,-12.31834,-226.20345)"
         clip-path="url(#clipPath994)"
         style="fill:#965adc;fill-opacity:0.25"><path
           d="m 0,0 c 1.253,-18.073 -10.06,-34.379 -30.799,-37.455 -22.877,-3.396 -47.488,7.437 -61.764,16.471 -20.946,13.258 -21.424,27.489 -47.199,37.617 -25.77,10.125 -51.56,1.192 -75.457,-2.136 -30.525,-4.249 -69.842,-13.501 -86.192,15.972 -16.35,29.472 11.972,75.963 47.75,76.619 48.844,0.896 65.301,-38.258 107.42,-9.914 27.979,18.827 56.293,21.715 72.086,0.91 15.797,-20.806 5.211,-54.657 41.539,-62.179 C -15.85,32.433 -1.251,18.076 0,0"
           style="fill:#965adc;fill-opacity:0.25;fill-rule:nonzero;stroke:none"
           id="path3227" /></g><g
         id="g3233"
         transform="matrix(-0.85333349,0,0,-0.85333377,739.54554,120.73006)"
         clip-path="url(#clipPath988)"
         style="fill:#965adc;fill-opacity:0.5"><path
           d="m 0,0 c 14.478,14.36 31.728,6.043 52.331,22.31 32.218,25.435 15.919,42.658 50.448,56.381 24.022,9.548 37.992,-5.136 57.227,-15.26 24.168,-12.717 33.306,-20.062 55.485,-14.886 22.176,5.173 55.396,25.1 81.791,0.867 21.619,-19.847 16.262,-46.183 0,-63.186 -16.261,-17.003 -44.139,-2.599 -66.65,-26.14 -20.127,-21.059 -19.036,-35.313 -52.481,-40.661 -48.18,-7.695 -62.655,32.084 -98.689,32.084 -24.673,0 -47.484,-12.292 -77.159,-1.697 C -18.17,-42.874 -18.445,-14.395 0,0"
           style="fill:#965adc;fill-opacity:0.5;fill-rule:nonzero;stroke:none"
           id="path3231" /></g><g
         id="g3241"
         transform="matrix(-0.85333349,0,0,-0.85333377,216.7075,86.71251)"
         clip-path="url(#clipPath976)"
         style="fill:#965adc;fill-opacity:0.25"><path
           d="m 0,0 c -18.29,-5.791 -15.395,-34.117 5.403,-74.465 20.804,-40.355 60.325,-62.4 89.86,-44.511 27.096,16.408 28.335,44.603 37.114,78.04 12.387,47.173 49.827,33.86 45.67,59.239 C 172.508,52.084 123.132,34.94 103.996,16.636 83.351,-3.11 79.869,-5.828 64.475,-9.985 37.425,-17.298 24.959,7.899 0,0"
           style="fill:#965adc;fill-opacity:0.25;fill-rule:nonzero;stroke:none"
           id="path3239" /></g><g
         id="g3245"
         transform="matrix(-0.85333349,0,0,-0.85333377,267.7367,-80.58093)"
         clip-path="url(#clipPath970)"
         style="fill:#965adc;fill-opacity:0.75"><path
           d="m 0,0 c 25.595,22.03 65.157,33.03 109.1,32.39 45.559,-0.661 71.534,-17.668 82.427,-37.71 15.396,-28.324 9.979,-53.783 -13.965,-81.134 -26.038,-29.735 -60.753,-47.978 -92.841,-28.663 -22.594,13.6 -59.139,16.68 -77.153,-12.212 -17.072,-27.396 -34.248,-42.233 -55.417,-19.352 -28.544,30.85 -0.522,86.31 4.791,95.505 C -37.743,-41.98 -29.489,-25.378 0,0"
           style="fill:#965adc;fill-opacity:0.75;fill-rule:nonzero;stroke:none"
           id="path3243" /></g><g
         id="g3253"
         transform="matrix(-0.85333349,0,0,-0.85333377,48.89,-16.5396)"
         clip-path="url(#clipPath958)"
         style="fill:#965adc;fill-opacity:0.5"><path
           d="m 0,0 c -9.071,-24.706 -1.558,-62.295 14.017,-80.984 15.574,-18.689 39.424,-38.82 20.246,-74.755 -9.391,-17.595 -45.164,-43.607 -18.689,-65.41 26.476,-21.804 71.955,27.072 99.144,57.24 42.74,47.424 33.157,131.888 -2.586,129.646 C 83.981,-36.028 77.694,-17.509 52.776,15.196 27.858,47.901 5.435,14.801 0,0"
           style="fill:#965adc;fill-opacity:0.5;fill-rule:nonzero;stroke:none"
           id="path3251" /></g><g
         id="g3257"
         transform="matrix(-0.85333349,0,0,-0.85333377,-41.48007,200.08302)"
         clip-path="url(#clipPath952)"
         style="fill:#965adc;fill-opacity:0.25"><path
           d="m 0,0 c 1.843,26.457 35.079,76.691 93.18,83.508 34.351,4.031 46.99,-19.681 74.483,-17.29 30.591,2.66 47.257,-30.398 36.356,-45.972 C 193.116,4.672 150.372,18.335 93.18,-14.251 29.404,-50.588 -1.919,-27.552 0,0"
           style="fill:#965adc;fill-opacity:0.25;fill-rule:nonzero;stroke:none"
           id="path3255" /></g><g
         id="g3265"
         transform="matrix(-0.85333349,0,0,-0.85333377,508.71465,-130.83137)"
         clip-path="url(#clipPath940)"
         style="fill:#965adc;fill-opacity:0.5"><path
           d="m 0,0 c 0.427,-22.491 24.555,-68.994 35.82,-82.542 25.122,-30.212 52.693,-50.046 73.198,-57.624 28.402,-10.495 70.964,-6.505 91.58,24.751 14.976,22.705 36.997,56.022 43.227,73.153 6.229,17.132 -18.004,37.59 -44.479,28.245 C 172.87,-23.361 168.012,-37.606 130.77,-32.286 70.366,-23.657 65.396,44.915 37.377,46.722 4.415,48.847 -0.284,14.956 0,0"
           style="fill:#965adc;fill-opacity:0.5;fill-rule:nonzero;stroke:none"
           id="path3263" /></g><g
         id="g3273"
         transform="matrix(-0.85333349,0,0,-0.85333377,761.21927,-132.16052)"
         clip-path="url(#clipPath928)"
         style="fill:#965adc;fill-opacity:0.25"><path
           d="m 0,0 c 15.862,-10.486 69.521,-16.285 78.865,31.994 9.344,48.279 18.937,86.857 42.611,106.613 45.172,37.698 1.557,70.083 -29.59,56.067 C 60.738,180.657 4.607,129.316 -3.115,119.919 -32.194,84.531 -29.591,42.049 -23.361,28.033 -17.132,14.016 -7.61,5.031 0,0"
           style="fill:#965adc;fill-opacity:0.25;fill-rule:nonzero;stroke:none"
           id="path3271" /></g><g
         id="g3277"
         transform="matrix(-0.85333349,0,0,-0.85333377,-119.10088,-306.87523)"
         clip-path="url(#clipPath922)"
         style="fill:#965adc;fill-opacity:0.75"><path
           d="m 0,0 c 15.172,-1.609 53.905,-10.228 70.063,-31.322 29.673,-38.741 32.429,-84.317 28.849,-112.1 -3.581,-27.784 -15.504,-43.299 -31.44,-43.829 -20.489,-0.682 -28.732,69.38 -68.296,84.218 -29.621,11.107 -46.984,-0.825 -77.482,14.836 -18.175,9.334 -36.355,22.907 -15.786,53.604 C -73.523,-3.897 -27.693,2.937 0,0"
           style="fill:#965adc;fill-opacity:0.75;fill-rule:nonzero;stroke:none"
           id="path3275" /></g><g
         id="g3281"
         transform="matrix(-0.85333349,0,0,-0.85333377,366.77627,-288.92143)"
         clip-path="url(#clipPath916)"
         style="fill:#965adc;fill-opacity:0.25"><path
           d="m 0,0 c 13.921,14.792 53.558,30.83 92.974,29.265 25.333,-1.005 24.491,-31.859 8.563,-57.23 -16.731,-26.651 -43.332,-18.671 -70.082,-62.296 -12.212,-19.915 -15.147,-66.104 -56.066,-74.755 -25.542,-5.399 -41.544,28.601 -26.476,46.722 34.961,42.044 43.454,57.692 45.449,69.663 C -2.718,-31.116 -8.832,-9.385 0,0"
           style="fill:#965adc;fill-opacity:0.25;fill-rule:nonzero;stroke:none"
           id="path3279" /></g><g
         id="g3285"
         transform="matrix(-0.85333349,0,0,-0.85333377,598.47296,-333.81106)"
         clip-path="url(#clipPath910)"
         style="fill:#965adc;fill-opacity:0.5"><path
           d="m 0,0 c -17.453,-3.535 -50.829,-12.708 -16.943,-45.383 13.067,-12.601 67.167,-16.947 102.868,-15.128 77.7,3.958 76.862,42.74 39.542,46.064 C 92.87,-11.544 47.803,9.682 0,0"
           style="fill:#965adc;fill-opacity:0.5;fill-rule:nonzero;stroke:none"
           id="path3283" /></g><g
         id="g3297"
         transform="matrix(-0.85333349,0,0,-0.85333377,773.86388,414.67476)"
         clip-path="url(#clipPath892)"
         style="fill:#965adc;fill-opacity:0.5"><path
           d="m 0,0 c 23.317,18.493 25.731,49.145 43.685,83.939 29.511,57.203 60.73,88.19 38.852,117.545 -26.516,25.052 -43.375,1.241 -53.406,47.241 C 25,267.662 -3.762,285.138 -30.628,246.617 V -5.037 C -17.929,-7.723 -3.999,-3.172 0,0"
           style="fill:#965adc;fill-opacity:0.5;fill-rule:nonzero;stroke:none"
           id="path3295" /></g><g
         id="g3301"
         transform="matrix(-0.85333349,0,0,-0.85333377,-205.5376,373.75468)"
         clip-path="url(#clipPath886)"
         style="fill:#965adc;fill-opacity:0.5"><path
           d="m 0,0 c -6.4,-36.798 6.775,-49.849 21.636,-52.99 v 251.654 c -2.685,-3.85 -5.352,-8.251 -7.972,-13.273 C -15.179,130.114 21.244,122.146 0,0"
           style="fill:#965adc;fill-opacity:0.5;fill-rule:nonzero;stroke:none"
           id="path3299" /></g><g
         id="g3309"
         transform="matrix(-0.85333349,0,0,-0.85333377,-185.94755,65.85669)"
         clip-path="url(#clipPath874)"
         style="fill:#965adc;fill-opacity:0.75"><path
           d="m 0,0 c -6.666,-23.361 -1.333,-60.738 18.663,-65.41 8.304,-1.941 17.296,-2.257 25.93,0.81 V 53.308 C 24.886,47.318 5.808,20.355 0,0"
           style="fill:#965adc;fill-opacity:0.75;fill-rule:nonzero;stroke:none"
           id="path3307" /></g><g
         id="g3313"
         transform="matrix(-0.85333349,0,0,-0.85333377,773.21134,88.44921)"
         clip-path="url(#clipPath868)"
         style="fill:#965adc;fill-opacity:0.75"><path
           d="m 0,0 c 13.331,38.935 7.677,79.734 -22.663,80.984 -2.896,0.12 -5.82,-0.316 -8.73,-1.2 V -38.125 C -19.237,-33.806 -7.795,-22.766 0,0"
           style="fill:#965adc;fill-opacity:0.75;fill-rule:nonzero;stroke:none"
           id="path3311" /></g><g
         id="g3317"
         transform="matrix(-0.85333349,0,0,-0.85333377,781.3142,-320.06146)"
         clip-path="url(#clipPath862)"
         style="fill:#965adc;fill-opacity:0.5"><path
           d="m 0,0 c 8.03,-19.11 57.85,-45.024 87.469,-17.463 29.619,27.562 30.176,41.255 65.114,53.081 28.393,9.611 49.776,24.782 58.74,39.311 H 8.389 C -10.092,53.708 -7.98,18.991 0,0"
           style="fill:#965adc;fill-opacity:0.5;fill-rule:nonzero;stroke:none"
           id="path3315" /></g><g
         id="g3321"
         transform="matrix(-0.85333349,0,0,-0.85333377,604.18134,614.82316)"
         clip-path="url(#clipPath856)"
         style="fill:#965adc;fill-opacity:0.5"><path
           d="m 0,0 c -13.178,9.812 -57.958,3.861 -112.077,-0.586 -32.156,-2.643 -66.202,-6.527 -85.948,-27.603 -0.395,-0.423 -0.763,-0.873 -1.138,-1.315 H 3.745 C 10.623,-18.358 10.192,-7.59 0,0"
           style="fill:#965adc;fill-opacity:0.5;fill-rule:nonzero;stroke:none"
           id="path3319" /></g><g
         id="g3189"
         transform="matrix(-0.85333349,0,0,-0.85333377,516.13506,391.95718)"
         clip-path="url(#clipPath1054)"
         style="fill:#965adc;fill-opacity:1"><path
           d="m 0,0 c -10.977,8.737 -19.392,28.521 -7.687,50.781 10.933,20.789 34.828,29.308 62.138,22.581 31.42,-7.736 37.185,-6.474 65.968,7.267 28.787,13.746 36.998,15.943 59.418,17.851 16.689,1.42 37.216,-7.187 58.151,-20.011 20.934,-12.829 34.978,-14.51 56.679,-15.934 28.778,-1.889 70.275,-8.681 78.939,-39.009 10.073,-35.279 -4.162,-58.796 -41.147,-61.3 -39.051,-2.649 -83.822,28.804 -107.434,31.626 -21.094,2.512 -51.286,-4.111 -76.492,-34.243 -16.366,-19.564 -23.904,-47.936 -55.196,-66.654 -26.367,-15.77 -71.581,-11.735 -74.443,20.44 -2.085,23.433 17.751,26.463 10.594,52.625 C 24.741,-16.637 18.894,-15.035 0,0"
           style="fill:#965adc;fill-opacity:1;fill-rule:nonzero;stroke:none"
           id="path3187" /></g><g
         id="g3221"
         transform="matrix(-0.85333349,0,0,-0.85333377,81.48668,286.78381)"
         clip-path="url(#clipPath1006)"
         style="fill:#965adc;fill-opacity:1"><path
           d="M 0,0 C -27.221,31.058 9.421,74.214 47.8,72.773 115.22,70.235 127.882,17.426 183.296,21.69 231.83,25.429 249.144,72.884 290.394,41.113 327.044,12.89 296.027,-57.1 253.995,-74.756 211.963,-92.407 169.006,-86.075 101.772,-25.88 63.271,8.585 29.492,-33.647 0,0"
           style="fill:#965adc;fill-opacity:1;fill-rule:nonzero;stroke:none"
           id="path3219" /></g><g
         id="g3237"
         transform="matrix(-0.85333349,0,0,-0.85333377,476.29967,36.45832)"
         clip-path="url(#clipPath982)"
         style="fill:#965adc;fill-opacity:1"><path
           d="m 0,0 c -11.148,-21.469 34.242,-45.656 41.374,-90.595 5.288,-33.301 -13.481,-42.923 2.141,-69.907 15.622,-26.986 52.163,-33.242 83.058,-18.7 38.208,17.988 36.569,34.685 63.889,32.254 44.208,-3.937 28.028,-38.212 65.625,-25.68 32.101,10.702 22.116,59.918 -36.378,94.872 -51.395,30.714 -77.04,-4.991 -146.235,68.479 C 47.313,18.508 15.72,30.253 0,0"
           style="fill:#965adc;fill-opacity:1;fill-rule:nonzero;stroke:none"
           id="path3235" /></g><g
         id="g3249"
         transform="matrix(-0.85333349,0,0,-0.85333377,777.776,526.50893)"
         clip-path="url(#clipPath964)"
         style="fill:#965adc;fill-opacity:1"><path
           d="m 0,0 c 22.816,20.993 86.478,37.739 136.86,27.784 55.163,-10.9 102.518,-67.862 90.636,-92.199 -16.59,-33.977 -79.772,5.646 -109.591,3.344 C 75.101,-64.377 45.889,-75.5 19.662,-77.972 -29.964,-82.648 -26.983,-24.839 0,0"
           style="fill:#965adc;fill-opacity:1;fill-rule:nonzero;stroke:none"
           id="path3247" /></g><g
         id="g3261"
         transform="matrix(-0.85333349,0,0,-0.85333377,-68.78503,-97.03798)"
         clip-path="url(#clipPath946)"
         style="fill:#965adc;fill-opacity:1"><path
           d="m 0,0 c -35.477,-14.866 -8.867,-57.479 -1.331,-75.813 24.606,-59.852 31.629,-83.932 28.514,-108.85 -3.115,-24.918 38.934,-43.607 56.066,-32.705 17.131,10.902 57.821,69.875 34.46,91.678 -23.36,21.804 -43.227,17.291 -43.227,85.124 C 74.482,-5.052 15.901,6.664 0,0"
           style="fill:#965adc;fill-opacity:1;fill-rule:nonzero;stroke:none"
           id="path3259" /></g><g
         id="g3269"
         transform="matrix(-0.85333349,0,0,-0.85333377,312.0009,-192.94391)"
         clip-path="url(#clipPath934)"
         style="fill:#965adc;fill-opacity:1"><path
           d="M 0,0 C 20.854,31.429 68.483,32.784 109.729,24.606 186.872,9.311 236.012,-13.845 244.064,-27.266 254.04,-43.892 271.858,-91.425 166.785,-54.849 135.584,-43.988 66.503,-67.833 38.904,-65.001 -1.762,-60.829 -12.012,-18.104 0,0"
           style="fill:#965adc;fill-opacity:1;fill-rule:nonzero;stroke:none"
           id="path3267" /></g><g
         id="g3289"
         transform="matrix(-0.85333349,0,0,-0.85333377,747.43427,18.95456)"
         clip-path="url(#clipPath904)"
         style="fill:#965adc;fill-opacity:1"><path
           d="m 0,0 c 25.169,-25.174 51.095,-34.95 83.294,-2.109 48.467,49.441 66.158,-0.85 129.48,12.019 46.384,9.427 72.869,80.819 45.046,117.915 -27.823,37.095 -76.895,14.872 -115.647,1.699 -30.337,-10.316 -61.888,-28.875 -97.657,-20.928 -35.773,7.95 -39.562,27.626 -69.754,41.079 -9.712,4.327 -22.509,8.659 -36.363,10.963 V 51.106 C -33.658,41.284 -19.419,19.418 0,0"
           style="fill:#965adc;fill-opacity:1;fill-rule:nonzero;stroke:none"
           id="path3287" /></g><g
         id="g3293"
         transform="matrix(-0.85333349,0,0,-0.85333377,-183.35837,-115.77173)"
         clip-path="url(#clipPath898)"
         style="fill:#965adc;fill-opacity:1"><path
           d="m 0,0 c -26.286,-9.212 -37.37,-34.582 -31.719,-59.416 5.652,-24.839 27.832,-41.331 50.409,-42.169 12.998,-0.482 22.103,-4.338 28.937,-10.213 V 2.755 C 32.13,5.332 15.31,5.368 0,0"
           style="fill:#965adc;fill-opacity:1;fill-rule:nonzero;stroke:none"
           id="path3291" /></g><g
         id="g3305"
         transform="matrix(-0.85333349,0,0,-0.85333377,-189.80925,443.44802)"
         clip-path="url(#clipPath880)"
         style="fill:#965adc;fill-opacity:1"><path
           d="m 0,0 c -53.581,-17.86 -54.185,-81.138 -131.821,-71.485 -45.48,5.654 -61.371,-17.47 -59.258,-34.359 2.784,-22.273 46.95,-56.85 97.303,-39.157 56.793,19.953 46.136,61.162 92.775,59.291 47.971,-1.925 43.275,50.719 33.154,70.579 C 28.929,-8.803 17.495,5.832 0,0"
           style="fill:#965adc;fill-opacity:1;fill-rule:nonzero;stroke:none"
           id="path3303" /></g><g
         id="g3325"
         transform="matrix(-0.85333349,0,0,-0.85333377,217.67,574.85392)"
         clip-path="url(#clipPath850)"
         style="fill:#965adc;fill-opacity:1"><path
           d="m 0,0 c -35.819,1.558 -60.844,-32.907 -82.542,-40.492 -44.868,-15.685 -262.078,6.444 -301.044,-35.851 H 116.143 C 102.053,-66.264 83.168,-55.367 71.641,-46.722 52.952,-32.705 35.82,-1.557 0,0"
           style="fill:#965adc;fill-opacity:1;fill-rule:nonzero;stroke:none"
           id="path3323" /></g><g
         id="g3329"
         transform="matrix(-0.85333349,0,0,-0.85333377,547.10587,-359.99065)"
         clip-path="url(#clipPath844)"
         style="fill:#965adc;fill-opacity:1"><path
           d="m 0,0 c 11.596,-23.802 148.853,-45.165 235.178,-31.472 147.208,23.35 172.498,-14.214 222.335,-14.214 49.837,0 76.142,25.381 62.48,56.723 -2.132,4.893 -9.04,10.839 -17.793,17.1 H 2.472 C -4.245,20.846 -5.672,11.643 0,0"
           style="fill:#965adc;fill-opacity:1;fill-rule:nonzero;stroke:none"
           id="path3327" /></g><g
         id="g3333"
         transform="matrix(-0.85333349,0,0,-0.85333377,-14.29843,-325.86609)"
         clip-path="url(#clipPath838)"
         style="fill:#965adc;fill-opacity:0.75"><path
           d="m 0,0 c 39.046,15.574 74.704,12.839 96.18,11.282 21.475,-1.558 76.141,-20.246 107.379,-1.558 14.024,8.392 20.269,32.536 20.381,58.402 H -62.481 c -2.651,-2.636 -4.93,-5.545 -6.757,-8.779 C -90.67,21.431 -39.047,-15.574 0,0"
           style="fill:#965adc;fill-opacity:0.75;fill-rule:nonzero;stroke:none"
           id="path3331" /></g><g
         id="g3337"
         transform="matrix(-0.85333349,0,0,-0.85333377,-184.66928,574.21565)"
         clip-path="url(#clipPath832)"
         style="fill:#965adc;fill-opacity:0.75"><path
           d="m 0,0 c -47.988,34.473 -99.915,-19.283 -137.01,-36.414 -33.736,-15.58 -98.488,-14.189 -125.125,-40.677 H 24.287 C 24.425,-45.347 15.322,-11.007 0,0"
           style="fill:#965adc;fill-opacity:0.75;fill-rule:nonzero;stroke:none"
           id="path3335" /></g></g><rect
       style="fill:none;fill-opacity:1;stroke:none;stroke-width:24;stroke-linecap:round;stroke-linejoin:round;stroke-dasharray:none"
       id="rect1058"
       width="256"
       height="256"
       x="0"
       y="0" /><path
       id="path10967-3"
       style="color:#000000;fill:none;fill-opacity:1;stroke:none;stroke-width:24.3074;stroke-linecap:round;stroke-linejoin:round;stroke-dasharray:none;stroke-opacity:1"
       d="m 38.207096,12.163543 a 2.0367701,2.0149348 0 0 0 -0.853209,0.289224 2.0367701,2.0149348 0 0 0 -0.861165,2.351177 l 12.219399,36.265201 a 2.0367701,2.0149348 0 0 0 1.931158,1.377259 h 2.322958 c 0.325961,3.022649 1.132246,5.259756 2.346825,6.461312 0.749149,0.741122 1.556212,1.156555 2.195674,1.367422 0.125128,0.04126 0.130159,0.01743 0.250592,0.04525 l 0.863155,0.8539 a 2.0367701,2.0149348 0 0 0 2.931542,-0.05312 c 1.347358,-1.433918 2.67489,-2.801649 3.94187,-4.055044 2.581035,-2.553368 5.486641,-4.926424 8.619608,-7.090917 a 2.0367701,2.0149348 0 0 0 0.274459,-3.07719 l -1.531403,-1.514983 c -0.02814,-0.119142 -0.0041,-0.124118 -0.04574,-0.247906 -0.213152,-0.632606 -0.633087,-1.431016 -1.38224,-2.172134 -1.214582,-1.201563 -3.475929,-1.999202 -6.531334,-2.321668 v -2.298055 a 2.0367701,2.0149348 0 0 0 -0.596651,-1.424479 l -24.438798,-24.1768 a 2.0367701,2.0149348 0 0 0 -1.6567,-0.578449 z m 171.288364,4.017661 c -6.78852,0 -11.63428,3.533372 -14.45485,7.99794 -2.27617,3.602807 -3.18465,7.675922 -3.53416,11.445024 -0.47466,-0.09975 -0.78247,-0.302997 -1.35837,-0.302997 -2.71542,10e-7 -6.29137,1.360203 -10.60447,5.627088 l -1.1933,1.180506 a 2.0367701,2.0149348 0 0 0 0.4972,3.210982 c 5.49164,2.838868 9.63872,5.635757 11.7222,7.696912 0.64507,0.638151 1.26917,1.297796 1.88342,1.971447 a 2.0367701,2.0149348 0 0 0 3.00116,0.02361 c 3.77665,-4.01123 4.93082,-7.369036 4.85475,-9.894622 -0.002,-0.05767 -0.0309,-0.07915 -0.0338,-0.135759 1.11976,0.179798 2.22087,0.393499 3.61967,0.393499 3.95191,-1e-6 9.03387,-1.280054 11.49546,-6.150445 3.89097,-7.698487 7.22964,-8.960054 9.37935,-8.960055 2.1497,-1e-6 3.6515,1.424479 3.6515,1.424479 a 2.0367701,2.0149348 0 0 0 3.37107,-2.061952 c 0,0 -1.18951,-3.492536 -4.56438,-6.831205 -3.37483,-3.338672 -9.07709,-6.634455 -17.73244,-6.634455 z m -89.60893,26.191533 c -16.29243,0 -36.658249,8.058994 -48.877586,20.147334 C 58.789606,74.60841 42.497013,94.755925 42.497013,118.9326 c 0,20.14723 12.219439,28.20632 20.365665,36.2652 8.146225,8.05889 20.365664,32.23584 20.365664,48.3536 0,8.05889 4.073154,8.05894 8.146266,8.05894 4.073133,0 4.073133,-8.05894 4.073133,-8.05894 0,-4.02946 4.07313,-8.05893 8.146259,-8.05893 12.21935,0 1e-4,24.1768 16.29253,24.1768 6.90798,0 8.14627,-4.02947 12.2194,-8.05893 4.07313,-4.02947 4.07313,-4.02947 8.14627,-4.02947 4.07313,0 8.14626,12.08845 8.14626,24.1768 0,6.14088 2.26623,12.0884 8.14627,12.0884 3.73119,0 8.14626,-5e-5 8.14626,-12.0884 0,-12.08835 4.07314,-28.20632 4.07314,-40.29467 0,-12.08835 1e-4,-32.23583 16.29253,-48.3536 12.21935,-12.08835 16.29253,-28.20631 16.29253,-40.29466 0,-16.117789 -4.07318,-32.235796 -16.29253,-44.324136 -4.07313,-4.029446 -24.4389,-16.117867 -40.73133,-16.117867 z m -46.315968,99.241353 2.776414,2.74665 c -0.972131,-0.78093 -1.90249,-1.70105 -2.776414,-2.74665 z m -30.978085,11.57094 a 2.0367701,2.0149348 0 0 0 -1.53538,0.5883 l -16.292532,16.11786 a 2.0367701,2.0149348 0 0 0 -0.381856,2.3256 c 0,0 1.256911,2.44205 4.112909,4.70236 2.145431,1.69794 5.267526,3.36461 9.468841,4.09046 l -0.980495,0.96998 a 2.0367701,2.0149348 0 0 0 -0.451466,0.67682 l -8.146266,20.14733 a 2.0367701,2.0149348 0 0 0 2.647139,2.61877 l 20.365665,-8.05894 a 2.0367701,2.0149348 0 0 0 0.684158,-0.44662 l 16.292532,-16.11787 0.08552,-0.0846 a 2.0367701,2.0149348 0 0 0 0.395778,-2.29805 c -3.049511,-6.26667 -6.520388,-11.81035 -9.46287,-15.44496 a 2.0367701,2.0149348 0 0 0 -3.028994,-0.16528 l -3.08866,3.05556 -0.980496,0.96998 c -0.733706,-4.15629 -2.418445,-7.24489 -4.134787,-9.36733 -2.284798,-2.82539 -4.753314,-4.06882 -4.753314,-4.06882 a 2.0367701,2.0149348 0 0 0 -0.815422,-0.21053 z m 144.814983,0.2794 a 2.0367701,2.0149348 0 0 0 -1.81382,0.80864 c -5.69709,7.61066 -8.35949,15.76055 -9.60408,23.30126 a 2.0367701,2.0149348 0 0 0 1.09983,2.12688 l 2.09225,1.03491 c 0.17099,0.64804 0.45362,1.48384 0.9984,2.5617 1.13971,2.255 3.31671,5.44151 7.50984,9.58966 l 16.29253,16.11787 a 2.0367701,2.0149348 0 0 0 3.33129,-2.17214 l -7.64706,-18.9137 2.17379,-2.15049 19.11867,7.56509 a 2.0367701,2.0149348 0 0 0 2.19567,-3.29558 l -16.29253,-16.11787 c -4.1931,-4.14818 -7.41414,-6.30184 -9.69358,-7.42933 -1.08954,-0.53894 -1.9344,-0.81854 -2.58946,-0.98769 l -5.52697,-10.93348 a 2.0367701,2.0149348 0 0 0 -1.64477,-1.10573 z" /><text
       xml:space="preserve"
       style="font-style:normal;font-weight:normal;font-size:35.695px;line-height:1.25;font-family:sans-serif;fill:#191919;fill-opacity:1;stroke:none;stroke-width:0.892373"
       x="52.723312"
       y="186.42104"
       id="text915"><tspan
         sodipodi:role="line"
         id="tspan913"
         x="52.723312"
         y="186.42104"
         style="font-style:normal;font-variant:normal;font-weight:bold;font-stretch:normal;font-family:'DejaVu Sans';-inkscape-font-specification:'DejaVu Sans Bold';fill:#191919;fill-opacity:1;stroke-width:0.892373">PHOTO</tspan></text><text
       xml:space="preserve"
       style="font-style:normal;font-weight:normal;font-size:20.747px;line-height:1.25;font-family:sans-serif;fill:#191919;fill-opacity:1;stroke:none;stroke-width:0.518674"
       x="54.946442"
       y="211.70622"
       id="text919"><tspan
         sodipodi:role="line"
         id="tspan917"
         x="54.946442"
         y="211.70622"
         style="font-style:normal;font-variant:normal;font-weight:normal;font-stretch:semi-condensed;font-family:'DejaVu Sans';-inkscape-font-specification:'DejaVu Sans Semi-Condensed';fill:#191919;fill-opacity:1;stroke-width:0.518674">COMING SOON</tspan></text><path
       style="fill:#e1e1e1;fill-opacity:1;stroke:#191919;stroke-width:6;stroke-linecap:round;stroke-linejoin:round;stroke-dasharray:none;stroke-opacity:1"
       d="M 95.75335,29.265965 83.000002,130.46556 178.24668,142.46872 191.00003,41.269122 Z"
       id="path1163-3" /><path
       style="fill:#e1e1e1;fill-opacity:1;stroke:#191919;stroke-width:6;stroke-linecap:round;stroke-linejoin:round;stroke-dasharray:none;stroke-opacity:1"
       d="m 77,46.86733 v 102.00003 h 96.00003 V 46.86733 Z"
       id="path1163" /><path
       style="fill:#191919;fill-opacity:1;stroke:#191919;stroke-width:4.17978;stroke-linecap:round;stroke-linejoin:round;stroke-dasharray:none;stroke-opacity:1"
       d="M 89.000004,58.867333 V 124.86735 H 161.00002 V 58.867333 Z"
       id="path1163-7" /></g></svg>
