<?xml version="1.0" encoding="UTF-8" standalone="no"?>
<!-- Created with Inkscape (http://www.inkscape.org/) -->

<svg
   width="256px"
   height="256px"
   viewBox="0 0 256 256"
   version="1.1"
   id="SVGRoot"
   sodipodi:docname="necrominis-missing-paint-icon.svg"
   xml:space="preserve"
   inkscape:version="1.2.2 (1:1.2.2+202212051550+b0a8486541)"
   inkscape:export-filename="necrominis-paint-icon-grey.png"
   inkscape:export-xdpi="192"
   inkscape:export-ydpi="192"
   xmlns:inkscape="http://www.inkscape.org/namespaces/inkscape"
   xmlns:sodipodi="http://sodipodi.sourceforge.net/DTD/sodipodi-0.dtd"
   xmlns="http://www.w3.org/2000/svg"
   xmlns:svg="http://www.w3.org/2000/svg"><sodipodi:namedview
     id="namedview1076"
     pagecolor="#ffffff"
     bordercolor="#999999"
     borderopacity="1"
     inkscape:showpageshadow="0"
     inkscape:pageopacity="0"
     inkscape:pagecheckerboard="0"
     inkscape:deskcolor="#d1d1d1"
     inkscape:document-units="px"
     showgrid="true"
     inkscape:zoom="0.74724266"
     inkscape:cx="-10.706027"
     inkscape:cy="289.73185"
     inkscape:window-width="1920"
     inkscape:window-height="1015"
     inkscape:window-x="0"
     inkscape:window-y="0"
     inkscape:window-maximized="1"
     inkscape:current-layer="layer1"><inkscape:grid
       type="xygrid"
       id="grid1979"
       spacingx="4"
       spacingy="4"
       empspacing="8" /></sodipodi:namedview><defs
     id="defs1071" /><g
     inkscape:label="Layer 1"
     inkscape:groupmode="layer"
     id="layer1"><path
       id="path1846"
       style="color:#000000;fill:#7d7d7d;stroke-width:16;stroke-linecap:round;stroke-linejoin:round;-inkscape-stroke:none;fill-opacity:1"
       d="M 128 8 C 61.820917 8 8 61.820917 8 128 C 8 193.76768 61.160031 247.30536 126.77344 247.96875 C 127.1799 247.98966 127.58875 248 128 248 C 129.01131 248 130.00629 247.9289 130.98633 247.80469 C 131.45675 247.74549 131.93072 247.68545 132.32031 247.5957 C 143.45009 245.5345 152 235.68615 152 224 C 152 212.00001 144 191.99999 144 184 C 144 175.22665 151.22665 168 160 168 L 208 168 C 229.99653 168 248 149.99653 248 128 C 248 127.31261 247.98197 126.62838 247.94727 125.94922 C 246.84451 60.71664 193.49123 8 128 8 z M 96 32 A 20 20 0 0 1 116 52 A 20 20 0 0 1 96 72 A 20 20 0 0 1 76 52 A 20 20 0 0 1 96 32 z M 160 32 A 20 20 0 0 1 180 52 A 20 20 0 0 1 160 72 A 20 20 0 0 1 140 52 A 20 20 0 0 1 160 32 z M 52 84 A 20 20 0 0 1 72 104 A 20 20 0 0 1 52 124 A 20 20 0 0 1 32 104 A 20 20 0 0 1 52 84 z M 204 84 A 20 20 0 0 1 224 104 A 20 20 0 0 1 204 124 A 20 20 0 0 1 184 104 A 20 20 0 0 1 204 84 z " /></g></svg>
